Commissioner-LoudExtraLight.ufo
<glyph name="numbersign" format="2">
  <advance width="1349.2421052631578"/>
  <unicode hex="0023"/>
  <outline>
    <contour>
      <point x="38.31578947368421" y="326.37894736842105" type="line"/>
      <point x="157.17894736842106" y="328.71578947368425"/>
      <point x="292.69473684210527" y="331.0526315789474"/>
      <point x="366.4" y="331.38947368421054" type="curve"/>
      <point x="863.7052631578947" y="331.38947368421054" type="line"/>
      <point x="937.4105263157895" y="331.0526315789474"/>
      <point x="1072.9263157894736" y="328.71578947368425"/>
      <point x="1191.7894736842106" y="326.37894736842105" type="curve"/>
      <point x="1191.7894736842106" y="414.63157894736844" type="line"/>
      <point x="1072.9263157894736" y="412.29473684210524"/>
      <point x="937.4105263157895" y="409.9578947368421"/>
      <point x="863.7052631578947" y="409.62105263157895" type="curve"/>
      <point x="366.4" y="409.62105263157895" type="line"/>
      <point x="292.69473684210527" y="409.9578947368421"/>
      <point x="157.17894736842106" y="412.29473684210524"/>
      <point x="38.31578947368421" y="414.63157894736844" type="curve"/>
    </contour>
    <contour>
      <point x="247.2421052631579" y="0.0" type="curve"/>
      <point x="344.021052631579" y="0.0" type="line"/>
      <point x="370.6736842105263" y="134.33684210526314"/>
      <point x="393.66315789473686" y="251.5157894736842"/>
      <point x="426.14736842105265" y="419.6842105263158" type="curve"/>
      <point x="522.1263157894737" y="870.8631578947368" type="line"/>
      <point x="560.2947368421052" y="1045.5368421052633"/>
      <point x="588.1263157894737" y="1163.3684210526314"/>
      <point x="620.1263157894737" y="1309.3684210526317" type="curve"/>
      <point x="523.6842105263157" y="1309.3684210526317" type="line"/>
      <point x="496.86315789473684" y="1168.0210526315789"/>
      <point x="474.2105263157895" y="1050.6947368421052"/>
      <point x="438.06315789473683" y="874.5263157894736" type="curve"/>
      <point x="342.0842105263158" y="419.6842105263158" type="line"/>
      <point x="303.7473684210526" y="251.17894736842106"/>
      <point x="277.2421052631579" y="133.66315789473683"/>
    </contour>
    <contour>
      <point x="157.45263157894738" y="888.7368421052632" type="line"/>
      <point x="276.3157894736842" y="891.0736842105263"/>
      <point x="411.8315789473684" y="893.4105263157895"/>
      <point x="485.53684210526313" y="893.7473684210527" type="curve"/>
      <point x="982.8421052631579" y="893.7473684210527" type="line"/>
      <point x="1056.5473684210526" y="893.4105263157895"/>
      <point x="1192.0631578947368" y="891.0736842105263"/>
      <point x="1310.9263157894736" y="888.7368421052632" type="curve"/>
      <point x="1310.9263157894736" y="976.9894736842105" type="line"/>
      <point x="1192.0631578947368" y="974.6526315789474"/>
      <point x="1056.5473684210526" y="972.3157894736842"/>
      <point x="982.8421052631579" y="971.978947368421" type="curve"/>
      <point x="485.53684210526313" y="971.978947368421" type="line"/>
      <point x="411.8315789473684" y="972.3157894736842"/>
      <point x="276.3157894736842" y="974.6526315789474"/>
      <point x="157.45263157894738" y="976.9894736842105" type="curve"/>
    </contour>
    <contour>
      <point x="712.2947368421053" y="0.0" type="curve"/>
      <point x="809.0736842105264" y="0.0" type="line"/>
      <point x="835.7263157894737" y="134.33684210526314"/>
      <point x="858.7157894736843" y="251.5157894736842"/>
      <point x="891.2" y="419.6842105263158" type="curve"/>
      <point x="987.1789473684211" y="870.8631578947368" type="line"/>
      <point x="1025.3473684210528" y="1045.5368421052633"/>
      <point x="1053.178947368421" y="1163.3684210526314"/>
      <point x="1085.178947368421" y="1309.3684210526317" type="curve"/>
      <point x="988.7368421052631" y="1309.3684210526317" type="line"/>
      <point x="961.9157894736842" y="1168.0210526315789"/>
      <point x="939.2631578947369" y="1050.6947368421052"/>
      <point x="903.1157894736842" y="874.5263157894736" type="curve"/>
      <point x="807.1368421052632" y="419.6842105263158" type="line"/>
      <point x="768.8000000000001" y="251.17894736842106"/>
      <point x="742.2947368421052" y="133.66315789473683"/>
    </contour>
  </outline>
</glyph>
<glyph name="dollar" format="2">
  <advance width="1110.0631578947368"/>
  <unicode hex="0024"/>
  <outline>
    <contour>
      <point x="578.4842105263158" y="-19.010526315789473" type="curve" smooth="yes"/>
      <point x="883.4105263157895" y="-19.010526315789473"/>
      <point x="1018.9473684210526" y="151.97894736842105"/>
      <point x="1018.9473684210526" y="359.05263157894734" type="curve" smooth="yes"/>
      <point x="1018.9473684210526" y="541.1157894736842"/>
      <point x="916.6105263157895" y="637.4526315789474"/>
      <point x="589.1157894736842" y="745.7684210526315" type="curve" smooth="yes"/>
      <point x="329.36842105263156" y="832.2315789473685"/>
      <point x="218.56842105263158" y="887.6842105263158"/>
      <point x="218.56842105263158" y="1038.5894736842106" type="curve" smooth="yes"/>
      <point x="218.56842105263158" y="1225.7894736842106"/>
      <point x="377.8315789473684" y="1299.242105263158"/>
      <point x="550.5894736842105" y="1302.9052631578948" type="curve"/>
      <point x="593.7473684210527" y="1302.9052631578948"/>
      <point x="764.9263157894737" y="1249.242105263158"/>
      <point x="920.4421052631579" y="1189.242105263158" type="curve"/>
      <point x="935.7894736842105" y="1289.2" type="line"/>
      <point x="833.2421052631579" y="1322.8631578947368"/>
      <point x="627.0526315789474" y="1392.6736842105263"/>
      <point x="549.3473684210526" y="1392.6736842105263" type="curve" smooth="yes"/>
      <point x="273.93684210526317" y="1392.6736842105263"/>
      <point x="125.09473684210526" y="1236.821052631579"/>
      <point x="125.09473684210526" y="1038.421052631579" type="curve" smooth="yes"/>
      <point x="125.09473684210526" y="836.5263157894736"/>
      <point x="275.9157894736842" y="753.0105263157894"/>
      <point x="541.2210526315789" y="667.0315789473684" type="curve" smooth="yes"/>
      <point x="780.3368421052631" y="589.5578947368421"/>
      <point x="925.6421052631579" y="526.4421052631579"/>
      <point x="925.6421052631579" y="360.2105263157895" type="curve" smooth="yes"/>
      <point x="925.6421052631579" y="147.53684210526316"/>
      <point x="770.2315789473685" y="73.74736842105263"/>
      <point x="576.8" y="70.08421052631579" type="curve"/>
      <point x="486.021052631579" y="70.08421052631579"/>
      <point x="329.47368421052636" y="120.25263157894737"/>
      <point x="153.62105263157895" y="185.9157894736842" type="curve"/>
      <point x="141.76842105263157" y="83.45263157894736" type="line"/>
      <point x="301.1157894736842" y="31.305263157894736"/>
      <point x="482.65263157894736" y="-19.010526315789473"/>
    </contour>
    <contour>
      <point x="518.9052631578946" y="-274.0" type="curve"/>
      <point x="612.1684210526316" y="-274.0" type="line"/>
      <point x="609.4947368421053" y="1.9999999999999996"/>
      <point x="606.6526315789474" y="308.0"/>
      <point x="606.4842105263158" y="384.0" type="curve"/>
      <point x="606.4842105263158" y="948.0" type="line"/>
      <point x="606.6526315789474" y="1024.0"/>
      <point x="609.4947368421053" y="1330.0"/>
      <point x="612.1684210526316" y="1606.0" type="curve"/>
      <point x="518.9052631578946" y="1606.0" type="line"/>
      <point x="521.5789473684209" y="1330.0"/>
      <point x="524.4210526315788" y="1024.0"/>
      <point x="524.5894736842105" y="948.0" type="curve"/>
      <point x="524.5894736842105" y="384.0" type="line"/>
      <point x="524.4210526315788" y="308.0"/>
      <point x="521.5789473684209" y="2.0"/>
    </contour>
  </outline>
</glyph>
<glyph name="ampersand" format="2">
  <advance width="1435.4482758620688"/>
  <unicode hex="0026"/>
  <outline>
    <contour>
      <point x="1258.6666666666667" y="0.0" type="curve"/>
      <point x="1402.0689655172414" y="0.0" type="line"/>
      <point x="1288.022988505747" y="109.14942528735632"/>
      <point x="1173.9770114942528" y="219.93103448275863"/>
      <point x="1057.9310344827586" y="330.71264367816093" type="curve"/>
      <point x="586.0229885057471" y="794.1379310344828" type="line" smooth="yes"/>
      <point x="454.2758620689655" y="922.9885057471264"/>
      <point x="394.32183908045977" y="1010.0459770114943"/>
      <point x="394.32183908045977" y="1126.6896551724137" type="curve" smooth="yes"/>
      <point x="394.32183908045977" y="1262.2298850574712"/>
      <point x="477.5402298850575" y="1363.4022988505749"/>
      <point x="621.2413793103449" y="1367.7701149425288" type="curve"/>
      <point x="747.5172413793103" y="1363.4022988505749"/>
      <point x="837.471264367816" y="1281.816091954023"/>
      <point x="837.471264367816" y="1144.8505747126437" type="curve" smooth="yes"/>
      <point x="837.471264367816" y="1031.3563218390805"/>
      <point x="696.0919540229886" y="930.6206896551724"/>
      <point x="543.6551724137931" y="823.5632183908045" type="curve"/>
      <point x="598.5747126436783" y="762.1149425287356" type="line"/>
      <point x="755.3103448275862" y="874.0000000000001"/>
      <point x="928.1609195402299" y="994.2068965517242"/>
      <point x="928.1609195402299" y="1145.9540229885058" type="curve" smooth="yes"/>
      <point x="928.1609195402299" y="1336.0"/>
      <point x="788.4367816091954" y="1450.7356321839081"/>
      <point x="619.0344827586207" y="1450.7356321839081" type="curve" smooth="yes"/>
      <point x="442.57471264367814" y="1450.7356321839081"/>
      <point x="299.95402298850576" y="1323.471264367816"/>
      <point x="299.95402298850576" y="1126.3218390804598" type="curve" smooth="yes"/>
      <point x="299.95402298850576" y="976.528735632184"/>
      <point x="382.11494252873564" y="868.1609195402299"/>
      <point x="514.4367816091954" y="738.0" type="curve" smooth="yes"/>
      <point x="988.551724137931" y="272.0" type="line"/>
      <point x="1078.712643678161" y="182.0"/>
      <point x="1170.5057471264367" y="88.0"/>
    </contour>
    <contour>
      <point x="547.5862068965516" y="-18.735632183908045" type="curve" smooth="yes"/>
      <point x="671.6321839080459" y="-18.735632183908045"/>
      <point x="802.6896551724137" y="73.42528735632183"/>
      <point x="1007.7471264367816" y="240.22988505747125" type="curve"/>
      <point x="1032.1149425287356" y="240.22988505747125" type="line"/>
      <point x="1026.6436781609195" y="266.64367816091954" type="line"/>
      <point x="966.7126436781609" y="318.6666666666667" type="line"/>
      <point x="763.0114942528735" y="146.64367816091954"/>
      <point x="638.6436781609195" y="67.9080459770115"/>
      <point x="553.8390804597701" y="67.9080459770115" type="curve"/>
      <point x="331.6551724137931" y="72.27586206896552"/>
      <point x="206.27586206896552" y="186.39080459770116"/>
      <point x="206.27586206896552" y="368.98850574712645" type="curve" smooth="yes"/>
      <point x="206.27586206896552" y="556.4827586206897"/>
      <point x="346.8735632183908" y="670.4367816091954"/>
      <point x="528.9425287356322" y="753.6551724137931" type="curve"/>
      <point x="485.7011494252874" y="822.9425287356322" type="line"/>
      <point x="310.2298850574713" y="742.9425287356322"/>
      <point x="113.37931034482759" y="608.2068965517242"/>
      <point x="113.37931034482759" y="364.2068965517241" type="curve" smooth="yes"/>
      <point x="113.37931034482759" y="154.89655172413794"/>
      <point x="258.11494252873564" y="-18.735632183908045"/>
    </contour>
    <contour>
      <point x="1069.6091954022988" y="306.2988505747126" type="line"/>
      <point x="1154.9195402298851" y="430.82758620689657"/>
      <point x="1237.8620689655172" y="551.3563218390805"/>
      <point x="1322.8045977011493" y="676.2528735632184" type="curve"/>
      <point x="1231.2183908045977" y="731.0114942528736" type="line"/>
      <point x="1155.9540229885056" y="605.7471264367816"/>
      <point x="1084.6896551724137" y="489.74712643678157"/>
      <point x="1006.1609195402299" y="359.2183908045977" type="curve"/>
    </contour>
  </outline>
</glyph>
<glyph name="parenleft" format="2">
  <advance width="740.9684210526316"/>
  <unicode hex="0028"/>
  <outline>
    <contour>
      <point x="560.4631578947368" y="-229.55789473684212" type="curve"/>
      <point x="650.378947368421" y="-191.6421052631579" type="line"/>
      <point x="446.5473684210526" y="48.56842105263158"/>
      <point x="229.6" y="329.6842105263158"/>
      <point x="229.6" y="647.8315789473684" type="curve" smooth="yes"/>
      <point x="229.6" y="967.8105263157894"/>
      <point x="446.5473684210526" y="1247.0947368421052"/>
      <point x="650.378947368421" y="1487.3052631578948" type="curve"/>
      <point x="560.4631578947368" y="1525.221052631579" type="line"/>
      <point x="366.65263157894736" y="1281.0736842105262"/>
      <point x="133.26315789473685" y="992.7368421052633"/>
      <point x="133.26315789473685" y="647.8315789473684" type="curve" smooth="yes"/>
      <point x="133.26315789473685" y="304.7578947368421"/>
      <point x="366.65263157894736" y="14.589473684210528"/>
    </contour>
  </outline>
</glyph>
<glyph name="asterisk" format="2">
  <advance width="925.2631578947369"/>
  <unicode hex="002A"/>
  <outline>
    <contour>
      <point x="822.1894736842105" y="761.5789473684212" type="curve"/>
      <point x="869.2842105263157" y="837.7473684210527" type="line"/>
      <point x="739.7684210526317" y="912.4"/>
      <point x="608.2526315789473" y="986.7157894736843"/>
      <point x="478.7368421052632" y="1061.3684210526317" type="curve"/>
      <point x="352.90526315789475" y="1146.378947368421"/>
      <point x="227.07368421052632" y="1229.8947368421054"/>
      <point x="103.07368421052631" y="1313.0736842105262" type="curve"/>
      <point x="55.97894736842105" y="1236.7368421052631" type="line"/>
      <point x="185.49473684210528" y="1162.0842105263157"/>
      <point x="316.8421052631579" y="1087.7684210526315"/>
      <point x="448.3578947368421" y="1011.2842105263159" type="curve"/>
      <point x="572.3578947368421" y="928.1052631578947"/>
      <point x="698.1894736842105" y="844.7578947368421"/>
    </contour>
    <contour>
      <point x="103.2421052631579" y="761.4105263157895" type="line"/>
      <point x="227.2421052631579" y="844.757894736842"/>
      <point x="352.90526315789475" y="928.1052631578947"/>
      <point x="478.7368421052632" y="1013.2842105263157" type="curve"/>
      <point x="608.2526315789473" y="1087.7684210526315"/>
      <point x="739.6" y="1162.421052631579"/>
      <point x="869.1157894736841" y="1236.9052631578945" type="curve"/>
      <point x="822.0210526315789" y="1313.2421052631578" type="line"/>
      <point x="698.021052631579" y="1229.8947368421054"/>
      <point x="572.3578947368421" y="1146.5473684210526"/>
      <point x="448.3578947368421" y="1063.2" type="curve"/>
      <point x="317.0105263157895" y="986.8842105263159"/>
      <point x="185.49473684210528" y="912.4"/>
      <point x="55.97894736842105" y="837.9157894736843" type="curve"/>
    </contour>
    <contour>
      <point x="417.2842105263158" y="585.8105263157895" type="curve"/>
      <point x="507.978947368421" y="585.8105263157895" type="line"/>
      <point x="502.4631578947368" y="736.3157894736842"/>
      <point x="496.77894736842103" y="886.8210526315789"/>
      <point x="491.2631578947368" y="1039.157894736842" type="curve"/>
      <point x="496.77894736842103" y="1187.8315789473684"/>
      <point x="502.29473684210524" y="1338.3368421052633"/>
      <point x="507.81052631578945" y="1488.842105263158" type="curve"/>
      <point x="417.2842105263158" y="1488.842105263158" type="line"/>
      <point x="422.8" y="1338.3368421052633"/>
      <point x="428.4842105263158" y="1187.8315789473684"/>
      <point x="434.0" y="1039.157894736842" type="curve"/>
      <point x="428.4842105263158" y="886.8210526315789"/>
      <point x="422.8" y="736.3157894736842"/>
    </contour>
  </outline>
</glyph>
<glyph name="comma" format="2">
  <advance width="438.2736842105263"/>
  <unicode hex="002C"/>
  <outline>
    <contour>
      <point x="107.9157894736842" y="-314.0" type="curve"/>
      <point x="167.38947368421054" y="-311.8315789473684" type="line"/>
      <point x="224.90526315789475" y="-181.36842105263156"/>
      <point x="320.5052631578947" y="20.526315789473685"/>
      <point x="320.5052631578947" y="95.2421052631579" type="curve" smooth="yes"/>
      <point x="320.5052631578947" y="150.82105263157894"/>
      <point x="295.13684210526316" y="191.05263157894737"/>
      <point x="242.21052631578948" y="194.56842105263158" type="curve"/>
      <point x="175.22105263157894" y="191.22105263157894" type="line"/>
      <point x="178.4" y="138.0"/>
      <point x="183.2421052631579" y="84.77894736842106"/>
      <point x="185.9157894736842" y="32.56842105263158" type="curve"/>
      <point x="162.25263157894736" y="-82.44210526315788"/>
      <point x="137.41052631578947" y="-196.16842105263157"/>
    </contour>
  </outline>
</glyph>
<glyph name="hyphen" format="2">
  <advance width="841.6842105263158"/>
  <unicode hex="002D"/>
  <outline>
    <contour>
      <point x="134.94736842105263" y="543.0315789473684" type="line"/>
      <point x="238.96842105263158" y="545.3684210526314"/>
      <point x="355.978947368421" y="547.7052631578947"/>
      <point x="420.8421052631579" y="548.0421052631579" type="curve"/>
      <point x="485.70526315789476" y="547.7052631578947"/>
      <point x="602.7157894736843" y="545.3684210526314"/>
      <point x="706.7368421052631" y="543.0315789473684" type="curve"/>
      <point x="706.7368421052631" y="640.0" type="line"/>
      <point x="602.7157894736843" y="637.663157894737"/>
      <point x="485.70526315789476" y="635.3263157894737"/>
      <point x="420.8421052631579" y="634.9894736842106" type="curve"/>
      <point x="355.978947368421" y="635.3263157894737"/>
      <point x="238.96842105263158" y="637.663157894737"/>
      <point x="134.94736842105263" y="640.0" type="curve"/>
    </contour>
  </outline>
</glyph>
<glyph name="period" format="2">
  <advance width="439.81052631578945"/>
  <unicode hex="002E"/>
  <outline>
    <contour>
      <point x="220.73684210526315" y="-19.178947368421053" type="curve" smooth="yes"/>
      <point x="284.9894736842105" y="-19.178947368421053"/>
      <point x="323.87368421052633" y="13.705263157894738"/>
      <point x="323.87368421052633" y="90.46315789473684" type="curve" smooth="yes"/>
      <point x="323.87368421052633" y="154.69473684210527"/>
      <point x="284.9894736842105" y="185.2421052631579"/>
      <point x="220.90526315789475" y="185.2421052631579" type="curve" smooth="yes"/>
      <point x="158.4842105263158" y="185.2421052631579"/>
      <point x="117.76842105263158" y="154.69473684210527"/>
      <point x="117.76842105263158" y="90.46315789473684" type="curve" smooth="yes"/>
      <point x="117.76842105263158" y="13.705263157894738"/>
      <point x="158.4842105263158" y="-19.178947368421053"/>
    </contour>
  </outline>
</glyph>
<glyph name="slash" format="2">
  <advance width="883.9157894736843"/>
  <unicode hex="002F"/>
  <outline>
    <contour>
      <point x="68.92631578947369" y="0.0" type="curve"/>
      <point x="177.78947368421052" y="0.0" type="line"/>
      <point x="241.76842105263157" y="148.0"/>
      <point x="295.91578947368424" y="272.0"/>
      <point x="375.3894736842105" y="456.0" type="curve"/>
      <point x="595.0105263157894" y="948.0" type="line"/>
      <point x="682.1684210526316" y="1138.0"/>
      <point x="741.4947368421053" y="1265.8315789473684"/>
      <point x="814.9894736842105" y="1426.0" type="curve"/>
      <point x="706.2947368421052" y="1426.0" type="line"/>
      <point x="640.3157894736843" y="1273.8315789473684"/>
      <point x="584.1684210526316" y="1143.8315789473684"/>
      <point x="500.86315789473684" y="952.0" type="curve"/>
      <point x="279.2421052631579" y="456.0" type="line"/>
      <point x="194.08421052631581" y="272.5052631578947"/>
      <point x="136.58947368421053" y="146.50526315789475"/>
    </contour>
  </outline>
</glyph>
<glyph name="one" format="2">
  <advance width="829.8105263157895"/>
  <unicode hex="0031"/>
  <outline>
    <contour>
      <point x="102.86315789473684" y="1021.0736842105264" type="line"/>
      <point x="247.87368421052633" y="1106.5684210526315"/>
      <point x="394.37894736842105" y="1191.8947368421052"/>
      <point x="539.7263157894737" y="1277.5578947368422" type="curve"/>
      <point x="541.2421052631579" y="1373.6842105263158" type="line"/>
      <point x="384.86315789473684" y="1288.1894736842105"/>
      <point x="228.82105263157897" y="1204.6947368421052"/>
      <point x="72.4421052631579" y="1119.2" type="curve"/>
    </contour>
    <contour>
      <point x="488.69473684210527" y="0.0" type="curve"/>
      <point x="597.5999999999999" y="0.0" type="line"/>
      <point x="594.757894736842" y="149.1578947368421"/>
      <point x="592.0842105263157" y="278.14736842105265"/>
      <point x="589.0736842105263" y="440.65263157894736" type="curve"/>
      <point x="589.0736842105263" y="894.3368421052631" type="line"/>
      <point x="591.9157894736842" y="1063.3263157894737"/>
      <point x="594.7578947368421" y="1223.157894736842"/>
      <point x="597.5999999999999" y="1369.0105263157895" type="curve"/>
      <point x="541.2421052631579" y="1373.6842105263158" type="line"/>
      <point x="491.87368421052633" y="1324.042105263158" type="line"/>
      <point x="492.37894736842105" y="1177.3894736842105"/>
      <point x="494.8842105263158" y="1012.5894736842106"/>
      <point x="495.38947368421054" y="886.0842105263158" type="curve"/>
      <point x="495.38947368421054" y="440.65263157894736" type="line"/>
      <point x="492.37894736842105" y="278.14736842105265"/>
      <point x="491.5368421052632" y="149.1578947368421"/>
    </contour>
  </outline>
</glyph>
<glyph name="three" format="2">
  <advance width="1127.8850574712644"/>
  <unicode hex="0033"/>
  <outline>
    <contour>
      <point x="549.471264367816" y="-19.103448275862068" type="curve" smooth="yes"/>
      <point x="859.5632183908046" y="-19.103448275862068"/>
      <point x="1013.4022988505748" y="149.26436781609195"/>
      <point x="1013.4022988505748" y="360.57471264367814" type="curve" smooth="yes"/>
      <point x="1013.4022988505748" y="585.1034482758621"/>
      <point x="839.448275862069" y="697.6321839080459"/>
      <point x="693.816091954023" y="722.0" type="curve"/>
      <point x="693.816091954023" y="735.471264367816" type="line"/>
      <point x="839.0804597701149" y="770.735632183908"/>
      <point x="963.2413793103449" y="895.4252873563219"/>
      <point x="963.2413793103449" y="1067.4252873563219" type="curve" smooth="yes"/>
      <point x="963.2413793103449" y="1269.632183908046"/>
      <point x="790.8735632183908" y="1393.83908045977"/>
      <point x="559.471264367816" y="1393.83908045977" type="curve" smooth="yes"/>
      <point x="472.2068965517241" y="1393.83908045977"/>
      <point x="233.79310344827587" y="1306.0459770114942"/>
      <point x="127.58620689655173" y="1263.1494252873563" type="curve"/>
      <point x="141.42528735632183" y="1160.4597701149426" type="line"/>
      <point x="315.0114942528736" y="1237.8850574712644"/>
      <point x="504.32183908045977" y="1302.9885057471265"/>
      <point x="554.1149425287356" y="1302.9885057471265" type="curve"/>
      <point x="732.0229885057471" y="1300.6206896551726"/>
      <point x="866.6666666666666" y="1227.0344827586207"/>
      <point x="866.6666666666666" y="1058.9655172413793" type="curve" smooth="yes"/>
      <point x="866.6666666666666" y="894.8965517241379"/>
      <point x="743.655172413793" y="765.5632183908045"/>
      <point x="451.3103448275862" y="764.8275862068965" type="curve"/>
      <point x="416.735632183908" y="765.5632183908045"/>
      <point x="381.7931034482759" y="767.9310344827586"/>
      <point x="347.95402298850576" y="768.2988505747126" type="curve"/>
      <point x="347.95402298850576" y="676.7126436781609" type="line"/>
      <point x="383.264367816092" y="677.0804597701149"/>
      <point x="418.2068965517241" y="679.448275862069"/>
      <point x="453.88505747126436" y="679.816091954023" type="curve"/>
      <point x="744.2298850574713" y="679.080459770115"/>
      <point x="916.8275862068965" y="567.9080459770115"/>
      <point x="916.8275862068965" y="363.88505747126436" type="curve" smooth="yes"/>
      <point x="916.8275862068965" y="194.91954022988506"/>
      <point x="805.448275862069" y="73.74712643678161"/>
      <point x="543.4252873563219" y="71.37931034482759" type="curve"/>
      <point x="449.3103448275862" y="71.37931034482759"/>
      <point x="285.2183908045977" y="127.2183908045977"/>
      <point x="110.16091954022988" y="195.01149425287358" type="curve"/>
      <point x="96.32183908045977" y="93.58620689655173" type="line"/>
      <point x="258.11494252873564" y="38.160919540229884"/>
      <point x="451.31034482758616" y="-19.103448275862068"/>
    </contour>
  </outline>
</glyph>
<glyph name="four" format="2">
  <advance width="1184.6206896551723"/>
  <unicode hex="0034"/>
  <outline>
    <contour>
      <point x="744.183908045977" y="0.0" type="curve"/>
      <point x="853.1724137931034" y="0.0" type="line"/>
      <point x="850.4367816091954" y="123.47126436781609"/>
      <point x="847.7011494252873" y="219.31034482758622"/>
      <point x="844.5977011494252" y="369.14942528735634" type="curve"/>
      <point x="844.5977011494252" y="887.1034482758621" type="line"/>
      <point x="847.7011494252873" y="1043.103448275862"/>
      <point x="850.4367816091954" y="1203.103448275862"/>
      <point x="853.1724137931034" y="1369.103448275862" type="curve"/>
      <point x="742.0229885057471" y="1369.103448275862" type="line"/>
      <point x="679.4942528735631" y="1276.5747126436781"/>
      <point x="614.9655172413793" y="1181.6781609195402"/>
      <point x="552.4367816091954" y="1089.1494252873563" type="curve"/>
      <point x="371.01149425287355" y="832.4597701149426" type="line"/>
      <point x="276.48275862068965" y="701.4022988505748"/>
      <point x="152.32183908045977" y="529.080459770115"/>
      <point x="67.05747126436782" y="410.91954022988506" type="curve"/>
      <point x="67.05747126436782" y="331.37931034482756" type="line"/>
      <point x="803.9540229885057" y="331.37931034482756" type="line"/>
      <point x="901.264367816092" y="330.64367816091954"/>
      <point x="1043.6781609195402" y="328.2758620689655"/>
      <point x="1132.6206896551723" y="325.90804597701145" type="curve"/>
      <point x="1132.6206896551723" y="424.8045977011494" type="line"/>
      <point x="1043.6781609195402" y="422.4367816091954"/>
      <point x="901.264367816092" y="419.7011494252873"/>
      <point x="803.9540229885057" y="418.9655172413793" type="curve"/>
      <point x="777.2183908045977" y="418.9655172413793" type="line"/>
      <point x="148.4367816091954" y="418.9655172413793" type="line"/>
      <point x="160.27586206896552" y="380.6666666666667" type="line"/>
      <point x="224.80459770114945" y="474.82758620689657"/>
      <point x="286.9655172413793" y="566.9885057471264"/>
      <point x="351.4942528735632" y="661.5172413793103" type="curve"/>
      <point x="601.0804597701149" y="1015.264367816092" type="line"/>
      <point x="677.6091954022988" y="1122.3218390804598"/>
      <point x="754.1379310344828" y="1231.0114942528737"/>
      <point x="831.0344827586207" y="1338.4367816091956" type="curve"/>
      <point x="748.0229885057471" y="1312.9655172413793" type="line"/>
      <point x="749.1264367816091" y="1168.0689655172414"/>
      <point x="751.8620689655172" y="1022.8045977011494"/>
      <point x="752.5977011494252" y="878.6436781609195" type="curve"/>
      <point x="752.5977011494252" y="394.0919540229885" type="line"/>
      <point x="751.1264367816092" y="369.14942528735634" type="line"/>
      <point x="748.0229885057471" y="219.31034482758622"/>
      <point x="746.919540229885" y="123.47126436781609"/>
    </contour>
  </outline>
</glyph>
<glyph name="five" format="2">
  <advance width="1140.0459770114942"/>
  <unicode hex="0035"/>
  <outline>
    <contour>
      <point x="545.1034482758621" y="-19.103448275862068" type="curve" smooth="yes"/>
      <point x="853.5632183908046" y="-19.103448275862068"/>
      <point x="1025.5632183908046" y="162.36781609195404"/>
      <point x="1025.5632183908046" y="435.10344827586204" type="curve" smooth="yes"/>
      <point x="1025.5632183908046" y="729.264367816092"/>
      <point x="824.5057471264367" y="871.5172413793103"/>
      <point x="584.3448275862069" y="871.5172413793103" type="curve" smooth="yes"/>
      <point x="481.3333333333333" y="871.5172413793103"/>
      <point x="375.01149425287355" y="828.8275862068966"/>
      <point x="291.58620689655174" y="793.0344827586207" type="curve"/>
      <point x="278.11494252873564" y="793.0344827586207" type="line"/>
      <point x="278.11494252873564" y="898.7816091954023" type="line"/>
      <point x="279.2183908045977" y="1020.0"/>
      <point x="281.9540229885057" y="1177.3333333333333"/>
      <point x="283.0574712643678" y="1318.712643678161" type="curve"/>
      <point x="242.183908045977" y="1281.5172413793102" type="line"/>
      <point x="448.71264367816093" y="1281.5172413793102" type="line"/>
      <point x="609.9770114942529" y="1278.4137931034481"/>
      <point x="775.2413793103449" y="1275.3103448275863"/>
      <point x="938.1379310344828" y="1272.206896551724" type="curve"/>
      <point x="938.1379310344828" y="1369.103448275862" type="line"/>
      <point x="178.27586206896552" y="1369.103448275862" type="line"/>
      <point x="181.01149425287355" y="1222.16091954023"/>
      <point x="183.7471264367816" y="1059.2183908045977"/>
      <point x="186.48275862068965" y="885.9080459770115" type="curve"/>
      <point x="186.48275862068965" y="680.2298850574713" type="line"/>
      <point x="232.09195402298852" y="675.4942528735633" type="line"/>
      <point x="345.4712643678161" y="744.344827586207"/>
      <point x="479.95402298850576" y="782.8735632183908"/>
      <point x="563.7471264367816" y="782.8735632183908" type="curve"/>
      <point x="763.2873563218391" y="780.5057471264367"/>
      <point x="928.9885057471264" y="691.2873563218391"/>
      <point x="928.9885057471264" y="436.2068965517241" type="curve" smooth="yes"/>
      <point x="928.9885057471264" y="206.55172413793105"/>
      <point x="799.0804597701149" y="73.74712643678161"/>
      <point x="541.0574712643678" y="71.37931034482759" type="curve"/>
      <point x="447.3103448275862" y="71.37931034482759"/>
      <point x="284.85057471264366" y="127.2183908045977"/>
      <point x="110.16091954022988" y="195.01149425287358" type="curve"/>
      <point x="96.32183908045977" y="93.58620689655173" type="line"/>
      <point x="256.11494252873564" y="38.160919540229884"/>
      <point x="446.94252873563215" y="-19.103448275862068"/>
    </contour>
  </outline>
</glyph>
<glyph name="six" format="2">
  <advance width="1202.7816091954023"/>
  <unicode hex="0036"/>
  <outline>
    <contour>
      <point x="627.3103448275862" y="-19.103448275862068" type="curve" smooth="yes"/>
      <point x="930.2988505747127" y="-19.103448275862068"/>
      <point x="1088.2988505747126" y="205.83908045977012"/>
      <point x="1088.2988505747126" y="446.7816091954023" type="curve" smooth="yes"/>
      <point x="1088.2988505747126" y="695.3563218390805"/>
      <point x="923.5632183908046" y="875.5172413793103"/>
      <point x="649.6091954022988" y="875.5172413793103" type="curve" smooth="yes"/>
      <point x="498.7586206896552" y="875.5172413793103"/>
      <point x="353.90804597701145" y="784.2988505747127"/>
      <point x="235.95402298850576" y="703.7701149425287" type="curve"/>
      <point x="210.48275862068965" y="705.7701149425287" type="line"/>
      <point x="198.02298850574712" y="666.735632183908"/>
      <point x="197.6551724137931" y="631.471264367816"/>
      <point x="210.85057471264366" y="582.8505747126437" type="curve"/>
      <point x="356.55172413793105" y="715.6551724137931"/>
      <point x="527.5172413793105" y="785.2413793103449"/>
      <point x="636.3678160919541" y="787.2413793103449" type="curve"/>
      <point x="885.448275862069" y="784.5057471264369"/>
      <point x="993.1954022988506" y="633.1724137931035"/>
      <point x="993.1954022988506" y="444.2068965517241" type="curve" smooth="yes"/>
      <point x="993.1954022988506" y="254.8735632183908"/>
      <point x="883.448275862069" y="75.74712643678161"/>
      <point x="625.471264367816" y="71.37931034482759" type="curve"/>
      <point x="359.1264367816092" y="76.85057471264368"/>
      <point x="218.48275862068965" y="270.3448275862069"/>
      <point x="218.48275862068965" y="645.3103448275862" type="curve" smooth="yes"/>
      <point x="218.48275862068965" y="1069.4942528735633"/>
      <point x="352.39080459770116" y="1298.2528735632184"/>
      <point x="645.7241379310345" y="1302.9885057471265" type="curve"/>
      <point x="687.8850574712643" y="1302.9885057471265"/>
      <point x="848.2988505747127" y="1251.8850574712644"/>
      <point x="993.7241379310345" y="1190.0919540229884" type="curve"/>
      <point x="1009.5632183908046" y="1290.7816091954023" type="line"/>
      <point x="919.7241379310344" y="1325.6781609195402"/>
      <point x="716.4137931034483" y="1393.83908045977"/>
      <point x="642.7816091954023" y="1393.83908045977" type="curve" smooth="yes"/>
      <point x="300.04597701149424" y="1393.83908045977"/>
      <point x="124.11494252873564" y="1118.2988505747126"/>
      <point x="124.11494252873564" y="648.0459770114943" type="curve" smooth="yes"/>
      <point x="124.11494252873564" y="217.26436781609195"/>
      <point x="307.2183908045977" y="-19.103448275862068"/>
    </contour>
  </outline>
</glyph>
<glyph name="seven" format="2">
  <advance width="1032.4421052631578"/>
  <unicode hex="0037"/>
  <outline>
    <contour>
      <point x="235.89473684210526" y="0.0" type="curve"/>
      <point x="356.65263157894736" y="0.0" type="line"/>
      <point x="431.7894736842105" y="169.47368421052633"/>
      <point x="506.58947368421053" y="340.2736842105263"/>
      <point x="579.8947368421053" y="506.0842105263158" type="curve"/>
      <point x="713.0315789473684" y="793.8736842105263" type="line"/>
      <point x="793.1789473684211" y="967.6631578947369"/>
      <point x="867.4947368421052" y="1125.957894736842"/>
      <point x="945.8105263157895" y="1292.421052631579" type="curve"/>
      <point x="945.8105263157895" y="1369.0105263157895" type="line"/>
      <point x="50.0" y="1369.0105263157895" type="line"/>
      <point x="50.0" y="1271.6842105263158" type="line"/>
      <point x="224.63157894736844" y="1274.8631578947368"/>
      <point x="399.4315789473684" y="1278.2105263157896"/>
      <point x="572.2315789473685" y="1281.3894736842105" type="curve"/>
      <point x="864.8421052631579" y="1281.3894736842105" type="line"/>
      <point x="840.0842105263158" y="1306.9473684210527" type="line"/>
      <point x="791.9368421052632" y="1200.8"/>
      <point x="745.621052631579" y="1096.3157894736842"/>
      <point x="699.3052631578947" y="990.1684210526316" type="curve"/>
      <point x="499.34736842105264" y="559.0736842105263" type="line"/>
      <point x="412.86315789473684" y="375.93684210526317"/>
      <point x="324.37894736842105" y="186.96842105263158"/>
    </contour>
  </outline>
</glyph>
<glyph name="less" format="2">
  <advance width="1125.0526315789473"/>
  <unicode hex="003C"/>
  <outline>
    <contour>
      <point x="990.1052631578947" y="161.38947368421051" type="curve"/>
      <point x="990.1052631578947" y="269.70526315789476" type="line"/>
      <point x="837.4947368421052" y="334.0"/>
      <point x="670.2315789473685" y="405.62105263157895"/>
      <point x="513.9578947368421" y="471.7473684210526" type="curve"/>
      <point x="261.5578947368421" y="583.6842105263158" type="line"/>
      <point x="261.5578947368421" y="597.3684210526316" type="line"/>
      <point x="513.9578947368421" y="709.3052631578947" type="line"/>
      <point x="670.2315789473685" y="775.4315789473684"/>
      <point x="837.4947368421052" y="847.0526315789474"/>
      <point x="990.1052631578947" y="911.3473684210526" type="curve"/>
      <point x="990.1052631578947" y="1019.6631578947367" type="line"/>
      <point x="870.9052631578946" y="964.9894736842105"/>
      <point x="753.0526315789474" y="910.8210526315789"/>
      <point x="660.1894736842105" y="868.1473684210526" type="curve"/>
      <point x="461.2" y="780.1684210526316" type="line"/>
      <point x="362.84210526315786" y="738.5052631578948"/>
      <point x="251.97894736842105" y="690.8421052631579"/>
      <point x="134.94736842105263" y="641.178947368421" type="curve"/>
      <point x="134.94736842105263" y="539.8736842105263" type="line"/>
      <point x="251.97894736842105" y="492.0421052631579"/>
      <point x="366.5052631578947" y="442.5473684210526"/>
      <point x="461.2" y="400.88421052631577" type="curve"/>
      <point x="660.1894736842105" y="312.90526315789475" type="line"/>
      <point x="756.7157894736843" y="268.40000000000003"/>
      <point x="874.5684210526315" y="214.2315789473684"/>
    </contour>
  </outline>
</glyph>
<glyph name="greater" format="2">
  <advance width="1125.0526315789473"/>
  <unicode hex="003E"/>
  <outline>
    <contour>
      <point x="134.94736842105263" y="161.38947368421051" type="line"/>
      <point x="254.14736842105262" y="216.06315789473683"/>
      <point x="372.0" y="270.23157894736846"/>
      <point x="464.86315789473684" y="312.90526315789475" type="curve"/>
      <point x="663.8526315789474" y="400.88421052631577" type="line"/>
      <point x="762.2105263157895" y="442.5473684210526"/>
      <point x="873.0736842105263" y="490.2105263157895"/>
      <point x="990.1052631578947" y="539.8736842105263" type="curve"/>
      <point x="990.1052631578947" y="641.178947368421" type="line"/>
      <point x="873.0736842105263" y="689.0105263157894"/>
      <point x="758.5473684210526" y="738.5052631578948"/>
      <point x="663.8526315789474" y="780.1684210526316" type="curve"/>
      <point x="464.86315789473684" y="868.1473684210526" type="line"/>
      <point x="368.33684210526314" y="912.6526315789474"/>
      <point x="250.4842105263158" y="966.8210526315788"/>
      <point x="134.94736842105263" y="1019.6631578947367" type="curve"/>
      <point x="134.94736842105263" y="911.3473684210526" type="line"/>
      <point x="287.5578947368421" y="847.0526315789474"/>
      <point x="454.82105263157894" y="775.4315789473684"/>
      <point x="611.0947368421052" y="709.3052631578947" type="curve"/>
      <point x="863.4947368421052" y="597.3684210526316" type="line"/>
      <point x="863.4947368421052" y="583.6842105263158" type="line"/>
      <point x="611.0947368421052" y="471.7473684210526" type="line"/>
      <point x="454.82105263157894" y="405.62105263157895"/>
      <point x="287.5578947368421" y="334.0"/>
      <point x="134.94736842105263" y="269.70526315789476" type="curve"/>
    </contour>
  </outline>
</glyph>
<glyph name="at" format="2">
  <advance width="1754.5473684210526"/>
  <unicode hex="0040"/>
  <outline>
    <contour>
      <point x="941.6842105263158" y="-249.89473684210526" type="curve" smooth="yes"/>
      <point x="1070.0210526315789" y="-249.89473684210526"/>
      <point x="1323.5157894736842" y="-161.0736842105263"/>
      <point x="1506.0210526315789" y="-100.25263157894736" type="curve"/>
      <point x="1506.0210526315789" y="-8.905263157894737" type="line"/>
      <point x="1282.0000000000002" y="-93.74736842105263"/>
      <point x="1040.9894736842107" y="-168.73684210526318"/>
      <point x="941.6842105263158" y="-172.90526315789475" type="curve"/>
      <point x="373.7473684210526" y="-166.5684210526316"/>
      <point x="120.10526315789474" y="234.33684210526314"/>
      <point x="210.77894736842106" y="666.8421052631579" type="curve" smooth="yes"/>
      <point x="296.7578947368421" y="1075.7263157894736"/>
      <point x="582.0" y="1246.2736842105262"/>
      <point x="931.6842105263158" y="1252.6105263157895" type="curve"/>
      <point x="1375.9578947368423" y="1246.2736842105262"/>
      <point x="1624.9263157894736" y="914.8842105263159"/>
      <point x="1547.6" y="502.5684210526316" type="curve" smooth="yes"/>
      <point x="1532.4421052631578" y="422.77894736842103"/>
      <point x="1343.0315789473684" y="205.20000000000002"/>
      <point x="1275.8736842105263" y="202.8421052631579" type="curve"/>
      <point x="1167.7473684210527" y="209.01052631578946"/>
      <point x="1122.4421052631578" y="267.85263157894735"/>
      <point x="1147.9368421052632" y="394.65263157894736" type="curve"/>
      <point x="1210.3999999999999" y="695.4736842105262" type="line"/>
      <point x="1231.7473684210527" y="772.3368421052631"/>
      <point x="1258.5894736842108" y="869.1789473684211"/>
      <point x="1283.6" y="958.021052631579" type="curve"/>
      <point x="1196.3578947368421" y="951.1789473684211" type="line"/>
      <point x="1165.8526315789472" y="839.0315789473683" type="line"/>
      <point x="1154.5052631578947" y="839.0315789473683" type="line"/>
      <point x="1084.6736842105263" y="898.378947368421"/>
      <point x="964.5473684210525" y="969.8526315789474"/>
      <point x="878.0842105263158" y="969.8526315789474" type="curve" smooth="yes"/>
      <point x="690.421052631579" y="969.8526315789474"/>
      <point x="544.6105263157895" y="828.9894736842106"/>
      <point x="497.4526315789474" y="602.3578947368421" type="curve" smooth="yes"/>
      <point x="447.2842105263158" y="364.1684210526316"/>
      <point x="541.3052631578947" y="144.98947368421054"/>
      <point x="780.9473684210526" y="144.98947368421054" type="curve" smooth="yes"/>
      <point x="846.5894736842106" y="144.98947368421054"/>
      <point x="959.7263157894737" y="207.81052631578947"/>
      <point x="1050.2315789473685" y="286.63157894736844" type="curve"/>
      <point x="1061.4105263157894" y="286.63157894736844" type="line"/>
      <point x="1078.4421052631578" y="205.47368421052633"/>
      <point x="1136.842105263158" y="125.32631578947368"/>
      <point x="1289.3684210526317" y="125.32631578947368" type="curve" smooth="yes"/>
      <point x="1361.221052631579" y="125.32631578947368"/>
      <point x="1599.2631578947369" y="355.4947368421053"/>
      <point x="1624.1052631578946" y="487.2" type="curve" smooth="yes"/>
      <point x="1711.2842105263157" y="945.7473684210527"/>
      <point x="1415.4105263157894" y="1329.6"/>
      <point x="933.8526315789474" y="1329.6" type="curve" smooth="yes"/>
      <point x="552.5052631578948" y="1329.6"/>
      <point x="223.78947368421052" y="1126.5894736842106"/>
      <point x="132.61052631578949" y="679.0526315789474" type="curve" smooth="yes"/>
      <point x="36.252631578947366" y="209.9578947368421"/>
      <point x="326.46315789473687" y="-249.89473684210526"/>
    </contour>
    <contour>
      <point x="797.5368421052632" y="225.3684210526316" type="curve"/>
      <point x="609.0105263157894" y="229.3684210526316"/>
      <point x="539.3894736842105" y="386.7789473684211"/>
      <point x="582.5263157894736" y="591.4736842105264" type="curve" smooth="yes"/>
      <point x="618.5052631578948" y="760.2105263157895"/>
      <point x="718.7789473684211" y="882.9684210526316"/>
      <point x="889.6631578947369" y="887.1368421052632" type="curve"/>
      <point x="961.2842105263159" y="884.8000000000001"/>
      <point x="1066.8631578947368" y="827.3473684210527"/>
      <point x="1140.9684210526316" y="765.8947368421053" type="curve"/>
      <point x="1060.842105263158" y="395.57894736842104" type="line"/>
      <point x="973.2421052631579" y="294.4842105263158"/>
      <point x="858.3368421052633" y="229.87368421052633"/>
    </contour>
  </outline>
</glyph>
<glyph name="A" format="2">
  <advance width="1350.3157894736842"/>
  <unicode hex="0041"/>
  <anchor x="675.2421052631579" y="0.0" name="bottom"/>
  <anchor x="1291.7052631578947" y="0.0" name="ogonek"/>
  <anchor x="675.2421052631579" y="1426.0" name="top"/>
  <outline>
    <contour>
      <point x="56.10526315789474" y="0.0" type="curve"/>
      <point x="181.2" y="0.0" type="line"/>
      <point x="244.65263157894734" y="176.46315789473684"/>
      <point x="313.6" y="365.91578947368424"/>
      <point x="375.2210526315789" y="538.7157894736843" type="curve"/>
      <point x="671.7263157894737" y="1325.8736842105263" type="line"/>
      <point x="685.4105263157894" y="1325.8736842105263" type="line"/>
      <point x="979.9157894736842" y="532.5473684210526" type="line"/>
      <point x="1037.8736842105263" y="367.74736842105267"/>
      <point x="1105.157894736842" y="173.9578947368421"/>
      <point x="1166.778947368421" y="0.0" type="curve"/>
      <point x="1292.715789473684" y="0.0" type="line"/>
      <point x="1233.0526315789475" y="152.16842105263157"/>
      <point x="1165.5578947368422" y="322.1684210526316"/>
      <point x="1102.0631578947368" y="482.0" type="curve"/>
      <point x="917.9368421052632" y="973.8315789473684" type="line"/>
      <point x="856.4631578947368" y="1147.4947368421053"/>
      <point x="808.4842105263157" y="1283.3263157894737"/>
      <point x="758.3368421052633" y="1426.0" type="curve"/>
      <point x="599.8105263157895" y="1426.0" type="line"/>
      <point x="547.8315789473684" y="1279.6631578947367"/>
      <point x="501.5157894736842" y="1151.157894736842"/>
      <point x="438.2105263157895" y="973.8315789473684" type="curve"/>
      <point x="252.25263157894736" y="483.8315789473684" type="line"/>
      <point x="190.7578947368421" y="331.66315789473686"/>
      <point x="119.43157894736842" y="155.83157894736843"/>
    </contour>
    <contour>
      <point x="289.4947368421052" y="391.34736842105264" type="line"/>
      <point x="1067.3684210526317" y="391.34736842105264" type="line"/>
      <point x="1063.4947368421053" y="476.61052631578946" type="line"/>
      <point x="294.2105263157895" y="476.61052631578946" type="line"/>
    </contour>
  </outline>
</glyph>
<glyph name="C" format="2">
  <advance width="1371.157894736842"/>
  <unicode hex="0043"/>
  <anchor x="800.6526315789474" y="0.0" name="bottom"/>
  <anchor x="782.3368421052631" y="1426.0" name="top"/>
  <outline>
    <contour>
      <point x="833.1578947368421" y="-19.178947368421053" type="curve" smooth="yes"/>
      <point x="927.4736842105264" y="-19.178947368421053"/>
      <point x="1129.2" y="37.136842105263156"/>
      <point x="1252.8631578947368" y="82.1263157894737" type="curve"/>
      <point x="1240.0210526315789" y="191.78947368421052" type="line"/>
      <point x="1094.0421052631577" y="124.96842105263158"/>
      <point x="899.5368421052631" y="74.61052631578947"/>
      <point x="835.2210526315789" y="74.61052631578947" type="curve"/>
      <point x="429.5578947368421" y="80.77894736842104"/>
      <point x="217.49473684210525" y="361.3263157894737"/>
      <point x="217.49473684210525" y="715.4947368421052" type="curve" smooth="yes"/>
      <point x="217.49473684210525" y="1105.0105263157895"/>
      <point x="462.88421052631577" y="1349.536842105263"/>
      <point x="803.3263157894737" y="1355.7052631578947" type="curve"/>
      <point x="857.8105263157895" y="1355.7052631578947"/>
      <point x="1059.8315789473686" y="1301.0315789473684"/>
      <point x="1252.336842105263" y="1232.5263157894738" type="curve"/>
      <point x="1264.3578947368421" y="1340.3578947368421" type="line"/>
      <point x="1143.6421052631579" y="1377.3684210526317"/>
      <point x="898.1473684210525" y="1450.6736842105263"/>
      <point x="805.4947368421052" y="1450.6736842105263" type="curve" smooth="yes"/>
      <point x="404.90526315789475" y="1450.6736842105263"/>
      <point x="113.93684210526315" y="1150.4842105263158"/>
      <point x="113.93684210526315" y="717.1578947368421" type="curve" smooth="yes"/>
      <point x="113.93684210526315" y="301.2842105263158"/>
      <point x="386.46315789473687" y="-19.178947368421053"/>
    </contour>
  </outline>
</glyph>
<glyph name="D" format="2">
  <advance width="1477.3263157894737"/>
  <unicode hex="0044"/>
  <anchor x="700.8421052631579" y="0.0" name="bottom"/>
  <anchor x="739.6631578947369" y="714.0" name="center"/>
  <anchor x="700.8421052631579" y="1426.0" name="top"/>
  <outline>
    <contour>
      <point x="203.2" y="0.0" type="curve"/>
      <point x="357.87368421052633" y="-0.3368421052631579"/>
      <point x="467.62105263157895" y="-2.6736842105263157"/>
      <point x="631.5157894736842" y="-3.3473684210526313" type="curve"/>
      <point x="1163.5578947368422" y="-3.3473684210526313"/>
      <point x="1363.3894736842105" y="317.4947368421053"/>
      <point x="1363.3894736842105" y="719.6631578947369" type="curve" smooth="yes"/>
      <point x="1363.3894736842105" y="1161.178947368421"/>
      <point x="1116.8842105263159" y="1429.0105263157895"/>
      <point x="674.2315789473685" y="1429.0105263157895" type="curve"/>
      <point x="519.3052631578946" y="1428.505263157895"/>
      <point x="391.17894736842106" y="1426.3368421052633"/>
      <point x="203.2" y="1426.0" type="curve"/>
      <point x="206.0421052631579" y="1264.6736842105263"/>
      <point x="206.88421052631577" y="1125.6842105263156"/>
      <point x="210.06315789473683" y="949.8315789473684" type="curve"/>
      <point x="210.06315789473683" y="474.4842105263158" type="line"/>
      <point x="207.05263157894737" y="299.6421052631579"/>
      <point x="206.0421052631579" y="160.65263157894736"/>
    </contour>
    <contour>
      <point x="314.61052631578946" y="89.28421052631579" type="line"/>
      <point x="312.61052631578946" y="218.37894736842105"/>
      <point x="312.10526315789474" y="338.82105263157894"/>
      <point x="310.10526315789474" y="485.2631578947368" type="curve"/>
      <point x="310.10526315789474" y="939.3894736842105" type="line"/>
      <point x="312.2736842105263" y="1086.5052631578947"/>
      <point x="312.61052631578946" y="1207.1157894736841"/>
      <point x="314.61052631578946" y="1336.7157894736843" type="curve"/>
      <point x="657.8315789473685" y="1336.7157894736843" type="line"/>
      <point x="1084.9473684210527" y="1330.2105263157896"/>
      <point x="1259.8315789473684" y="1094.9894736842105"/>
      <point x="1259.8315789473684" y="722.0" type="curve" smooth="yes"/>
      <point x="1259.8315789473684" y="361.3263157894737"/>
      <point x="1107.4315789473685" y="95.9578947368421"/>
      <point x="633.1789473684211" y="89.28421052631579" type="curve"/>
    </contour>
  </outline>
</glyph>
<glyph name="E" format="2">
  <advance width="1184.2068965517242"/>
  <unicode hex="0045"/>
  <anchor x="637.0574712643678" y="0.0" name="bottom"/>
  <anchor x="1061.1494252873563" y="0.0" name="ogonek"/>
  <anchor x="637.0574712643678" y="1426.0" name="top"/>
  <anchor x="74.0" y="1426.0" name="topleft"/>
  <outline>
    <contour>
      <point x="203.12643678160921" y="0.0" type="curve"/>
      <point x="317.95402298850576" y="0.0" type="line"/>
      <point x="317.95402298850576" y="12.25287356321839" type="line"/>
      <point x="314.85057471264366" y="173.1494252873563"/>
      <point x="312.11494252873564" y="314.04597701149424"/>
      <point x="309.01149425287355" y="488.41379310344826" type="curve"/>
      <point x="309.01149425287355" y="937.7471264367816" type="line"/>
      <point x="312.11494252873564" y="1112.8505747126437"/>
      <point x="314.85057471264366" y="1252.4827586206898"/>
      <point x="317.95402298850576" y="1413.7471264367816" type="curve"/>
      <point x="317.95402298850576" y="1426.0" type="line"/>
      <point x="203.12643678160921" y="1426.0" type="line"/>
      <point x="205.86206896551727" y="1264.7356321839081"/>
      <point x="206.96551724137933" y="1125.8390804597702"/>
      <point x="210.0689655172414" y="950.0" type="curve"/>
      <point x="210.0689655172414" y="474.5287356321839" type="line"/>
      <point x="206.96551724137933" y="299.7931034482759"/>
      <point x="205.86206896551727" y="160.52873563218392"/>
    </contour>
    <contour>
      <point x="293.7011494252874" y="0.0" type="line"/>
      <point x="1062.2528735632184" y="0.0" type="line"/>
      <point x="1062.2528735632184" y="101.26436781609195" type="line"/>
      <point x="911.1954022988505" y="98.16091954022988"/>
      <point x="750.5057471264367" y="93.79310344827586"/>
      <point x="568.183908045977" y="90.6896551724138" type="curve"/>
      <point x="293.7011494252874" y="90.6896551724138" type="line"/>
    </contour>
    <contour>
      <point x="288.55172413793105" y="679.6551724137931" type="line"/>
      <point x="572.8735632183907" y="679.6551724137931" type="line"/>
      <point x="758.2988505747126" y="678.9195402298851"/>
      <point x="882.8275862068965" y="676.551724137931"/>
      <point x="1018.9885057471264" y="676.1839080459771" type="curve"/>
      <point x="1018.9885057471264" y="776.3448275862069" type="line"/>
      <point x="890.4597701149424" y="773.9770114942529"/>
      <point x="762.6666666666666" y="771.6091954022988"/>
      <point x="574.5057471264367" y="768.8735632183908" type="curve"/>
      <point x="288.55172413793105" y="768.8735632183908" type="line"/>
    </contour>
    <contour>
      <point x="291.1264367816092" y="1335.3103448275863" type="line"/>
      <point x="557.9770114942528" y="1335.3103448275863" type="line"/>
      <point x="773.9310344827586" y="1331.8390804597702"/>
      <point x="923.3563218390804" y="1327.83908045977"/>
      <point x="1062.7816091954023" y="1324.7356321839081" type="curve"/>
      <point x="1062.7816091954023" y="1426.0" type="line"/>
      <point x="291.1264367816092" y="1426.0" type="line"/>
    </contour>
  </outline>
</glyph>
<glyph name="F" format="2">
  <advance width="1144.5263157894738"/>
  <unicode hex="0046"/>
  <outline>
    <contour>
      <point x="203.2" y="0.0" type="curve"/>
      <point x="317.7894736842105" y="0.0" type="line"/>
      <point x="314.94736842105266" y="160.82105263157894"/>
      <point x="312.1052631578948" y="299.81052631578945"/>
      <point x="309.0947368421053" y="474.4842105263158" type="curve"/>
      <point x="309.0947368421053" y="937.6" type="line"/>
      <point x="312.1052631578948" y="1112.9473684210527"/>
      <point x="314.94736842105266" y="1252.4421052631578"/>
      <point x="317.7894736842105" y="1413.7684210526315" type="curve"/>
      <point x="317.7894736842105" y="1426.0" type="line"/>
      <point x="203.2" y="1426.0" type="line"/>
      <point x="206.0421052631579" y="1264.6736842105263"/>
      <point x="206.88421052631577" y="1125.6842105263156"/>
      <point x="210.06315789473683" y="949.8315789473684" type="curve"/>
      <point x="210.06315789473683" y="474.4842105263158" type="line"/>
      <point x="207.05263157894737" y="299.6421052631579"/>
      <point x="206.0421052631579" y="160.65263157894736"/>
    </contour>
    <contour>
      <point x="287.4947368421053" y="676.8210526315789" type="line"/>
      <point x="553.4736842105264" y="676.8210526315789" type="line"/>
      <point x="738.9473684210526" y="675.978947368421"/>
      <point x="863.4315789473684" y="673.6421052631579"/>
      <point x="999.578947368421" y="673.1368421052631" type="curve"/>
      <point x="999.578947368421" y="773.6210526315789" type="line"/>
      <point x="871.2631578947369" y="771.2842105263157"/>
      <point x="743.1157894736842" y="768.778947368421"/>
      <point x="555.3052631578947" y="766.1052631578947" type="curve"/>
      <point x="287.4947368421053" y="766.1052631578947" type="line"/>
    </contour>
    <contour>
      <point x="290.18947368421055" y="1335.2" type="line"/>
      <point x="538.9894736842106" y="1335.2" type="line"/>
      <point x="754.9473684210526" y="1332.021052631579"/>
      <point x="904.2526315789474" y="1327.5157894736842"/>
      <point x="1043.7263157894738" y="1324.842105263158" type="curve"/>
      <point x="1043.7263157894738" y="1426.0" type="line"/>
      <point x="290.18947368421055" y="1426.0" type="line"/>
    </contour>
  </outline>
</glyph>
<glyph name="G" format="2">
  <advance width="1471.4736842105262"/>
  <unicode hex="0047"/>
  <anchor x="800.6526315789474" y="0.0" name="bottom"/>
  <anchor x="800.6526315789474" y="1426.0" name="top"/>
  <outline>
    <contour>
      <point x="868.2947368421053" y="-19.010526315789473" type="curve" smooth="yes"/>
      <point x="969.9368421052632" y="-19.010526315789473"/>
      <point x="1191.3894736842105" y="29.473684210526315"/>
      <point x="1325.0526315789473" y="66.29473684210527" type="curve"/>
      <point x="1307.3263157894737" y="174.44210526315788" type="line"/>
      <point x="1150.5052631578947" y="115.62105263157895"/>
      <point x="941.3263157894736" y="73.76842105263158"/>
      <point x="872.1684210526316" y="73.76842105263158" type="curve"/>
      <point x="416.5684210526316" y="79.93684210526315"/>
      <point x="217.1578947368421" y="355.1578947368421"/>
      <point x="217.1578947368421" y="717.1578947368421" type="curve" smooth="yes"/>
      <point x="217.1578947368421" y="1109.0105263157895"/>
      <point x="462.06315789473683" y="1349.7052631578947"/>
      <point x="814.3157894736843" y="1355.7052631578947" type="curve"/>
      <point x="870.9684210526315" y="1355.7052631578947"/>
      <point x="1080.5052631578947" y="1301.2"/>
      <point x="1282.0210526315789" y="1232.6947368421054" type="curve"/>
      <point x="1294.042105263158" y="1339.8526315789472" type="line"/>
      <point x="1168.3157894736842" y="1377.2"/>
      <point x="911.6421052631579" y="1450.6736842105263"/>
      <point x="814.6526315789474" y="1450.6736842105263" type="curve" smooth="yes"/>
      <point x="397.2631578947368" y="1450.6736842105263"/>
      <point x="113.93684210526315" y="1144.6736842105263"/>
      <point x="113.93684210526315" y="717.3263157894737" type="curve" smooth="yes"/>
      <point x="113.93684210526315" y="302.9684210526316"/>
      <point x="371.30526315789473" y="-19.010526315789473"/>
    </contour>
    <contour>
      <point x="1217.1789473684212" y="66.29473684210527" type="curve"/>
      <point x="1325.0526315789473" y="66.29473684210527" type="line"/>
      <point x="1322.5473684210526" y="203.6421052631579"/>
      <point x="1321.8736842105263" y="299.4947368421053"/>
      <point x="1319.536842105263" y="401.17894736842106" type="curve"/>
      <point x="1322.5473684210526" y="522.5263157894736"/>
      <point x="1323.5578947368422" y="607.8736842105263"/>
      <point x="1326.3999999999999" y="703.3894736842105" type="curve"/>
      <point x="1213.663157894737" y="703.3894736842105" type="line"/>
      <point x="1216.5052631578947" y="607.8736842105263"/>
      <point x="1219.3473684210526" y="522.5263157894736"/>
      <point x="1222.3578947368421" y="401.17894736842106" type="curve"/>
      <point x="1220.0210526315789" y="299.4947368421053"/>
      <point x="1219.6842105263158" y="203.97894736842107"/>
    </contour>
  </outline>
</glyph>
<glyph name="I" format="2">
  <advance width="524.5263157894736"/>
  <unicode hex="0049"/>
  <anchor x="260.58947368421053" y="0.0" name="bottom"/>
  <anchor x="319.6421052631579" y="0.0" name="ogonek"/>
  <anchor x="260.58947368421053" y="1426.0" name="top"/>
  <anchor x="72.98947368421052" y="1426.0" name="topleft"/>
  <outline>
    <contour>
      <point x="204.04210526315788" y="0.0" type="curve"/>
      <point x="320.48421052631574" y="0.0" type="line"/>
      <point x="317.6421052631579" y="160.82105263157894"/>
      <point x="314.8" y="299.81052631578945"/>
      <point x="311.7894736842105" y="474.4842105263158" type="curve"/>
      <point x="311.7894736842105" y="949.8315789473684" type="line"/>
      <point x="314.9684210526316" y="1125.6842105263156"/>
      <point x="317.6421052631579" y="1264.6736842105263"/>
      <point x="320.48421052631574" y="1426.0" type="curve"/>
      <point x="204.04210526315788" y="1426.0" type="line"/>
      <point x="206.8842105263158" y="1264.6736842105263"/>
      <point x="207.72631578947366" y="1125.6842105263156"/>
      <point x="210.90526315789472" y="949.8315789473684" type="curve"/>
      <point x="210.90526315789472" y="474.4842105263158" type="line"/>
      <point x="207.89473684210526" y="299.6421052631579"/>
      <point x="206.8842105263158" y="160.65263157894736"/>
    </contour>
  </outline>
</glyph>
<glyph name="J" format="2">
  <advance width="556.4842105263158"/>
  <unicode hex="004A"/>
  <anchor x="291.38947368421054" y="0.0" name="bottom"/>
  <anchor x="291.38947368421054" y="1426.0" name="top"/>
  <outline>
    <contour>
      <point x="60.463157894736845" y="-318.65263157894736" type="curve"/>
      <point x="169.7684210526316" y="-318.65263157894736" type="line"/>
      <point x="222.61052631578946" y="-215.49473684210528"/>
      <point x="347.93684210526317" y="35.30526315789474"/>
      <point x="347.93684210526317" y="77.41052631578947" type="curve" smooth="yes"/>
      <point x="347.93684210526317" y="233.76842105263157"/>
      <point x="343.7473684210526" y="396.63157894736844"/>
      <point x="343.7473684210526" y="554.5052631578948" type="curve"/>
      <point x="343.7473684210526" y="949.8315789473684" type="line"/>
      <point x="345.09473684210525" y="1125.6842105263156"/>
      <point x="345.93684210526317" y="1264.6736842105263"/>
      <point x="352.4421052631579" y="1426.0" type="curve"/>
      <point x="236.8421052631579" y="1426.0" type="line"/>
      <point x="241.51578947368424" y="1264.6736842105263"/>
      <point x="242.3578947368421" y="1125.6842105263156"/>
      <point x="243.70526315789473" y="949.8315789473684" type="curve"/>
      <point x="243.70526315789473" y="497.7263157894737" type="line"/>
      <point x="239.36842105263156" y="66.7578947368421" type="line"/>
      <point x="174.73684210526315" y="-73.43157894736844"/>
      <point x="117.59999999999998" y="-196.1263157894737"/>
    </contour>
  </outline>
</glyph>
<glyph name="K" format="2">
  <advance width="1308.6526315789472"/>
  <unicode hex="004B"/>
  <anchor x="671.4105263157895" y="0.0" name="bottom"/>
  <anchor x="671.4105263157895" y="1426.0" name="top"/>
  <outline>
    <contour>
      <point x="1097.578947368421" y="0.0" type="curve"/>
      <point x="1253.5578947368422" y="0.0" type="line"/>
      <point x="1123.4315789473685" y="120.02105263157894"/>
      <point x="919.3263157894737" y="309.5578947368421"/>
      <point x="766.042105263158" y="451.9157894736842" type="curve"/>
      <point x="441.15789473684214" y="761.8105263157895" type="line"/>
      <point x="442.0" y="717.978947368421" type="line"/>
      <point x="732.2315789473685" y="989.1578947368421" type="line"/>
      <point x="887.6842105263157" y="1131.8315789473684"/>
      <point x="1044.6315789473686" y="1274.0000000000002"/>
      <point x="1211.4105263157894" y="1426.0" type="curve"/>
      <point x="1059.4526315789474" y="1426.0" type="line"/>
      <point x="894.9052631578948" y="1269.7052631578947"/>
      <point x="780.8210526315789" y="1161.7263157894736"/>
      <point x="653.4105263157895" y="1039.9157894736843" type="curve"/>
      <point x="376.0842105263158" y="780.1473684210526" type="line"/>
      <point x="292.58947368421053" y="780.1473684210526" type="line"/>
      <point x="292.58947368421053" y="691.5368421052632" type="line"/>
      <point x="374.92631578947373" y="691.5368421052632" type="line"/>
      <point x="698.2105263157895" y="385.2631578947368" type="line"/>
      <point x="821.4526315789474" y="267.11578947368423"/>
      <point x="946.5263157894736" y="145.30526315789473"/>
    </contour>
    <contour>
      <point x="203.2" y="0.0" type="curve"/>
      <point x="318.6315789473684" y="0.0" type="line"/>
      <point x="315.7894736842105" y="160.82105263157894"/>
      <point x="312.94736842105266" y="299.81052631578945"/>
      <point x="309.93684210526317" y="474.4842105263158" type="curve"/>
      <point x="309.93684210526317" y="949.8315789473684" type="line"/>
      <point x="313.11578947368423" y="1125.6842105263156"/>
      <point x="315.7894736842105" y="1264.6736842105263"/>
      <point x="318.6315789473684" y="1426.0" type="curve"/>
      <point x="203.2" y="1426.0" type="line"/>
      <point x="206.0421052631579" y="1264.6736842105263"/>
      <point x="206.88421052631577" y="1125.6842105263156"/>
      <point x="210.06315789473683" y="949.8315789473684" type="curve"/>
      <point x="210.06315789473683" y="474.4842105263158" type="line"/>
      <point x="207.05263157894737" y="299.6421052631579"/>
      <point x="206.0421052631579" y="160.65263157894736"/>
    </contour>
  </outline>
</glyph>
<glyph name="M" format="2">
  <advance width="1903.536842105263"/>
  <unicode hex="004D"/>
  <anchor x="951.6842105263157" y="0.0" name="bottom"/>
  <anchor x="951.6842105263157" y="1426.0" name="top"/>
  <outline>
    <contour>
      <point x="141.7263157894737" y="0.0" type="curve"/>
      <point x="258.4631578947368" y="0.0" type="line"/>
      <point x="289.43157894736845" y="284.86315789473684"/>
      <point x="316.7368421052632" y="537.4105263157895"/>
      <point x="340.37894736842105" y="757.4736842105264" type="curve"/>
      <point x="397.85263157894735" y="1232.0842105263157" type="line"/>
      <point x="406.0421052631579" y="1232.0842105263157" type="line"/>
      <point x="620.0842105263158" y="715.8315789473684" type="line"/>
      <point x="717.5157894736842" y="474.61052631578946"/>
      <point x="827.7684210526315" y="200.0842105263158"/>
      <point x="908.5473684210527" y="0.0" type="curve"/>
      <point x="998.5052631578948" y="0.0" type="line"/>
      <point x="1084.2736842105264" y="214.73684210526315"/>
      <point x="1186.863157894737" y="469.1157894736842"/>
      <point x="1287.4526315789474" y="719.4947368421052" type="curve"/>
      <point x="1499.642105263158" y="1232.0842105263157" type="line"/>
      <point x="1507.8315789473686" y="1232.0842105263157" type="line"/>
      <point x="1565.3052631578948" y="757.4736842105264" type="line"/>
      <point x="1588.947368421053" y="535.5789473684212"/>
      <point x="1616.4210526315787" y="279.2"/>
      <point x="1645.557894736842" y="0.0" type="curve"/>
      <point x="1761.8105263157895" y="0.0" type="line"/>
      <point x="1740.9684210526316" y="160.65263157894736"/>
      <point x="1720.126315789474" y="302.3157894736842"/>
      <point x="1696.9473684210527" y="474.4842105263158" type="curve"/>
      <point x="1640.2736842105264" y="945.8315789473684" type="line"/>
      <point x="1620.9473684210527" y="1121.494736842105"/>
      <point x="1605.4526315789471" y="1264.5052631578947"/>
      <point x="1588.1263157894737" y="1426.0" type="curve"/>
      <point x="1469.536842105263" y="1426.0" type="line"/>
      <point x="1381.2631578947369" y="1202.757894736842"/>
      <point x="1297.3263157894737" y="991.3684210526317"/>
      <point x="1214.8842105263159" y="784.9684210526316" type="curve"/>
      <point x="959.1999999999999" y="167.6" type="line"/>
      <point x="949.3473684210526" y="167.6" type="line"/>
      <point x="692.8210526315789" y="784.9684210526316" type="line"/>
      <point x="610.2105263157895" y="993.2"/>
      <point x="525.9368421052632" y="1202.9263157894736"/>
      <point x="437.4947368421052" y="1426.0" type="curve"/>
      <point x="316.2315789473684" y="1426.0" type="line"/>
      <point x="298.90526315789475" y="1260.6736842105263"/>
      <point x="283.57894736842104" y="1112.336842105263"/>
      <point x="266.25263157894733" y="945.8315789473684" type="curve"/>
      <point x="208.0842105263158" y="474.4842105263158" type="line"/>
      <point x="183.2421052631579" y="300.82105263157894"/>
      <point x="164.23157894736843" y="160.31578947368422"/>
    </contour>
  </outline>
</glyph>
<glyph name="N" format="2">
  <advance width="1515.6631578947367"/>
  <unicode hex="004E"/>
  <anchor x="758.0" y="0.0" name="bottom"/>
  <anchor x="758.0" y="1426.0" name="top"/>
  <outline>
    <contour>
      <point x="203.2" y="0.0" type="curve"/>
      <point x="315.9368421052631" y="0.0" type="line"/>
      <point x="313.09473684210525" y="160.82105263157894"/>
      <point x="310.2526315789474" y="299.81052631578945"/>
      <point x="307.2421052631579" y="474.4842105263158" type="curve"/>
      <point x="307.2421052631579" y="1250.8842105263159" type="line"/>
      <point x="317.2631578947369" y="1250.8842105263159" type="line"/>
      <point x="669.0736842105264" y="756.9684210526316" type="line"/>
      <point x="876.9473684210526" y="461.2842105263158"/>
      <point x="1045.178947368421" y="222.56842105263158"/>
      <point x="1202.5894736842104" y="0.0" type="curve"/>
      <point x="1312.4631578947367" y="0.0" type="line"/>
      <point x="1309.621052631579" y="160.82105263157894"/>
      <point x="1306.778947368421" y="299.81052631578945"/>
      <point x="1303.7684210526315" y="474.4842105263158" type="curve"/>
      <point x="1303.7684210526315" y="949.8315789473684" type="line"/>
      <point x="1306.9473684210525" y="1125.6842105263156"/>
      <point x="1309.621052631579" y="1264.6736842105263"/>
      <point x="1312.4631578947367" y="1426.0" type="curve"/>
      <point x="1199.7263157894738" y="1426.0" type="line"/>
      <point x="1202.5684210526315" y="1264.6736842105263"/>
      <point x="1203.4105263157896" y="1125.6842105263156"/>
      <point x="1206.5894736842106" y="949.8315789473684" type="curve"/>
      <point x="1206.5894736842106" y="182.44210526315788" type="line"/>
      <point x="1196.4" y="182.44210526315788" type="line"/>
      <point x="845.0947368421052" y="672.5263157894736" type="line"/>
      <point x="675.3684210526316" y="914.7368421052632"/>
      <point x="501.8105263157895" y="1161.1157894736841"/>
      <point x="316.25263157894733" y="1426.0" type="curve"/>
      <point x="203.2" y="1426.0" type="line"/>
      <point x="206.0421052631579" y="1264.6736842105263"/>
      <point x="206.88421052631577" y="1125.6842105263156"/>
      <point x="210.06315789473683" y="949.8315789473684" type="curve"/>
      <point x="210.06315789473683" y="474.4842105263158" type="line"/>
      <point x="207.05263157894737" y="299.6421052631579"/>
      <point x="206.0421052631579" y="160.65263157894736"/>
    </contour>
  </outline>
</glyph>
<glyph name="R" format="2">
  <advance width="1324.6666666666665"/>
  <unicode hex="0052"/>
  <anchor x="663.5172413793103" y="0.0" name="bottom"/>
  <anchor x="632.5057471264367" y="1426.0" name="top"/>
  <outline>
    <contour>
      <point x="1112.6206896551726" y="0.0" type="curve"/>
      <point x="1256.7586206896553" y="0.0" type="line"/>
      <point x="1155.3333333333333" y="114.0"/>
      <point x="1010.6436781609194" y="277.1034482758621"/>
      <point x="897.2183908045977" y="403.8390804597701" type="curve"/>
      <point x="654.9425287356322" y="684.5747126436781" type="line"/>
      <point x="636.0229885057471" y="635.3333333333334" type="line"/>
      <point x="1004.3448275862069" y="637.3333333333334"/>
      <point x="1118.0229885057472" y="828.4367816091954"/>
      <point x="1118.0229885057472" y="1053.7471264367816" type="curve" smooth="yes"/>
      <point x="1118.0229885057472" y="1315.471264367816"/>
      <point x="971.4022988505747" y="1429.103448275862"/>
      <point x="657.8850574712643" y="1429.103448275862" type="curve"/>
      <point x="462.41379310344826" y="1428.7356321839081"/>
      <point x="317.0114942528736" y="1426.367816091954"/>
      <point x="203.12643678160921" y="1426.0" type="curve"/>
      <point x="275.97701149425285" y="1336.7816091954023" type="line"/>
      <point x="652.7816091954022" y="1336.7816091954023" type="line" smooth="yes"/>
      <point x="806.6896551724137" y="1336.7816091954023"/>
      <point x="1015.2413793103448" y="1330.7356321839081"/>
      <point x="1015.2413793103448" y="1048.2298850574712" type="curve" smooth="yes"/>
      <point x="1015.2413793103448" y="806.735632183908"/>
      <point x="880.5977011494252" y="710.0919540229885"/>
      <point x="580.6666666666666" y="710.0919540229885" type="curve" smooth="yes"/>
      <point x="292.39080459770116" y="710.0919540229885" type="line"/>
      <point x="292.39080459770116" y="622.5057471264367" type="line"/>
      <point x="617.4942528735631" y="622.5057471264367" type="line"/>
      <point x="552.8965517241379" y="663.8390804597701" type="line"/>
      <point x="818.8505747126437" y="353.37931034482756" type="line"/>
      <point x="915.4942528735633" y="236.6896551724138"/>
      <point x="1011.2413793103449" y="122.52873563218391"/>
    </contour>
    <contour>
      <point x="203.12643678160921" y="0.0" type="curve"/>
      <point x="317.95402298850576" y="0.0" type="line"/>
      <point x="315.21839080459773" y="160.89655172413794"/>
      <point x="312.1149425287356" y="299.7931034482759"/>
      <point x="309.37931034482756" y="474.5287356321839" type="curve"/>
      <point x="309.37931034482756" y="937.7471264367816" type="line"/>
      <point x="312.1149425287356" y="1112.8505747126437"/>
      <point x="315.21839080459773" y="1252.4827586206895"/>
      <point x="317.95402298850576" y="1413.7471264367816" type="curve"/>
      <point x="203.12643678160921" y="1426.0" type="line"/>
      <point x="205.86206896551727" y="1264.7356321839081"/>
      <point x="206.96551724137933" y="1125.8390804597702"/>
      <point x="210.0689655172414" y="950.0" type="curve"/>
      <point x="210.0689655172414" y="474.5287356321839" type="line"/>
      <point x="206.96551724137933" y="299.7931034482759"/>
      <point x="205.86206896551727" y="160.52873563218392"/>
    </contour>
  </outline>
</glyph>
<glyph name="S" format="2">
  <advance width="1156.9885057471265"/>
  <unicode hex="0053"/>
  <anchor x="588.5747126436781" y="0.0" name="bottom"/>
  <anchor x="588.5747126436781" y="1426.0" name="top"/>
  <outline>
    <contour>
      <point x="602.528735632184" y="-19.103448275862068" type="curve" smooth="yes"/>
      <point x="924.0919540229885" y="-19.103448275862068"/>
      <point x="1065.7701149425288" y="158.16091954022988"/>
      <point x="1065.7701149425288" y="375.14942528735634" type="curve" smooth="yes"/>
      <point x="1065.7701149425288" y="569.2413793103449"/>
      <point x="957.4022988505748" y="665.2413793103449"/>
      <point x="613.7701149425287" y="777.7701149425287" type="curve" smooth="yes"/>
      <point x="343.7471264367816" y="866.2528735632184"/>
      <point x="229.26436781609195" y="927.6781609195402"/>
      <point x="229.26436781609195" y="1084.1149425287356" type="curve" smooth="yes"/>
      <point x="229.26436781609195" y="1275.9310344827586"/>
      <point x="389.86206896551727" y="1352.7816091954023"/>
      <point x="572.0919540229885" y="1356.7816091954023" type="curve"/>
      <point x="617.3563218390806" y="1356.7816091954023"/>
      <point x="798.8275862068965" y="1303.1494252873563"/>
      <point x="963.0344827586207" y="1241.5172413793102" type="curve"/>
      <point x="974.8735632183908" y="1348.0459770114942" type="line"/>
      <point x="868.0919540229885" y="1381.67816091954"/>
      <point x="653.5172413793103" y="1450.7356321839081"/>
      <point x="571.8390804597701" y="1450.7356321839081" type="curve" smooth="yes"/>
      <point x="282.11494252873564" y="1450.7356321839081"/>
      <point x="125.01149425287356" y="1288.896551724138"/>
      <point x="125.01149425287356" y="1081.9080459770114" type="curve" smooth="yes"/>
      <point x="125.01149425287356" y="872.183908045977"/>
      <point x="283.9080459770115" y="783.0804597701149"/>
      <point x="562.9655172413793" y="693.2873563218391" type="curve" smooth="yes"/>
      <point x="818.2988505747127" y="611.7011494252873"/>
      <point x="961.8850574712644" y="544.6436781609195"/>
      <point x="961.8850574712644" y="372.2068965517241" type="curve" smooth="yes"/>
      <point x="961.8850574712644" y="153.70114942528735"/>
      <point x="800.919540229885" y="78.48275862068965"/>
      <point x="602.1609195402299" y="74.48275862068965" type="curve"/>
      <point x="505.67816091954023" y="74.48275862068965"/>
      <point x="342.1609195402299" y="122.48275862068965"/>
      <point x="155.58620689655172" y="184.48275862068965" type="curve"/>
      <point x="142.11494252873564" y="79.2183908045977" type="line"/>
      <point x="309.58620689655174" y="29.05747126436782"/>
      <point x="500.8965517241379" y="-19.103448275862068"/>
    </contour>
  </outline>
</glyph>
<glyph name="V" format="2">
  <advance width="1348.1263157894737"/>
  <unicode hex="0056"/>
  <anchor x="675.8947368421053" y="0.0" name="bottom"/>
  <anchor x="675.8947368421053" y="1426.0" name="top"/>
  <outline>
    <contour>
      <point x="599.4526315789474" y="0.0" type="curve"/>
      <point x="755.1578947368421" y="0.0" type="line"/>
      <point x="808.8000000000001" y="147.8315789473684"/>
      <point x="868.2736842105263" y="311.8315789473684"/>
      <point x="918.2526315789473" y="450.1684210526316" type="curve"/>
      <point x="1087.705263157895" y="900.0" type="line"/>
      <point x="1149.0315789473686" y="1053.663157894737"/>
      <point x="1226.6947368421052" y="1252.1684210526314"/>
      <point x="1296.021052631579" y="1426.0" type="curve"/>
      <point x="1168.7157894736843" y="1426.0" type="line"/>
      <point x="1086.9473684210527" y="1200.5684210526315"/>
      <point x="999.5157894736842" y="954.1263157894737"/>
      <point x="919.578947368421" y="732.6947368421053" type="curve"/>
      <point x="684.2315789473685" y="107.53684210526316" type="line"/>
      <point x="670.5473684210526" y="107.53684210526316" type="line"/>
      <point x="434.37894736842105" y="730.6947368421053" type="line"/>
      <point x="354.61052631578946" y="948.6315789473683"/>
      <point x="259.85263157894735" y="1207.7263157894736"/>
      <point x="179.9157894736842" y="1426.0" type="curve"/>
      <point x="50.10526315789474" y="1426.0" type="line"/>
      <point x="119.60000000000001" y="1253.3263157894737"/>
      <point x="200.58947368421053" y="1051.8315789473686"/>
      <point x="261.9157894736842" y="900.0" type="curve"/>
      <point x="434.69473684210527" y="452.0" type="line"/>
      <point x="484.5052631578948" y="315.8315789473684"/>
      <point x="549.6421052631579" y="138.33684210526314"/>
    </contour>
  </outline>
</glyph>
<glyph name="W" format="2">
  <advance width="2010.9684210526316"/>
  <unicode hex="0057"/>
  <anchor x="1003.5578947368421" y="0.0" name="bottom"/>
  <anchor x="1003.5578947368421" y="1426.0" name="top"/>
  <outline>
    <contour>
      <point x="479.3684210526316" y="0.0" type="curve"/>
      <point x="637.3052631578947" y="0.0" type="line"/>
      <point x="692.9263157894737" y="207.91578947368419"/>
      <point x="763.3684210526316" y="466.9684210526316"/>
      <point x="820.8210526315789" y="678.2105263157895" type="curve"/>
      <point x="995.5368421052632" y="1291.1157894736841" type="line"/>
      <point x="1009.2210526315789" y="1291.1157894736841" type="line"/>
      <point x="1186.1052631578948" y="678.378947368421" type="line"/>
      <point x="1243.5578947368422" y="467.13684210526316"/>
      <point x="1314.1684210526316" y="213.41052631578947"/>
      <point x="1371.621052631579" y="0.0" type="curve"/>
      <point x="1532.5894736842104" y="0.0" type="line"/>
      <point x="1569.4105263157894" y="134.33684210526314"/>
      <point x="1617.7263157894736" y="308.0"/>
      <point x="1658.378947368421" y="451.8315789473684" type="curve"/>
      <point x="1794.1894736842105" y="900.0" type="line"/>
      <point x="1844.1894736842105" y="1057.3263157894737"/>
      <point x="1906.8631578947368" y="1252.1684210526316"/>
      <point x="1963.1999999999998" y="1426.0" type="curve"/>
      <point x="1834.8842105263159" y="1426.0" type="line"/>
      <point x="1773.7684210526315" y="1209.0736842105264"/>
      <point x="1701.663157894737" y="953.1578947368421"/>
      <point x="1640.7157894736843" y="738.5684210526316" type="curve"/>
      <point x="1457.6842105263158" y="116.94736842105263" type="line"/>
      <point x="1444.0" y="116.94736842105263" type="line"/>
      <point x="1267.1157894736841" y="736.5684210526316" type="line"/>
      <point x="1206.0" y="956.8210526315789"/>
      <point x="1139.0526315789473" y="1205.4105263157894"/>
      <point x="1077.9368421052632" y="1426.0" type="curve"/>
      <point x="929.1999999999999" y="1426.0" type="line"/>
      <point x="871.578947368421" y="1210.7368421052631"/>
      <point x="801.1368421052632" y="949.4947368421052"/>
      <point x="743.6842105263158" y="738.5684210526316" type="curve"/>
      <point x="568.9684210526316" y="116.94736842105263" type="line"/>
      <point x="555.2842105263157" y="116.94736842105263" type="line"/>
      <point x="374.0842105263158" y="732.9052631578948" type="line"/>
      <point x="311.30526315789473" y="954.9894736842105"/>
      <point x="240.86315789473684" y="1203.7473684210527"/>
      <point x="178.0842105263158" y="1426.0" type="curve"/>
      <point x="49.6" y="1426.0" type="line"/>
      <point x="104.10526315789473" y="1255.4947368421053"/>
      <point x="170.10526315789474" y="1052.0"/>
      <point x="220.10526315789474" y="896.3368421052631" type="curve"/>
      <point x="353.7473684210526" y="450.0" type="line"/>
      <point x="392.40000000000003" y="312.1684210526316"/>
      <point x="438.8842105263158" y="142.16842105263157"/>
    </contour>
  </outline>
</glyph>
<glyph name="X" format="2">
  <advance width="1334.6736842105263"/>
  <unicode hex="0058"/>
  <outline>
    <contour>
      <point x="76.92631578947369" y="0.0" type="curve"/>
      <point x="213.5578947368421" y="0.0" type="line"/>
      <point x="302.6526315789474" y="135.1157894736842"/>
      <point x="377.0947368421052" y="250.08421052631581"/>
      <point x="453.2" y="367.87368421052633" type="curve"/>
      <point x="641.2421052631579" y="648.4421052631579" type="line"/>
      <point x="654.9263157894736" y="648.4421052631579" type="line"/>
      <point x="856.1263157894737" y="369.70526315789476" type="line"/>
      <point x="936.2315789473685" y="255.41052631578947"/>
      <point x="1020.3368421052631" y="134.94736842105263"/>
      <point x="1115.2631578947369" y="0.0" type="curve"/>
      <point x="1258.2526315789473" y="0.0" type="line"/>
      <point x="1143.9368421052634" y="152.0"/>
      <point x="1043.4526315789474" y="284.0"/>
      <point x="927.1368421052631" y="438.1684210526316" type="curve"/>
      <point x="702.8631578947368" y="748.5052631578948" type="line"/>
      <point x="702.8631578947368" y="707.2631578947369" type="line"/>
      <point x="919.6421052631579" y="1026.463157894737" type="line"/>
      <point x="1000.4631578947368" y="1140.8000000000002"/>
      <point x="1097.4526315789474" y="1277.8105263157895"/>
      <point x="1202.9473684210527" y="1426.0" type="curve"/>
      <point x="1064.4842105263158" y="1426.0" type="line"/>
      <point x="976.7157894736841" y="1293.1999999999998"/>
      <point x="887.4526315789474" y="1157.4105263157896"/>
      <point x="809.1789473684211" y="1037.2842105263157" type="curve"/>
      <point x="652.9473684210526" y="806.1894736842105" type="line"/>
      <point x="639.2631578947368" y="806.1894736842105" type="line"/>
      <point x="479.0315789473684" y="1035.4526315789474" type="line"/>
      <point x="400.58947368421053" y="1151.9157894736843"/>
      <point x="310.9894736842105" y="1286.2105263157896"/>
      <point x="217.55789473684212" y="1426.0" type="curve"/>
      <point x="78.25263157894737" y="1426.0" type="line"/>
      <point x="194.56842105263158" y="1265.494736842105"/>
      <point x="289.2210526315789" y="1133.157894736842"/>
      <point x="385.7052631578947" y="1000.8210526315789" type="curve"/>
      <point x="590.1473684210526" y="708.3157894736842" type="line"/>
      <point x="590.1473684210526" y="748.2105263157895" type="line"/>
      <point x="356.7157894736842" y="400.5263157894737" type="line"/>
      <point x="256.23157894736835" y="257.5157894736842"/>
      <point x="166.08421052631576" y="127.68421052631578"/>
    </contour>
  </outline>
</glyph>
<glyph name="Y" format="2">
  <advance width="1272.4842105263158"/>
  <unicode hex="0059"/>
  <anchor x="637.7473684210527" y="0.0" name="bottom"/>
  <anchor x="637.7473684210527" y="1426.0" name="top"/>
  <anchor x="40.0" y="1426.0" name="topleft"/>
  <outline>
    <contour>
      <point x="590.4" y="586.8631578947368" type="line"/>
      <point x="684.9263157894736" y="586.8631578947368" type="line"/>
      <point x="1006.378947368421" y="1096.778947368421" type="line"/>
      <point x="1074.715789473684" y="1200.6315789473686"/>
      <point x="1148.042105263158" y="1312.9684210526316"/>
      <point x="1221.0526315789473" y="1426.0" type="curve"/>
      <point x="1087.4105263157896" y="1426.0" type="line"/>
      <point x="965.1789473684211" y="1222.0631578947368"/>
      <point x="902.2315789473683" y="1116.9263157894736"/>
      <point x="802.3157894736842" y="952.8210526315789" type="curve"/>
      <point x="644.7578947368421" y="700.7368421052631" type="line"/>
      <point x="630.7368421052631" y="700.7368421052631" type="line"/>
      <point x="467.85263157894735" y="962.1473684210526" type="line"/>
      <point x="373.4315789473684" y="1118.9263157894738"/>
      <point x="312.3157894736842" y="1221.8947368421052"/>
      <point x="190.0842105263158" y="1426.0" type="curve"/>
      <point x="54.92631578947369" y="1426.0" type="line"/>
      <point x="139.93684210526317" y="1295.4736842105262"/>
      <point x="203.93684210526314" y="1198.6315789473683"/>
      <point x="270.4421052631579" y="1096.778947368421" type="curve"/>
    </contour>
    <contour>
      <point x="580.8631578947369" y="0.0" type="curve"/>
      <point x="696.4631578947368" y="0.0" type="line"/>
      <point x="693.6210526315789" y="160.82105263157894"/>
      <point x="690.778947368421" y="299.81052631578945"/>
      <point x="687.7684210526315" y="474.4842105263158" type="curve"/>
      <point x="687.7684210526315" y="669.3473684210526" type="line"/>
      <point x="587.7263157894737" y="669.3473684210526" type="line"/>
      <point x="587.7263157894737" y="474.4842105263158" type="line"/>
      <point x="584.7157894736843" y="299.6421052631579"/>
      <point x="583.7052631578947" y="160.65263157894736"/>
    </contour>
  </outline>
</glyph>
<glyph name="Z" format="2">
  <advance width="1325.578947368421"/>
  <unicode hex="005A"/>
  <anchor x="663.7052631578947" y="0.0" name="bottom"/>
  <anchor x="663.7052631578947" y="714.0" name="center"/>
  <anchor x="663.7052631578947" y="1426.0" name="top"/>
  <outline>
    <contour>
      <point x="105.78947368421052" y="0.0" type="line"/>
      <point x="1210.6315789473683" y="0.0" type="line"/>
      <point x="1210.6315789473683" y="104.16842105263159" type="line"/>
      <point x="1039.178947368421" y="101.15789473684211"/>
      <point x="761.4315789473685" y="95.6421052631579"/>
      <point x="570.6526315789474" y="90.63157894736842" type="curve"/>
      <point x="173.7684210526316" y="90.63157894736842" type="line"/>
      <point x="201.43157894736842" y="31.221052631578946" type="line"/>
      <point x="815.4105263157895" y="834.6105263157895" type="line"/>
      <point x="946.2105263157895" y="1002.7157894736843"/>
      <point x="1074.5052631578947" y="1170.1473684210528"/>
      <point x="1203.957894736842" y="1336.9052631578948" type="curve"/>
      <point x="1203.957894736842" y="1426.0" type="line"/>
      <point x="118.96842105263158" y="1426.0" type="line"/>
      <point x="118.96842105263158" y="1322.9894736842107" type="line"/>
      <point x="335.41052631578947" y="1326.6736842105263"/>
      <point x="537.6842105263158" y="1332.021052631579"/>
      <point x="716.8" y="1335.3684210526317" type="curve"/>
      <point x="1151.0105263157895" y="1335.3684210526317" type="line"/>
      <point x="1106.0210526315789" y="1380.1263157894737" type="line"/>
      <point x="530.8421052631579" y="623.3473684210526" type="line"/>
      <point x="401.2" y="456.2315789473684"/>
      <point x="219.74736842105264" y="224.31578947368422"/>
      <point x="105.78947368421052" y="76.8842105263158" type="curve"/>
    </contour>
  </outline>
</glyph>
<glyph name="bracketleft" format="2">
  <advance width="706.8421052631579"/>
  <unicode hex="005B"/>
  <outline>
    <contour>
      <point x="206.21052631578948" y="-227.03157894736842" type="curve"/>
      <point x="311.7263157894737" y="-227.03157894736842" type="line"/>
      <point x="311.7263157894737" y="-214.8" type="line"/>
      <point x="308.8842105263158" y="-53.97894736842105"/>
      <point x="306.0421052631579" y="86.84210526315789"/>
      <point x="303.0315789473684" y="261.5157894736842" type="curve"/>
      <point x="303.0315789473684" y="1035.4736842105262" type="line"/>
      <point x="306.0421052631579" y="1210.821052631579"/>
      <point x="308.8842105263158" y="1350.3157894736842"/>
      <point x="311.7263157894737" y="1511.6421052631579" type="curve"/>
      <point x="311.7263157894737" y="1523.8736842105263" type="line"/>
      <point x="206.21052631578948" y="1523.8736842105263" type="line"/>
      <point x="208.88421052631577" y="1362.2105263157894"/>
      <point x="209.55789473684212" y="1223.557894736842"/>
      <point x="212.56842105263158" y="1047.7052631578947" type="curve"/>
      <point x="212.56842105263158" y="247.45263157894738" type="line"/>
      <point x="209.7263157894737" y="72.77894736842106"/>
      <point x="208.88421052631577" y="-66.54736842105264"/>
    </contour>
    <contour>
      <point x="287.66315789473686" y="-227.03157894736842" type="line"/>
      <point x="681.6421052631579" y="-227.03157894736842" type="line"/>
      <point x="681.6421052631579" y="-138.92631578947368" type="line"/>
      <point x="584.4842105263158" y="-139.6"/>
      <point x="480.0" y="-142.10526315789474"/>
      <point x="362.67368421052635" y="-142.94736842105263" type="curve"/>
      <point x="287.66315789473686" y="-142.94736842105263" type="line"/>
    </contour>
    <contour>
      <point x="284.9684210526316" y="1439.7894736842106" type="line"/>
      <point x="355.15789473684214" y="1439.7894736842106" type="line"/>
      <point x="494.14736842105265" y="1438.9473684210527"/>
      <point x="593.1368421052631" y="1436.4421052631578"/>
      <point x="682.6315789473684" y="1435.7684210526318" type="curve"/>
      <point x="682.6315789473684" y="1523.8736842105263" type="line"/>
      <point x="284.9684210526316" y="1523.8736842105263" type="line"/>
    </contour>
  </outline>
</glyph>
<glyph name="backslash" format="2">
  <advance width="883.9157894736843"/>
  <unicode hex="005C"/>
  <outline>
    <contour>
      <point x="706.1263157894737" y="0.0" type="curve"/>
      <point x="814.9894736842105" y="0.0" type="line"/>
      <point x="747.3263157894737" y="146.67368421052632"/>
      <point x="689.8315789473685" y="272.5052631578947"/>
      <point x="604.6736842105264" y="456.0" type="curve"/>
      <point x="383.05263157894734" y="952.0" type="line"/>
      <point x="299.7473684210526" y="1143.8315789473684"/>
      <point x="243.6" y="1273.8315789473684"/>
      <point x="177.62105263157895" y="1426.0" type="curve"/>
      <point x="68.92631578947369" y="1426.0" type="line"/>
      <point x="142.42105263157893" y="1265.8315789473684"/>
      <point x="201.74736842105264" y="1138.0"/>
      <point x="288.90526315789475" y="948.0" type="curve"/>
      <point x="508.5263157894737" y="456.0" type="line"/>
      <point x="588.0" y="272.0"/>
      <point x="642.1473684210526" y="148.0"/>
    </contour>
  </outline>
</glyph>
<glyph name="asciicircum" format="2">
  <advance width="1191.4526315789474"/>
  <unicode hex="005E"/>
  <outline>
    <contour>
      <point x="961.578947368421" y="778.7368421052631" type="curve"/>
      <point x="1061.0105263157893" y="780.9052631578948" type="line"/>
      <point x="930.0421052631579" y="976.2736842105263"/>
      <point x="799.2421052631579" y="1173.6421052631579"/>
      <point x="668.2736842105263" y="1369.0105263157895" type="curve"/>
      <point x="523.1789473684211" y="1369.0105263157895" type="line"/>
      <point x="392.2105263157895" y="1173.6421052631579"/>
      <point x="261.4105263157895" y="980.2736842105263"/>
      <point x="130.44210526315788" y="784.9052631578948" type="curve"/>
      <point x="230.04210526315788" y="784.9052631578948" type="line"/>
      <point x="348.98947368421057" y="951.3473684210526"/>
      <point x="469.93684210526317" y="1119.7894736842106"/>
      <point x="588.8842105263158" y="1286.2315789473685" type="curve"/>
      <point x="602.5684210526316" y="1286.2315789473685" type="line"/>
      <point x="721.6842105263157" y="1117.621052631579"/>
      <point x="842.4631578947369" y="947.3473684210526"/>
    </contour>
  </outline>
</glyph>
<glyph name="underscore" format="2">
  <advance width="773.4736842105264"/>
  <unicode hex="005F"/>
  <outline>
    <contour>
      <point x="-20.0" y="-201.22105263157894" type="line"/>
      <point x="98.86315789473684" y="-198.8842105263158"/>
      <point x="234.37894736842105" y="-196.54736842105262"/>
      <point x="308.0842105263158" y="-196.21052631578948" type="curve"/>
      <point x="465.38947368421054" y="-196.21052631578948" type="line"/>
      <point x="539.0947368421052" y="-196.54736842105262"/>
      <point x="674.6105263157895" y="-198.8842105263158"/>
      <point x="793.4736842105264" y="-201.22105263157894" type="curve"/>
      <point x="793.4736842105264" y="-109.93684210526315" type="line"/>
      <point x="674.6105263157895" y="-112.27368421052631"/>
      <point x="539.0947368421052" y="-114.61052631578947"/>
      <point x="465.38947368421054" y="-114.94736842105263" type="curve"/>
      <point x="308.0842105263158" y="-114.94736842105263" type="line"/>
      <point x="234.37894736842105" y="-114.61052631578947"/>
      <point x="98.86315789473684" y="-112.27368421052631"/>
      <point x="-20.0" y="-109.93684210526315" type="curve"/>
    </contour>
  </outline>
</glyph>
<glyph name="a" format="2">
  <advance width="1038.2528735632184"/>
  <unicode hex="0061"/>
  <anchor x="526.3678160919541" y="0.0" name="bottom"/>
  <anchor x="866.3448275862069" y="0.0" name="ogonek"/>
  <anchor x="526.3678160919541" y="989.471264367816" name="top"/>
  <outline>
    <contour>
      <point x="422.8045977011494" y="-18.735632183908045" type="curve" smooth="yes"/>
      <point x="518.551724137931" y="-18.735632183908045"/>
      <point x="662.344827586207" y="67.54022988505747"/>
      <point x="776.183908045977" y="157.90804597701148" type="curve"/>
      <point x="789.2873563218392" y="157.90804597701148" type="line"/>
      <point x="830.551724137931" y="0.0" type="line"/>
      <point x="927.080459770115" y="0.0" type="line"/>
      <point x="901.080459770115" y="96.04597701149424"/>
      <point x="884.3448275862069" y="167.19540229885058"/>
      <point x="864.7126436781609" y="253.77011494252875" type="curve"/>
      <point x="864.7126436781609" y="422.0" type="line" smooth="yes"/>
      <point x="864.7126436781609" y="511.7931034482759"/>
      <point x="869.080459770115" y="610.528735632184"/>
      <point x="869.080459770115" y="668.0" type="curve" smooth="yes"/>
      <point x="869.080459770115" y="907.8390804597701"/>
      <point x="735.7241379310344" y="1010.2068965517242"/>
      <point x="532.5747126436781" y="1010.2068965517242" type="curve" smooth="yes"/>
      <point x="460.0459770114942" y="1010.2068965517242"/>
      <point x="255.01149425287355" y="960.9425287356321"/>
      <point x="165.9080459770115" y="937.6781609195402" type="curve"/>
      <point x="172.64367816091954" y="838.0919540229885" type="line"/>
      <point x="319.7011494252874" y="882.9885057471265"/>
      <point x="480.8505747126437" y="921.9310344827586"/>
      <point x="523.0114942528736" y="921.9310344827586" type="curve" smooth="yes"/>
      <point x="665.1264367816091" y="921.9310344827586"/>
      <point x="784.7126436781609" y="878.2988505747127"/>
      <point x="775.448275862069" y="626.5747126436781" type="curve"/>
      <point x="440.11494252873564" y="560.0919540229885" type="line" smooth="yes"/>
      <point x="298.0689655172414" y="532.8275862068965"/>
      <point x="121.9080459770115" y="468.62068965517244"/>
      <point x="121.9080459770115" y="258.04597701149424" type="curve" smooth="yes"/>
      <point x="121.9080459770115" y="90.52873563218391"/>
      <point x="235.2183908045977" y="-18.735632183908045"/>
    </contour>
    <contour>
      <point x="437.51724137931035" y="66.06896551724138" type="curve" smooth="yes"/>
      <point x="310.02298850574715" y="66.06896551724138"/>
      <point x="216.64367816091954" y="120.91954022988506"/>
      <point x="216.64367816091954" y="261.51724137931035" type="curve" smooth="yes"/>
      <point x="216.64367816091954" y="402.2758620689655"/>
      <point x="330.2988505747126" y="459.54022988505744"/>
      <point x="469.264367816092" y="485.3333333333333" type="curve" smooth="yes"/>
      <point x="683.4942528735633" y="524.7586206896551"/>
      <point x="738.183908045977" y="544.551724137931"/>
      <point x="774.3448275862069" y="562.551724137931" type="curve"/>
      <point x="772.7126436781609" y="256.2988505747126" type="line"/>
      <point x="657.1724137931035" y="147.12643678160921"/>
      <point x="511.9540229885058" y="66.06896551724138"/>
    </contour>
  </outline>
</glyph>
<glyph name="b" format="2">
  <advance width="1181.3473684210528"/>
  <unicode hex="0062"/>
  <outline>
    <contour>
      <point x="627.978947368421" y="-19.178947368421053" type="curve" smooth="yes"/>
      <point x="917.4526315789474" y="-19.178947368421053"/>
      <point x="1064.421052631579" y="220.33684210526314"/>
      <point x="1064.421052631579" y="498.33684210526314" type="curve" smooth="yes"/>
      <point x="1064.421052631579" y="792.6736842105263"/>
      <point x="900.2947368421052" y="1010.3578947368421"/>
      <point x="624.1473684210526" y="1010.3578947368421" type="curve" smooth="yes"/>
      <point x="510.2105263157895" y="1010.3578947368421"/>
      <point x="396.06315789473683" y="933.0526315789474"/>
      <point x="303.2421052631579" y="864.7157894736843" type="curve"/>
      <point x="289.5578947368421" y="864.7157894736843" type="line"/>
      <point x="289.5578947368421" y="987.8315789473684" type="line"/>
      <point x="292.90526315789475" y="1159.6842105263158"/>
      <point x="296.08421052631576" y="1318.8631578947368"/>
      <point x="299.09473684210525" y="1482.021052631579" type="curve"/>
      <point x="180.33684210526317" y="1458.5052631578947" type="line"/>
      <point x="186.18947368421053" y="1312.6526315789474"/>
      <point x="191.8736842105263" y="1156.821052631579"/>
      <point x="197.22105263157894" y="987.8315789473684" type="curve"/>
      <point x="197.22105263157894" y="440.65263157894736" type="line"/>
      <point x="194.21052631578948" y="278.14736842105265"/>
      <point x="193.3684210526316" y="149.1578947368421"/>
      <point x="190.5263157894737" y="0.0" type="curve"/>
      <point x="273.81052631578945" y="0.0" type="line"/>
      <point x="283.34736842105264" y="138.8" type="line"/>
      <point x="296.5263157894737" y="138.8" type="line"/>
      <point x="398.7157894736842" y="53.45263157894737"/>
      <point x="534.1684210526316" y="-19.178947368421053"/>
    </contour>
    <contour>
      <point x="612.6526315789473" y="70.58947368421053" type="curve"/>
      <point x="509.89473684210526" y="74.7578947368421"/>
      <point x="380.82105263157894" y="157.0315789473684"/>
      <point x="289.5578947368421" y="245.64210526315787" type="curve"/>
      <point x="289.5578947368421" y="755.8736842105263" type="line"/>
      <point x="399.13684210526316" y="861.621052631579"/>
      <point x="528.0421052631579" y="917.7473684210527"/>
      <point x="608.9894736842105" y="920.0842105263158" type="curve"/>
      <point x="853.978947368421" y="914.0842105263158"/>
      <point x="969.4105263157894" y="730.5263157894736"/>
      <point x="969.4105263157894" y="498.0" type="curve" smooth="yes"/>
      <point x="969.4105263157894" y="275.13684210526316"/>
      <point x="863.3052631578947" y="76.58947368421053"/>
    </contour>
  </outline>
</glyph>
<glyph name="c" format="2">
  <advance width="999.2842105263157"/>
  <unicode hex="0063"/>
  <anchor x="577.3052631578947" y="0.0" name="bottom"/>
  <anchor x="560.8210526315789" y="989.3473684210526" name="top"/>
  <outline>
    <contour>
      <point x="606.1473684210526" y="-18.50526315789474" type="curve" smooth="yes"/>
      <point x="670.9684210526316" y="-18.50526315789474"/>
      <point x="812.6736842105263" y="19.810526315789474"/>
      <point x="898.3368421052631" y="50.631578947368425" type="curve"/>
      <point x="884.1684210526316" y="147.38947368421051" type="line"/>
      <point x="787.5368421052632" y="103.57894736842105"/>
      <point x="658.4" y="70.08421052631579"/>
      <point x="616.2526315789474" y="70.08421052631579" type="curve" smooth="yes"/>
      <point x="345.2210526315789" y="75.74736842105263"/>
      <point x="211.43157894736842" y="256.8"/>
      <point x="211.43157894736842" y="497.34736842105264" type="curve" smooth="yes"/>
      <point x="211.43157894736842" y="756.1894736842105"/>
      <point x="362.67368421052635" y="914.5894736842105"/>
      <point x="594.0210526315789" y="920.5894736842105" type="curve"/>
      <point x="628.8421052631578" y="920.5894736842105"/>
      <point x="758.6736842105263" y="884.7578947368421"/>
      <point x="881.6631578947369" y="839.2631578947369" type="curve"/>
      <point x="893.3473684210526" y="936.6947368421053" type="line"/>
      <point x="813.4736842105264" y="961.7052631578947"/>
      <point x="648.9684210526316" y="1010.1894736842105"/>
      <point x="587.642105263158" y="1010.1894736842105" type="curve" smooth="yes"/>
      <point x="292.2526315789474" y="1010.1894736842105"/>
      <point x="116.58947368421053" y="787.8526315789474"/>
      <point x="116.58947368421053" y="496.1684210526316" type="curve" smooth="yes"/>
      <point x="116.58947368421053" y="206.4842105263158"/>
      <point x="293.1157894736842" y="-18.50526315789474"/>
    </contour>
  </outline>
</glyph>
<glyph name="d" format="2">
  <advance width="1147.7052631578947"/>
  <unicode hex="0064"/>
  <anchor x="614.6947368421053" y="0.0" name="bottom"/>
  <anchor x="579.1789473684211" y="494.6736842105263" name="center"/>
  <anchor x="614.6947368421053" y="1447.6842105263158" name="top"/>
  <anchor x="1095.3894736842105" y="989.3473684210526" name="topright"/>
  <outline>
    <contour>
      <point x="553.3684210526316" y="-19.178947368421053" type="curve" smooth="yes"/>
      <point x="647.178947368421" y="-19.178947368421053"/>
      <point x="782.1263157894736" y="53.28421052631579"/>
      <point x="883.978947368421" y="138.79999999999998" type="curve"/>
      <point x="897.1578947368421" y="138.79999999999998" type="line"/>
      <point x="903.3473684210527" y="0.0" type="line"/>
      <point x="992.6526315789473" y="0.0" type="line"/>
      <point x="989.8105263157894" y="149.1578947368421"/>
      <point x="987.1368421052631" y="278.14736842105265"/>
      <point x="984.1263157894737" y="440.65263157894736" type="curve"/>
      <point x="984.1263157894737" y="987.8315789473684" type="line"/>
      <point x="987.4736842105262" y="1159.6842105263158"/>
      <point x="990.6526315789473" y="1318.8631578947368"/>
      <point x="993.6631578947369" y="1482.021052631579" type="curve"/>
      <point x="874.9052631578948" y="1458.5052631578947" type="line"/>
      <point x="880.7578947368421" y="1312.6526315789474"/>
      <point x="886.4421052631579" y="1156.821052631579"/>
      <point x="891.7894736842105" y="987.8315789473684" type="curve"/>
      <point x="891.7894736842105" y="864.7157894736843" type="line"/>
      <point x="878.1052631578947" y="864.7157894736843" type="line"/>
      <point x="785.2842105263157" y="933.0526315789473"/>
      <point x="671.1368421052632" y="1010.3578947368421"/>
      <point x="557.2" y="1010.3578947368421" type="curve" smooth="yes"/>
      <point x="281.05263157894734" y="1010.3578947368421"/>
      <point x="116.92631578947369" y="792.6736842105263"/>
      <point x="116.92631578947369" y="498.33684210526314" type="curve" smooth="yes"/>
      <point x="116.92631578947369" y="220.33684210526314"/>
      <point x="263.89473684210526" y="-19.178947368421053"/>
    </contour>
    <contour>
      <point x="568.6947368421053" y="70.58947368421053" type="curve"/>
      <point x="318.0421052631579" y="76.58947368421053"/>
      <point x="211.93684210526317" y="275.13684210526316"/>
      <point x="211.93684210526317" y="498.0" type="curve" smooth="yes"/>
      <point x="211.93684210526317" y="730.5263157894736"/>
      <point x="327.36842105263156" y="914.0842105263158"/>
      <point x="572.3578947368421" y="920.0842105263158" type="curve"/>
      <point x="653.3052631578947" y="917.7473684210527"/>
      <point x="782.2105263157895" y="861.621052631579"/>
      <point x="891.7894736842105" y="755.8736842105263" type="curve"/>
      <point x="891.7894736842105" y="245.64210526315787" type="line"/>
      <point x="800.5263157894736" y="157.0315789473684"/>
      <point x="671.4526315789474" y="74.7578947368421"/>
    </contour>
  </outline>
</glyph>
<glyph name="f" format="2">
  <advance width="773.0736842105264"/>
  <unicode hex="0066"/>
  <outline>
    <contour>
      <point x="248.88421052631577" y="0.0" type="curve"/>
      <point x="356.4421052631579" y="0.0" type="line"/>
      <point x="353.59999999999997" y="149.1578947368421"/>
      <point x="350.9263157894737" y="278.14736842105265"/>
      <point x="347.9157894736842" y="440.65263157894736" type="curve"/>
      <point x="347.9157894736842" y="958.3157894736842" type="line"/>
      <point x="348.58947368421053" y="989.3473684210526" type="line"/>
      <point x="346.7368421052632" y="1014.8421052631579"/>
      <point x="343.53684210526313" y="1085.6421052631579"/>
      <point x="343.53684210526313" y="1135.9368421052632" type="curve" smooth="yes"/>
      <point x="343.53684210526313" y="1310.1473684210525"/>
      <point x="419.34736842105264" y="1400.0842105263157"/>
      <point x="601.7263157894737" y="1400.0842105263157" type="curve" smooth="yes"/>
      <point x="613.7263157894737" y="1400.0842105263157"/>
      <point x="684.4" y="1389.578947368421"/>
      <point x="747.7473684210527" y="1377.0736842105264" type="curve"/>
      <point x="757.7684210526315" y="1472.6736842105263" type="line"/>
      <point x="713.8947368421052" y="1479.0105263157895"/>
      <point x="623.1789473684211" y="1488.842105263158"/>
      <point x="597.0105263157894" y="1488.842105263158" type="curve" smooth="yes"/>
      <point x="407.6421052631579" y="1488.842105263158"/>
      <point x="251.72631578947366" y="1399.8526315789475"/>
      <point x="251.72631578947366" y="1135.7684210526315" type="curve" smooth="yes"/>
      <point x="251.72631578947366" y="885.2210526315789"/>
      <point x="255.57894736842104" y="705.4736842105264"/>
      <point x="255.57894736842104" y="538.821052631579" type="curve"/>
      <point x="255.57894736842104" y="440.65263157894736" type="line"/>
      <point x="252.56842105263158" y="278.14736842105265"/>
      <point x="251.72631578947366" y="149.1578947368421"/>
    </contour>
    <contour>
      <point x="55.136842105263156" y="902.0842105263158" type="line"/>
      <point x="282.6736842105263" y="914.9473684210526" type="line"/>
      <point x="314.5052631578947" y="914.9473684210526" type="line"/>
      <point x="447.9789473684211" y="911.9368421052632"/>
      <point x="580.9473684210527" y="907.0947368421052"/>
      <point x="718.7578947368421" y="902.0842105263158" type="curve"/>
      <point x="718.7578947368421" y="989.3473684210526" type="line"/>
      <point x="55.136842105263156" y="989.3473684210526" type="line"/>
    </contour>
  </outline>
</glyph>
<glyph name="g" format="2">
  <advance width="1076.4137931034484"/>
  <unicode hex="0067"/>
  <anchor x="534.5747126436783" y="-384.0" name="bottom"/>
  <anchor x="506.82758620689657" y="989.471264367816" name="top"/>
  <outline>
    <contour>
      <point x="491.7931034482759" y="-404.735632183908" type="curve" smooth="yes"/>
      <point x="710.4137931034483" y="-404.735632183908"/>
      <point x="967.4022988505748" y="-292.2068965517241"/>
      <point x="967.4022988505748" y="-83.9080459770115" type="curve" smooth="yes"/>
      <point x="967.4022988505748" y="64.183908045977"/>
      <point x="860.4137931034483" y="125.44827586206897"/>
      <point x="571.9310344827586" y="125.44827586206897" type="curve" smooth="yes"/>
      <point x="526.6666666666666" y="125.44827586206897" type="line" smooth="yes"/>
      <point x="362.39080459770116" y="125.44827586206897"/>
      <point x="298.5977011494253" y="147.24137931034483"/>
      <point x="298.5977011494253" y="218.98850574712642" type="curve" smooth="yes"/>
      <point x="298.5977011494253" y="288.367816091954"/>
      <point x="370.0229885057471" y="312.5287356321839"/>
      <point x="528.2988505747127" y="350.32183908045977" type="curve" smooth="yes"/>
      <point x="729.3563218390805" y="398.85057471264366"/>
      <point x="850.6666666666667" y="490.6896551724138"/>
      <point x="850.6666666666667" y="682.8965517241379" type="curve" smooth="yes"/>
      <point x="850.6666666666667" y="798.528735632184"/>
      <point x="796.8735632183908" y="901.5862068965517"/>
      <point x="662.5977011494253" y="959.2183908045977" type="curve"/>
      <point x="632.8735632183908" y="923.816091954023" type="line"/>
      <point x="764.6666666666667" y="915.9770114942529"/>
      <point x="895.3563218390805" y="910.5057471264367"/>
      <point x="1031.5172413793102" y="902.6666666666666" type="curve"/>
      <point x="1031.5172413793102" y="989.8390804597701" type="line"/>
      <point x="703.9770114942529" y="989.8390804597701" type="line" smooth="yes"/>
      <point x="606.0919540229886" y="989.8390804597701"/>
      <point x="566.2528735632185" y="1010.2068965517242"/>
      <point x="480.2068965517241" y="1010.2068965517242" type="curve" smooth="yes"/>
      <point x="271.7011494252873" y="1010.2068965517242"/>
      <point x="113.01149425287356" y="886.8965517241379"/>
      <point x="113.01149425287356" y="692.0" type="curve" smooth="yes"/>
      <point x="113.01149425287356" y="533.6781609195402"/>
      <point x="278.55172413793105" y="427.88505747126436"/>
      <point x="362.59770114942523" y="381.1034482758621" type="curve"/>
      <point x="362.59770114942523" y="370.0" type="line"/>
      <point x="258.5977011494253" y="339.0574712643678"/>
      <point x="207.90804597701148" y="285.95402298850576"/>
      <point x="207.90804597701148" y="210.16091954022988" type="curve" smooth="yes"/>
      <point x="207.90804597701148" y="119.42528735632185"/>
      <point x="275.0114942528736" y="81.42528735632185"/>
      <point x="319.17241379310343" y="69.05747126436782" type="curve"/>
      <point x="319.17241379310343" y="57.58620689655172" type="line"/>
      <point x="232.2758620689655" y="13.586206896551726"/>
      <point x="118.48275862068965" y="-72.57471264367815"/>
      <point x="118.48275862068965" y="-167.83908045977012" type="curve" smooth="yes"/>
      <point x="118.48275862068965" y="-280.57471264367814"/>
      <point x="200.32183908045977" y="-404.735632183908"/>
    </contour>
    <contour>
      <point x="495.51724137931035" y="-319.0344827586207" type="curve"/>
      <point x="275.7011494252874" y="-315.0344827586207"/>
      <point x="208.4367816091954" y="-242.55172413793102"/>
      <point x="208.4367816091954" y="-155.90804597701148" type="curve" smooth="yes"/>
      <point x="208.4367816091954" y="-83.26436781609196"/>
      <point x="342.91954022988506" y="3.379310344827583"/>
      <point x="446.82758620689657" y="39.9080459770115" type="curve"/>
      <point x="561.4252873563217" y="39.9080459770115" type="line" smooth="yes"/>
      <point x="815.0804597701149" y="39.9080459770115"/>
      <point x="875.9770114942529" y="1.3793103448275859"/>
      <point x="875.9770114942529" y="-94.52873563218391" type="curve" smooth="yes"/>
      <point x="875.9770114942529" y="-194.06896551724137"/>
      <point x="741.8620689655172" y="-313.1954022988506"/>
    </contour>
    <contour>
      <point x="464.2068965517242" y="416.18390804597703" type="curve"/>
      <point x="338.13793103448273" y="474.71264367816093"/>
      <point x="203.70114942528735" y="570.4597701149426"/>
      <point x="203.70114942528735" y="688.3218390804598" type="curve" smooth="yes"/>
      <point x="203.70114942528735" y="850.3448275862069"/>
      <point x="331.2413793103448" y="919.9310344827586"/>
      <point x="484.367816091954" y="922.6666666666666" type="curve"/>
      <point x="601.9540229885057" y="916.6666666666666"/>
      <point x="759.9770114942529" y="854.3448275862069"/>
      <point x="759.9770114942529" y="679.5862068965517" type="curve" smooth="yes"/>
      <point x="759.9770114942529" y="484.3448275862069"/>
      <point x="586.1149425287357" y="442.71264367816093"/>
    </contour>
  </outline>
</glyph>
<glyph name="h" format="2">
  <advance width="1141.0526315789475"/>
  <unicode hex="0068"/>
  <guideline x="106.21052631578947" y="732.0105263157894" angle="4.470799999999997"/>
  <anchor x="580.1894736842106" y="0.0" name="bottom"/>
  <anchor x="580.1894736842106" y="818.0" name="center"/>
  <anchor x="544.1684210526316" y="1447.6842105263158" name="top"/>
  <outline>
    <contour>
      <point x="190.5263157894737" y="0.0" type="curve"/>
      <point x="298.08421052631576" y="0.0" type="line"/>
      <point x="295.24210526315784" y="148.98947368421054"/>
      <point x="292.40000000000003" y="278.14736842105265"/>
      <point x="289.5578947368421" y="438.46315789473687" type="curve"/>
      <point x="289.5578947368421" y="691.8947368421052" type="line"/>
      <point x="416.12631578947367" y="822.1263157894737"/>
      <point x="567.0315789473684" y="918.0631578947368"/>
      <point x="646.6315789473683" y="918.0631578947368" type="curve" smooth="yes"/>
      <point x="821.0105263157894" y="918.0631578947368"/>
      <point x="877.3052631578947" y="822.2736842105263"/>
      <point x="877.3052631578947" y="637.1789473684211" type="curve"/>
      <point x="877.3052631578947" y="438.46315789473687" type="line"/>
      <point x="874.6315789473684" y="278.1473684210526"/>
      <point x="873.7894736842105" y="148.98947368421054"/>
      <point x="871.1157894736842" y="0.0" type="curve"/>
      <point x="978.3368421052631" y="0.0" type="line"/>
      <point x="975.4947368421053" y="148.98947368421054"/>
      <point x="972.6526315789473" y="278.1473684210526"/>
      <point x="969.6421052631579" y="440.65263157894736" type="curve"/>
      <point x="969.6421052631579" y="494.8421052631579"/>
      <point x="972.3157894736843" y="568.3578947368421"/>
      <point x="972.3157894736843" y="654.5263157894736" type="curve" smooth="yes"/>
      <point x="972.3157894736843" y="883.5368421052632"/>
      <point x="885.1157894736842" y="1010.3578947368421"/>
      <point x="665.6421052631579" y="1010.3578947368421" type="curve" smooth="yes"/>
      <point x="550.6947368421053" y="1010.3578947368421"/>
      <point x="386.58947368421053" y="882.7578947368421"/>
      <point x="303.41052631578947" y="806.0842105263159" type="curve"/>
      <point x="289.5578947368421" y="806.0842105263159" type="line"/>
      <point x="289.5578947368421" y="987.8315789473684" type="line"/>
      <point x="292.90526315789475" y="1159.6842105263158"/>
      <point x="296.08421052631576" y="1318.863157894737"/>
      <point x="299.09473684210525" y="1482.021052631579" type="curve"/>
      <point x="180.33684210526317" y="1458.5052631578947" type="line"/>
      <point x="186.18947368421053" y="1312.6526315789474"/>
      <point x="191.8736842105263" y="1156.821052631579"/>
      <point x="197.22105263157894" y="987.8315789473684" type="curve"/>
      <point x="197.22105263157894" y="440.65263157894736" type="line"/>
      <point x="194.21052631578948" y="278.14736842105265"/>
      <point x="193.3684210526316" y="149.1578947368421"/>
    </contour>
  </outline>
</glyph>
<glyph name="k" format="2">
  <advance width="1049.0105263157895"/>
  <unicode hex="006B"/>
  <anchor x="542.0631578947368" y="0.0" name="bottom"/>
  <anchor x="542.0631578947368" y="1447.6842105263158" name="top"/>
  <outline>
    <contour>
      <point x="856.4842105263158" y="0.0" type="curve"/>
      <point x="1007.0736842105263" y="0.0" type="line"/>
      <point x="870.1263157894738" y="115.01052631578948"/>
      <point x="736.6736842105263" y="228.3578947368421"/>
      <point x="599.7263157894737" y="343.36842105263156" type="curve"/>
      <point x="385.4526315789474" y="528.4421052631579" type="line"/>
      <point x="387.30526315789473" y="477.6421052631579" type="line"/>
      <point x="574.2315789473683" y="644.9894736842106" type="line"/>
      <point x="707.5157894736842" y="759.8315789473684"/>
      <point x="833.4736842105262" y="872.6736842105264"/>
      <point x="968.7578947368421" y="989.3473684210526" type="curve"/>
      <point x="824.6947368421053" y="989.3473684210526" type="line"/>
      <point x="720.4421052631579" y="892.8631578947368"/>
      <point x="614.5263157894736" y="794.7157894736843"/>
      <point x="510.2736842105263" y="698.2315789473685" type="curve"/>
      <point x="335.7263157894737" y="540.7578947368421" type="line"/>
      <point x="274.0421052631579" y="540.7578947368421" type="line"/>
      <point x="274.0421052631579" y="465.5578947368421" type="line"/>
      <point x="322.90526315789475" y="465.5578947368421" type="line"/>
      <point x="533.9157894736842" y="287.4315789473684" type="line"/>
      <point x="641.4947368421052" y="191.62105263157895"/>
      <point x="749.0736842105264" y="95.81052631578947"/>
    </contour>
    <contour>
      <point x="190.5263157894737" y="0.0" type="curve"/>
      <point x="298.08421052631576" y="0.0" type="line"/>
      <point x="295.24210526315784" y="146.96842105263158"/>
      <point x="292.40000000000003" y="274.4421052631579"/>
      <point x="289.5578947368421" y="432.7368421052632" type="curve"/>
      <point x="289.5578947368421" y="987.8315789473684" type="line"/>
      <point x="292.90526315789475" y="1159.6842105263158"/>
      <point x="296.08421052631576" y="1318.863157894737"/>
      <point x="299.09473684210525" y="1482.021052631579" type="curve"/>
      <point x="180.33684210526317" y="1458.5052631578947" type="line"/>
      <point x="186.18947368421053" y="1312.6526315789474"/>
      <point x="191.8736842105263" y="1156.821052631579"/>
      <point x="197.22105263157894" y="987.8315789473684" type="curve"/>
      <point x="197.22105263157894" y="440.65263157894736" type="line"/>
      <point x="194.21052631578948" y="278.14736842105265"/>
      <point x="193.3684210526316" y="149.1578947368421"/>
    </contour>
  </outline>
</glyph>
<glyph name="m" format="2">
  <advance width="1756.3578947368421"/>
  <unicode hex="006D"/>
  <anchor x="901.4947368421052" y="0.0" name="bottom"/>
  <anchor x="901.4947368421052" y="989.3473684210526" name="top"/>
  <outline>
    <contour>
      <point x="202.18947368421053" y="0.0" type="curve"/>
      <point x="309.7473684210526" y="0.0" type="line"/>
      <point x="306.9052631578947" y="148.98947368421054"/>
      <point x="304.06315789473683" y="278.14736842105265"/>
      <point x="301.2210526315789" y="438.46315789473687" type="curve"/>
      <point x="301.2210526315789" y="691.8947368421052" type="line"/>
      <point x="427.7894736842105" y="822.1263157894737"/>
      <point x="560.042105263158" y="918.0631578947368"/>
      <point x="637.9789473684211" y="918.0631578947368" type="curve" smooth="yes"/>
      <point x="802.6947368421053" y="918.0631578947368"/>
      <point x="855.3263157894737" y="822.2736842105263"/>
      <point x="855.3263157894737" y="637.1789473684211" type="curve"/>
      <point x="855.3263157894737" y="438.46315789473687" type="line"/>
      <point x="852.6526315789474" y="278.1473684210526"/>
      <point x="851.8105263157895" y="148.98947368421054"/>
      <point x="849.1368421052632" y="0.0" type="curve"/>
      <point x="956.3578947368421" y="0.0" type="line"/>
      <point x="953.5157894736842" y="148.98947368421054"/>
      <point x="950.6736842105263" y="278.1473684210526"/>
      <point x="947.6631578947369" y="440.65263157894736" type="curve"/>
      <point x="947.6631578947369" y="494.8421052631579"/>
      <point x="950.3368421052631" y="568.3578947368421"/>
      <point x="950.3368421052631" y="654.5263157894736" type="curve" smooth="yes"/>
      <point x="950.3368421052631" y="693.7052631578947"/>
      <point x="948.0" y="728.8842105263158"/>
      <point x="941.6631578947369" y="763.3894736842104" type="curve"/>
      <point x="936.8000000000001" y="770.7157894736841" type="line"/>
      <point x="911.6210526315789" y="927.7052631578948"/>
      <point x="823.1157894736842" y="1010.3578947368421"/>
      <point x="658.6526315789474" y="1010.3578947368421" type="curve" smooth="yes"/>
      <point x="543.0315789473684" y="1010.3578947368421"/>
      <point x="395.3894736842105" y="882.2526315789473"/>
      <point x="310.35789473684207" y="805.0736842105263" type="curve"/>
      <point x="296.5052631578947" y="805.0736842105263" type="line"/>
      <point x="283.8315789473685" y="996.5263157894736" type="line"/>
      <point x="187.5157894736842" y="989.3473684210526" type="line"/>
      <point x="194.86315789473687" y="881.957894736842"/>
      <point x="203.70526315789473" y="771.9157894736842"/>
      <point x="208.8842105263158" y="670.6947368421053" type="curve"/>
      <point x="208.8842105263158" y="440.65263157894736" type="line"/>
      <point x="205.87368421052633" y="278.14736842105265"/>
      <point x="205.03157894736842" y="149.1578947368421"/>
    </contour>
    <contour>
      <point x="1486.421052631579" y="0.0" type="curve"/>
      <point x="1593.642105263158" y="0.0" type="line"/>
      <point x="1590.8" y="148.98947368421054"/>
      <point x="1587.9578947368423" y="278.1473684210526"/>
      <point x="1584.9473684210527" y="440.65263157894736" type="curve"/>
      <point x="1584.9473684210527" y="494.8421052631579"/>
      <point x="1587.621052631579" y="568.3578947368421"/>
      <point x="1587.621052631579" y="654.5263157894736" type="curve" smooth="yes"/>
      <point x="1587.621052631579" y="883.5368421052632"/>
      <point x="1500.421052631579" y="1010.3578947368421"/>
      <point x="1295.9368421052632" y="1010.3578947368421" type="curve" smooth="yes"/>
      <point x="1180.1473684210525" y="1010.3578947368421"/>
      <point x="1032.1684210526314" y="885.7473684210527"/>
      <point x="941.4736842105262" y="799.0736842105263" type="curve"/>
      <point x="927.2842105263159" y="799.0736842105263" type="line"/>
      <point x="938.3368421052631" y="691.8947368421052" type="line"/>
      <point x="1064.9052631578948" y="822.1263157894737"/>
      <point x="1197.3263157894737" y="918.0631578947368"/>
      <point x="1275.2631578947369" y="918.0631578947368" type="curve" smooth="yes"/>
      <point x="1439.9789473684211" y="918.0631578947368"/>
      <point x="1492.6105263157895" y="822.2736842105263"/>
      <point x="1492.6105263157895" y="637.1789473684211" type="curve"/>
      <point x="1492.6105263157895" y="438.46315789473687" type="line"/>
      <point x="1489.9368421052632" y="278.1473684210526"/>
      <point x="1489.0947368421052" y="148.98947368421054"/>
    </contour>
  </outline>
</glyph>
<glyph name="o" format="2">
  <advance width="1194.1684210526316"/>
  <unicode hex="006F"/>
  <anchor x="596.1684210526316" y="0.0" name="bottom"/>
  <anchor x="596.1684210526316" y="494.6736842105263" name="center"/>
  <anchor x="733.0736842105263" y="0.0" name="ogonek"/>
  <anchor x="596.1684210526316" y="989.3473684210526" name="top"/>
  <anchor x="1072.6315789473683" y="989.3473684210526" name="topright"/>
  <outline>
    <contour>
      <point x="600.3368421052631" y="-19.178947368421053" type="curve" smooth="yes"/>
      <point x="887.5789473684212" y="-19.178947368421053"/>
      <point x="1077.578947368421" y="210.4842105263158"/>
      <point x="1077.578947368421" y="502.0" type="curve" smooth="yes"/>
      <point x="1077.578947368421" y="790.8421052631579"/>
      <point x="896.2526315789473" y="1010.3578947368421"/>
      <point x="599.4947368421052" y="1010.3578947368421" type="curve" smooth="yes"/>
      <point x="310.90526315789475" y="1010.3578947368421"/>
      <point x="116.58947368421053" y="798.3368421052631"/>
      <point x="116.58947368421053" y="502.0" type="curve" smooth="yes"/>
      <point x="116.58947368421053" y="225.66315789473686"/>
      <point x="291.57894736842104" y="-19.178947368421053"/>
    </contour>
    <contour>
      <point x="600.1684210526316" y="69.2421052631579" type="curve"/>
      <point x="334.3578947368421" y="75.41052631578947"/>
      <point x="211.43157894736842" y="279.2842105263158"/>
      <point x="211.43157894736842" y="502.0" type="curve" smooth="yes"/>
      <point x="211.43157894736842" y="736.0421052631579"/>
      <point x="341.3473684210526" y="915.6"/>
      <point x="600.1684210526316" y="921.9368421052632" type="curve"/>
      <point x="842.5052631578947" y="915.0947368421052"/>
      <point x="982.7368421052631" y="750.6947368421053"/>
      <point x="982.7368421052631" y="502.0" type="curve" smooth="yes"/>
      <point x="982.7368421052631" y="278.77894736842103"/>
      <point x="863.978947368421" y="75.41052631578947"/>
    </contour>
  </outline>
</glyph>
<glyph name="p" format="2">
  <advance width="1193.0105263157895"/>
  <unicode hex="0070"/>
  <outline>
    <contour>
      <point x="200.3578947368421" y="-388.6736842105263" type="curve"/>
      <point x="310.58947368421053" y="-384.0" type="line"/>
      <point x="307.41052631578947" y="-235.01052631578946"/>
      <point x="304.56842105263155" y="-105.85263157894737"/>
      <point x="301.2210526315789" y="54.463157894736845" type="curve"/>
      <point x="301.2210526315789" y="136.61052631578949" type="line"/>
      <point x="314.0631578947369" y="136.61052631578949" type="line"/>
      <point x="414.5684210526316" y="52.77894736842105"/>
      <point x="546.8421052631578" y="-19.178947368421053"/>
      <point x="639.6421052631579" y="-19.178947368421053" type="curve" smooth="yes"/>
      <point x="929.1157894736842" y="-19.178947368421053"/>
      <point x="1076.0842105263157" y="220.33684210526314"/>
      <point x="1076.0842105263157" y="498.33684210526314" type="curve" smooth="yes"/>
      <point x="1076.0842105263157" y="792.6736842105263"/>
      <point x="911.957894736842" y="1010.3578947368421"/>
      <point x="635.8105263157895" y="1010.3578947368421" type="curve" smooth="yes"/>
      <point x="521.2" y="1010.3578947368421"/>
      <point x="401.8736842105263" y="930.2105263157894"/>
      <point x="307.87368421052633" y="858.6947368421053" type="curve"/>
      <point x="294.18947368421055" y="858.6947368421053" type="line"/>
      <point x="285.17894736842106" y="996.5263157894736" type="line"/>
      <point x="187.5157894736842" y="989.3473684210526" type="line"/>
      <point x="194.86315789473687" y="881.957894736842"/>
      <point x="203.70526315789473" y="771.9157894736842"/>
      <point x="208.8842105263158" y="670.6947368421053" type="curve"/>
      <point x="208.8842105263158" y="56.65263157894737" type="line"/>
      <point x="205.87368421052633" y="-105.85263157894737"/>
      <point x="203.2" y="-239.68421052631578"/>
    </contour>
    <contour>
      <point x="624.3157894736842" y="70.58947368421053" type="curve"/>
      <point x="521.5578947368421" y="74.7578947368421"/>
      <point x="392.4842105263158" y="157.0315789473684"/>
      <point x="301.2210526315789" y="245.64210526315787" type="curve"/>
      <point x="301.2210526315789" y="755.8736842105263" type="line"/>
      <point x="410.8" y="861.621052631579"/>
      <point x="539.7052631578947" y="917.7473684210527"/>
      <point x="620.6526315789473" y="920.0842105263158" type="curve"/>
      <point x="865.6421052631579" y="914.0842105263158"/>
      <point x="981.0736842105263" y="730.5263157894736"/>
      <point x="981.0736842105263" y="498.0" type="curve" smooth="yes"/>
      <point x="981.0736842105263" y="275.13684210526316"/>
      <point x="874.9684210526316" y="76.58947368421053"/>
    </contour>
  </outline>
</glyph>
<glyph name="q" format="2">
  <advance width="1172.673684210526"/>
  <unicode hex="0071"/>
  <outline>
    <contour>
      <point x="883.2631578947369" y="-388.6736842105263" type="curve"/>
      <point x="992.6526315789473" y="-384.0" type="line"/>
      <point x="989.8105263157894" y="-234.8421052631579"/>
      <point x="987.1368421052631" y="-105.85263157894737"/>
      <point x="984.1263157894737" y="56.65263157894737" type="curve"/>
      <point x="984.1263157894737" y="670.6947368421053" type="line"/>
      <point x="989.1368421052631" y="774.2526315789474"/>
      <point x="997.6421052631579" y="886.8000000000001"/>
      <point x="1004.6526315789473" y="996.5263157894736" type="curve"/>
      <point x="907.8315789473684" y="989.3473684210526" type="line"/>
      <point x="898.8210526315789" y="858.6947368421053" type="line"/>
      <point x="885.1368421052632" y="858.6947368421053" type="line"/>
      <point x="791.1368421052632" y="930.2105263157895"/>
      <point x="671.8105263157895" y="1010.3578947368421"/>
      <point x="557.2" y="1010.3578947368421" type="curve" smooth="yes"/>
      <point x="281.05263157894734" y="1010.3578947368421"/>
      <point x="116.92631578947369" y="792.6736842105263"/>
      <point x="116.92631578947369" y="498.33684210526314" type="curve" smooth="yes"/>
      <point x="116.92631578947369" y="220.33684210526314"/>
      <point x="263.89473684210526" y="-19.178947368421053"/>
      <point x="553.3684210526316" y="-19.178947368421053" type="curve" smooth="yes"/>
      <point x="646.1684210526316" y="-19.178947368421053"/>
      <point x="778.4421052631579" y="52.77894736842105"/>
      <point x="878.9473684210526" y="136.61052631578949" type="curve"/>
      <point x="891.7894736842105" y="136.61052631578949" type="line"/>
      <point x="891.7894736842105" y="54.463157894736845" type="line"/>
      <point x="888.9473684210526" y="-105.85263157894737"/>
      <point x="886.1052631578947" y="-239.68421052631578"/>
    </contour>
    <contour>
      <point x="568.6947368421053" y="70.58947368421053" type="curve"/>
      <point x="318.0421052631579" y="76.58947368421053"/>
      <point x="211.93684210526317" y="275.13684210526316"/>
      <point x="211.93684210526317" y="498.0" type="curve" smooth="yes"/>
      <point x="211.93684210526317" y="730.5263157894736"/>
      <point x="327.36842105263156" y="914.0842105263158"/>
      <point x="572.3578947368421" y="920.0842105263158" type="curve"/>
      <point x="653.3052631578947" y="917.7473684210527"/>
      <point x="782.2105263157895" y="861.621052631579"/>
      <point x="891.7894736842105" y="755.8736842105263" type="curve"/>
      <point x="891.7894736842105" y="245.64210526315787" type="line"/>
      <point x="800.5263157894736" y="157.0315789473684"/>
      <point x="671.4526315789474" y="74.7578947368421"/>
    </contour>
  </outline>
</glyph>
<glyph name="r" format="2">
  <advance width="795.4105263157894"/>
  <unicode hex="0072"/>
  <anchor x="244.37894736842105" y="0.0" name="bottom"/>
  <anchor x="464.8421052631579" y="989.3473684210526" name="top"/>
  <outline>
    <contour>
      <point x="202.18947368421053" y="0.0" type="curve"/>
      <point x="309.7473684210526" y="0.0" type="line"/>
      <point x="306.9052631578947" y="148.98947368421054"/>
      <point x="304.06315789473683" y="278.14736842105265"/>
      <point x="301.2210526315789" y="438.46315789473687" type="curve"/>
      <point x="301.2210526315789" y="664.0421052631579" type="line"/>
      <point x="467.6" y="855.2210526315789"/>
      <point x="550.9263157894737" y="914.1894736842105"/>
      <point x="616.5473684210526" y="914.1894736842105" type="curve" smooth="yes"/>
      <point x="630.378947368421" y="914.1894736842105"/>
      <point x="677.3894736842104" y="902.021052631579"/>
      <point x="730.0842105263158" y="889.3473684210527" type="curve"/>
      <point x="738.778947368421" y="995.8526315789474" type="line"/>
      <point x="702.9473684210526" y="1002.3578947368421"/>
      <point x="644.2947368421052" y="1010.3578947368421"/>
      <point x="622.2947368421053" y="1010.3578947368421" type="curve" smooth="yes"/>
      <point x="548.4842105263158" y="1010.3578947368421"/>
      <point x="450.5052631578948" y="948.5473684210526"/>
      <point x="304.86315789473684" y="781.2631578947369" type="curve"/>
      <point x="292.8421052631579" y="781.2631578947369" type="line"/>
      <point x="282.00000000000006" y="996.5263157894736" type="line"/>
      <point x="187.5157894736842" y="989.3473684210526" type="line"/>
      <point x="194.86315789473687" y="881.957894736842"/>
      <point x="203.70526315789473" y="771.9157894736842"/>
      <point x="208.8842105263158" y="670.6947368421053" type="curve"/>
      <point x="208.8842105263158" y="440.65263157894736" type="line"/>
      <point x="205.87368421052633" y="278.14736842105265"/>
      <point x="205.03157894736842" y="149.1578947368421"/>
    </contour>
  </outline>
</glyph>
<glyph name="u" format="2">
  <advance width="1105.7473684210527"/>
  <unicode hex="0075"/>
  <anchor x="552.8631578947368" y="0.0" name="bottom"/>
  <anchor x="941.0105263157894" y="0.0" name="ogonek"/>
  <anchor x="552.8631578947368" y="989.3473684210526" name="top"/>
  <anchor x="1045.6" y="989.3473684210526" name="topright"/>
  <outline>
    <contour>
      <point x="474.2315789473684" y="-19.178947368421053" type="curve" smooth="yes"/>
      <point x="583.2210526315789" y="-19.178947368421053"/>
      <point x="748.8421052631579" y="109.09473684210526"/>
      <point x="831.1789473684211" y="187.78947368421055" type="curve"/>
      <point x="845.0315789473684" y="187.78947368421055" type="line"/>
      <point x="852.2105263157895" y="0.0" type="line"/>
      <point x="942.0210526315789" y="0.0" type="line"/>
      <point x="939.178947368421" y="149.1578947368421"/>
      <point x="936.5052631578947" y="278.14736842105265"/>
      <point x="933.4947368421052" y="440.65263157894736" type="curve"/>
      <point x="933.4947368421052" y="542.3368421052631" type="line"/>
      <point x="936.6736842105263" y="709.3684210526316"/>
      <point x="939.5157894736842" y="838.5263157894738"/>
      <point x="942.3578947368421" y="989.3473684210526" type="curve"/>
      <point x="832.9684210526316" y="989.3473684210526" type="line"/>
      <point x="835.8105263157894" y="840.3578947368421"/>
      <point x="838.4842105263158" y="709.3684210526316"/>
      <point x="841.1578947368421" y="547.3894736842105" type="curve"/>
      <point x="841.1578947368421" y="298.4421052631579" type="line"/>
      <point x="714.7578947368421" y="168.21052631578948"/>
      <point x="564.3578947368421" y="72.27368421052631"/>
      <point x="493.2421052631579" y="72.27368421052631" type="curve" smooth="yes"/>
      <point x="318.86315789473684" y="72.27368421052631"/>
      <point x="262.56842105263155" y="168.06315789473686"/>
      <point x="262.56842105263155" y="353.1578947368421" type="curve"/>
      <point x="262.56842105263155" y="547.3894736842105" type="line"/>
      <point x="265.24210526315784" y="711.2"/>
      <point x="267.9157894736842" y="843.2"/>
      <point x="270.58947368421053" y="994.021052631579" type="curve"/>
      <point x="161.3684210526316" y="989.3473684210526" type="line"/>
      <point x="164.37894736842105" y="840.3578947368421"/>
      <point x="167.05263157894734" y="709.3684210526314"/>
      <point x="170.2315789473684" y="542.3368421052631" type="curve"/>
      <point x="170.2315789473684" y="482.65263157894736"/>
      <point x="167.89473684210526" y="422.82105263157894"/>
      <point x="167.89473684210526" y="336.65263157894736" type="curve" smooth="yes"/>
      <point x="167.89473684210526" y="107.6421052631579"/>
      <point x="254.7578947368421" y="-19.178947368421053"/>
    </contour>
  </outline>
</glyph>
<glyph name="v" format="2">
  <advance width="1006.6526315789474"/>
  <unicode hex="0076"/>
  <outline>
    <contour>
      <point x="439.89473684210526" y="0.0" type="curve"/>
      <point x="563.2631578947369" y="0.0" type="line"/>
      <point x="610.2526315789474" y="124.16842105263157"/>
      <point x="655.2421052631579" y="246.33684210526317"/>
      <point x="700.4" y="370.6736842105263" type="curve"/>
      <point x="767.7263157894737" y="547.0105263157894" type="line"/>
      <point x="827.5578947368421" y="693.1789473684211"/>
      <point x="885.5578947368422" y="839.5157894736842"/>
      <point x="947.0526315789473" y="989.3473684210526" type="curve"/>
      <point x="832.5052631578947" y="989.3473684210526" type="line"/>
      <point x="767.5578947368421" y="810.7578947368421"/>
      <point x="704.4421052631579" y="634.8210526315789"/>
      <point x="637.6631578947369" y="451.38947368421054" type="curve"/>
      <point x="508.7578947368421" y="104.18947368421053" type="line"/>
      <point x="495.0736842105263" y="104.18947368421053" type="line"/>
      <point x="366.1684210526316" y="451.38947368421054" type="line"/>
      <point x="299.3894736842105" y="634.8210526315789"/>
      <point x="237.93684210526317" y="808.9263157894737"/>
      <point x="171.32631578947368" y="994.021052631579" type="curve"/>
      <point x="59.6" y="989.3473684210526" type="line"/>
      <point x="117.60000000000001" y="845.0105263157894"/>
      <point x="175.59999999999997" y="695.0105263157894"/>
      <point x="233.6" y="550.6736842105263" type="curve"/>
      <point x="300.9263157894737" y="374.5052631578947" type="line"/>
      <point x="346.0842105263158" y="253.83157894736843"/>
      <point x="392.90526315789475" y="124.33684210526314"/>
    </contour>
  </outline>
</glyph>
<glyph name="w" format="2">
  <advance width="1583.4736842105262"/>
  <unicode hex="0077"/>
  <anchor x="794.2315789473685" y="0.0" name="bottom"/>
  <anchor x="794.2315789473685" y="989.3473684210526" name="top"/>
  <outline>
    <contour>
      <point x="396.06315789473683" y="0.0" type="curve"/>
      <point x="518.9263157894737" y="0.0" type="line"/>
      <point x="572.5473684210527" y="173.74736842105264"/>
      <point x="630.0" y="362.82105263157894"/>
      <point x="679.9578947368421" y="525.4105263157895" type="curve"/>
      <point x="782.7157894736843" y="852.0842105263158" type="line"/>
      <point x="796.0631578947368" y="852.0842105263158" type="line"/>
      <point x="898.9894736842106" y="529.2421052631579" type="line"/>
      <point x="951.1157894736841" y="362.9894736842105"/>
      <point x="1012.3999999999999" y="171.9157894736842"/>
      <point x="1066.3578947368421" y="0.0" type="curve"/>
      <point x="1192.9052631578948" y="0.0" type="line"/>
      <point x="1232.0631578947368" y="122.0"/>
      <point x="1271.3894736842105" y="248.50526315789472"/>
      <point x="1312.5473684210526" y="378.5052631578947" type="curve"/>
      <point x="1370.2105263157894" y="552.6736842105263" type="line"/>
      <point x="1420.3789473684212" y="697.0105263157894"/>
      <point x="1472.378947368421" y="843.0105263157894"/>
      <point x="1524.5473684210526" y="989.3473684210526" type="curve"/>
      <point x="1410.821052631579" y="989.3473684210526" type="line"/>
      <point x="1360.8631578947368" y="828.9052631578948"/>
      <point x="1299.9157894736843" y="629.8105263157894"/>
      <point x="1244.2947368421053" y="452.0421052631579" type="curve"/>
      <point x="1133.8736842105263" y="104.16842105263157" type="line"/>
      <point x="1122.1894736842105" y="104.16842105263157" type="line"/>
      <point x="1011.7684210526315" y="449.87368421052633" type="line"/>
      <point x="955.978947368421" y="631.4736842105264"/>
      <point x="898.3578947368421" y="815.4105263157895"/>
      <point x="844.4" y="989.3473684210526" type="curve"/>
      <point x="738.2526315789473" y="989.3473684210526" type="line"/>
      <point x="682.4631578947369" y="805.9157894736842"/>
      <point x="626.6736842105263" y="624.3157894736842"/>
      <point x="572.7157894736843" y="446.2105263157895" type="curve"/>
      <point x="465.9578947368421" y="104.16842105263157" type="line"/>
      <point x="454.2736842105263" y="104.16842105263157" type="line"/>
      <point x="345.5157894736842" y="437.05263157894734" type="line"/>
      <point x="289.7263157894737" y="614.9894736842106"/>
      <point x="226.61052631578946" y="816.0842105263158"/>
      <point x="170.82105263157897" y="994.021052631579" type="curve"/>
      <point x="58.92631578947368" y="989.3473684210526" type="line"/>
      <point x="111.09473684210528" y="841.1789473684211"/>
      <point x="161.26315789473685" y="699.0105263157894"/>
      <point x="213.43157894736842" y="552.6736842105263" type="curve"/>
      <point x="272.7578947368421" y="376.5052631578947" type="line"/>
      <point x="313.91578947368424" y="250.1684210526316"/>
      <point x="354.90526315789475" y="124.16842105263157"/>
    </contour>
  </outline>
</glyph>
<glyph name="x" format="2">
  <advance width="1037.3473684210526"/>
  <unicode hex="0078"/>
  <outline>
    <contour>
      <point x="64.10526315789474" y="0.0" type="curve"/>
      <point x="189.32631578947368" y="0.0" type="line"/>
      <point x="255.93684210526317" y="95.30526315789474"/>
      <point x="304.06315789473683" y="164.94736842105263"/>
      <point x="370.6736842105263" y="260.0842105263158" type="curve"/>
      <point x="501.2421052631579" y="440.5263157894737" type="line"/>
      <point x="512.5894736842106" y="440.5263157894737" type="line"/>
      <point x="656.4842105263158" y="252.0842105263158" type="line"/>
      <point x="725.0947368421051" y="161.1157894736842"/>
      <point x="778.8842105263159" y="87.47368421052632"/>
      <point x="843.8315789473685" y="0.0" type="curve"/>
      <point x="974.0842105263158" y="0.0" type="line"/>
      <point x="871.2631578947369" y="126.8421052631579"/>
      <point x="807.9368421052632" y="205.5157894736842"/>
      <point x="732.7789473684211" y="298.18947368421055" type="curve"/>
      <point x="557.8105263157895" y="524.0421052631579" type="line"/>
      <point x="561.6631578947369" y="491.1578947368421" type="line"/>
      <point x="717.1368421052632" y="702.0" type="line"/>
      <point x="792.1263157894738" y="800.5052631578948"/>
      <point x="839.6210526315789" y="860.8421052631579"/>
      <point x="938.2736842105263" y="989.3473684210526" type="curve"/>
      <point x="811.0526315789474" y="989.3473684210526" type="line"/>
      <point x="744.2736842105262" y="893.8736842105263"/>
      <point x="695.9789473684209" y="823.8947368421053"/>
      <point x="634.5263157894736" y="735.9157894736842" type="curve"/>
      <point x="510.94736842105266" y="564.9684210526316" type="line"/>
      <point x="501.09473684210525" y="564.9684210526316" type="line"/>
      <point x="377.17894736842106" y="734.421052631579" type="line"/>
      <point x="315.7263157894737" y="822.0631578947367"/>
      <point x="265.2631578947368" y="893.0526315789473"/>
      <point x="194.4842105263158" y="994.021052631579" type="curve"/>
      <point x="70.58947368421053" y="989.3473684210526" type="line"/>
      <point x="166.90526315789472" y="865.1789473684211"/>
      <point x="222.2315789473684" y="792.6736842105264"/>
      <point x="298.88421052631577" y="694.5052631578948" type="curve"/>
      <point x="453.5157894736842" y="483.8315789473684" type="line"/>
      <point x="451.6842105263158" y="520.3789473684211" type="line"/>
      <point x="291.89473684210526" y="300.5263157894737" type="line"/>
      <point x="217.2421052631579" y="201.68421052631578"/>
      <point x="162.42105263157893" y="129.34736842105264"/>
    </contour>
  </outline>
</glyph>
<glyph name="z" format="2">
  <advance width="973.0947368421052"/>
  <unicode hex="007A"/>
  <anchor x="482.7157894736842" y="0.0" name="bottom"/>
  <anchor x="482.7157894736842" y="494.6736842105263" name="center"/>
  <anchor x="482.7157894736842" y="989.3473684210526" name="top"/>
  <outline>
    <contour>
      <point x="84.63157894736842" y="0.0" type="line"/>
      <point x="895.7894736842105" y="0.0" type="line"/>
      <point x="895.7894736842105" y="87.93684210526315" type="line"/>
      <point x="751.3263157894737" y="84.58947368421052"/>
      <point x="557.5578947368421" y="81.07368421052631"/>
      <point x="441.09473684210525" y="78.23157894736842" type="curve"/>
      <point x="182.67368421052632" y="78.23157894736842" type="line"/>
      <point x="195.53684210526316" y="53.83157894736842" type="line"/>
      <point x="541.7263157894737" y="507.4736842105263" type="line"/>
      <point x="648.3578947368421" y="643.7473684210527"/>
      <point x="778.3157894736842" y="810.6736842105264"/>
      <point x="862.4631578947368" y="918.9684210526316" type="curve"/>
      <point x="862.4631578947368" y="989.3473684210526" type="line"/>
      <point x="85.81052631578947" y="989.3473684210526" type="line"/>
      <point x="85.81052631578947" y="900.5684210526315" type="line"/>
      <point x="239.76842105263157" y="904.0842105263158"/>
      <point x="438.0421052631579" y="907.9368421052632"/>
      <point x="552.8421052631579" y="910.9473684210526" type="curve"/>
      <point x="786.4421052631579" y="910.9473684210526" type="line"/>
      <point x="769.0736842105263" y="953.1789473684211" type="line"/>
      <point x="423.0315789473684" y="498.8421052631579" type="line"/>
      <point x="321.8947368421053" y="369.72631578947374"/>
      <point x="205.4315789473684" y="219.78947368421052"/>
      <point x="84.63157894736842" y="63.68421052631579" type="curve"/>
    </contour>
  </outline>
</glyph>
<glyph name="braceleft" format="2">
  <advance width="763.8736842105263"/>
  <unicode hex="007B"/>
  <outline>
    <contour>
      <point x="580.1052631578947" y="-227.03157894736842" type="curve" smooth="yes"/>
      <point x="740.5052631578948" y="-227.03157894736842" type="line"/>
      <point x="740.5052631578948" y="-140.2736842105263" type="line"/>
      <point x="690.8210526315789" y="-140.61052631578949"/>
      <point x="620.3368421052631" y="-142.77894736842106"/>
      <point x="586.3368421052631" y="-142.94736842105263" type="curve"/>
      <point x="445.2421052631579" y="-140.4421052631579"/>
      <point x="375.2842105263158" y="-79.13684210526316"/>
      <point x="374.9473684210526" y="40.652631578947364" type="curve" smooth="yes"/>
      <point x="371.7684210526316" y="482.6315789473684" type="line" smooth="yes"/>
      <point x="371.59999999999997" y="500.1473684210526"/>
      <point x="279.7473684210526" y="601.8105263157895"/>
      <point x="232.0421052631579" y="641.6631578947369" type="curve"/>
      <point x="232.0421052631579" y="655.1789473684211" type="line"/>
      <point x="279.7473684210526" y="693.3684210526316"/>
      <point x="371.59999999999997" y="796.1894736842105"/>
      <point x="371.7684210526316" y="812.3789473684211" type="curve" smooth="yes"/>
      <point x="374.9473684210526" y="1256.1894736842105" type="line" smooth="yes"/>
      <point x="375.2842105263158" y="1375.9789473684211"/>
      <point x="445.2421052631579" y="1437.2842105263157"/>
      <point x="586.3368421052631" y="1439.7894736842106" type="curve"/>
      <point x="622.1684210526316" y="1439.621052631579"/>
      <point x="694.3157894736842" y="1437.4526315789474"/>
      <point x="739.6631578947369" y="1437.1157894736843" type="curve"/>
      <point x="739.6631578947369" y="1523.8736842105263" type="line"/>
      <point x="580.1052631578947" y="1523.8736842105263" type="line" smooth="yes"/>
      <point x="394.5263157894737" y="1523.8736842105263"/>
      <point x="279.13684210526316" y="1430.1684210526316"/>
      <point x="279.13684210526316" y="1263.4315789473685" type="curve"/>
      <point x="279.13684210526316" y="1244.2736842105262"/>
      <point x="281.9789473684211" y="916.8842105263159"/>
      <point x="281.9789473684211" y="897.7263157894737" type="curve"/>
      <point x="281.9789473684211" y="779.4105263157895"/>
      <point x="173.70526315789473" y="686.9473684210526"/>
      <point x="99.03157894736842" y="686.9473684210526" type="curve" smooth="yes"/>
      <point x="21.684210526315788" y="686.9473684210526" type="line"/>
      <point x="21.684210526315788" y="608.0631578947368" type="line"/>
      <point x="99.03157894736842" y="608.0631578947368" type="line" smooth="yes"/>
      <point x="173.70526315789473" y="608.0631578947368"/>
      <point x="281.9789473684211" y="515.6"/>
      <point x="281.9789473684211" y="397.2842105263158" type="curve"/>
      <point x="281.9789473684211" y="378.1263157894737"/>
      <point x="279.13684210526316" y="52.56842105263159"/>
      <point x="279.13684210526316" y="33.410526315789475" type="curve"/>
      <point x="279.13684210526316" y="-133.32631578947368"/>
      <point x="394.5263157894737" y="-227.03157894736842"/>
    </contour>
  </outline>
</glyph>
<glyph name="bar" format="2">
  <advance width="508.7578947368421"/>
  <unicode hex="007C"/>
  <outline>
    <contour>
      <point x="205.22105263157897" y="-309.6842105263158" type="curve"/>
      <point x="303.53684210526313" y="-309.6842105263158" type="line"/>
      <point x="300.86315789473684" y="-33.684210526315795"/>
      <point x="298.0210526315789" y="272.3157894736842"/>
      <point x="297.85263157894735" y="348.3157894736842" type="curve"/>
      <point x="297.85263157894735" y="912.3157894736842" type="line"/>
      <point x="298.0210526315789" y="988.3157894736842"/>
      <point x="300.86315789473684" y="1294.3157894736842"/>
      <point x="303.53684210526313" y="1570.3157894736842" type="curve"/>
      <point x="205.22105263157897" y="1570.3157894736842" type="line"/>
      <point x="207.8947368421053" y="1294.3157894736842"/>
      <point x="210.73684210526318" y="988.3157894736842"/>
      <point x="210.90526315789475" y="912.3157894736842" type="curve"/>
      <point x="210.90526315789475" y="348.3157894736842" type="line"/>
      <point x="210.73684210526318" y="272.3157894736842"/>
      <point x="207.8947368421053" y="-33.684210526315795"/>
    </contour>
  </outline>
</glyph>
<glyph name="asciitilde" format="2">
  <advance width="1125.0526315789473"/>
  <unicode hex="007E"/>
  <outline>
    <contour>
      <point x="785.5368421052632" y="458.58947368421053" type="curve" smooth="yes"/>
      <point x="900.7578947368421" y="458.58947368421053"/>
      <point x="990.1052631578947" y="544.3368421052631"/>
      <point x="990.1052631578947" y="699.1157894736842" type="curve"/>
      <point x="915.9368421052632" y="699.1157894736842" type="line"/>
      <point x="908.5894736842106" y="593.5157894736842"/>
      <point x="857.6210526315789" y="551.2"/>
      <point x="777.6631578947369" y="547.0315789473684" type="curve"/>
      <point x="640.3789473684211" y="551.5368421052632"/>
      <point x="503.70526315789476" y="726.6315789473684"/>
      <point x="342.69473684210527" y="726.6315789473684" type="curve" smooth="yes"/>
      <point x="226.46315789473684" y="726.6315789473684"/>
      <point x="134.94736842105263" y="640.7157894736843"/>
      <point x="134.94736842105263" y="486.10526315789474" type="curve"/>
      <point x="209.1157894736842" y="486.10526315789474" type="line"/>
      <point x="216.46315789473684" y="591.7052631578947"/>
      <point x="269.7684210526316" y="634.0210526315789"/>
      <point x="350.06315789473683" y="638.1894736842105" type="curve"/>
      <point x="486.5052631578947" y="633.6842105263157"/>
      <point x="624.021052631579" y="458.58947368421053"/>
    </contour>
  </outline>
</glyph>
<glyph name="cent" format="2">
  <advance width="999.2842105263157"/>
  <unicode hex="00A2"/>
  <anchor x="577.3052631578947" y="0.0" name="bottom"/>
  <anchor x="560.8210526315789" y="989.3473684210526" name="top"/>
  <outline>
    <contour>
      <point x="512.4" y="-274.0" type="curve"/>
      <point x="602.1473684210526" y="-274.0" type="line"/>
      <point x="599.4736842105264" y="1.9999999999999984"/>
      <point x="596.6315789473684" y="308.0"/>
      <point x="596.4631578947368" y="384.0" type="curve"/>
      <point x="596.4631578947368" y="588.8421052631579" type="line"/>
      <point x="596.6315789473684" y="664.8421052631579"/>
      <point x="599.4736842105264" y="970.8421052631579"/>
      <point x="602.1473684210526" y="1246.842105263158" type="curve"/>
      <point x="512.4" y="1246.842105263158" type="line"/>
      <point x="515.0736842105263" y="970.8421052631579"/>
      <point x="517.9157894736842" y="664.8421052631579"/>
      <point x="518.0842105263158" y="588.8421052631579" type="curve"/>
      <point x="518.0842105263158" y="384.0" type="line"/>
      <point x="517.9157894736842" y="308.0"/>
      <point x="515.0736842105263" y="2.0"/>
    </contour>
    <contour>
      <point x="606.1473684210526" y="-18.50526315789474" type="curve" smooth="yes"/>
      <point x="670.9684210526316" y="-18.50526315789474"/>
      <point x="812.6736842105263" y="19.810526315789474"/>
      <point x="898.3368421052631" y="50.631578947368425" type="curve"/>
      <point x="884.1684210526316" y="147.38947368421051" type="line"/>
      <point x="787.5368421052632" y="103.57894736842105"/>
      <point x="658.4" y="70.08421052631579"/>
      <point x="616.2526315789474" y="70.08421052631579" type="curve" smooth="yes"/>
      <point x="345.2210526315789" y="75.74736842105263"/>
      <point x="211.43157894736842" y="256.8"/>
      <point x="211.43157894736842" y="497.34736842105264" type="curve" smooth="yes"/>
      <point x="211.43157894736842" y="756.1894736842105"/>
      <point x="362.67368421052635" y="914.5894736842105"/>
      <point x="594.0210526315789" y="920.5894736842105" type="curve"/>
      <point x="628.8421052631578" y="920.5894736842105"/>
      <point x="758.6736842105263" y="884.7578947368421"/>
      <point x="881.6631578947369" y="839.2631578947369" type="curve"/>
      <point x="893.3473684210526" y="936.6947368421053" type="line"/>
      <point x="813.4736842105264" y="961.7052631578947"/>
      <point x="648.9684210526316" y="1010.1894736842105"/>
      <point x="587.642105263158" y="1010.1894736842105" type="curve" smooth="yes"/>
      <point x="292.2526315789474" y="1010.1894736842105"/>
      <point x="116.58947368421053" y="787.8526315789474"/>
      <point x="116.58947368421053" y="496.1684210526316" type="curve" smooth="yes"/>
      <point x="116.58947368421053" y="206.4842105263158"/>
      <point x="293.1157894736842" y="-18.50526315789474"/>
    </contour>
  </outline>
</glyph>
<glyph name="sterling" format="2">
  <advance width="1165.4105263157894"/>
  <unicode hex="00A3"/>
  <outline>
    <contour>
      <point x="143.26315789473685" y="0.0" type="line"/>
      <point x="1096.2526315789473" y="0.0" type="line"/>
      <point x="1096.2526315789473" y="97.66315789473684" type="line"/>
      <point x="937.6" y="94.82105263157895"/>
      <point x="680.4842105263158" y="91.6421052631579"/>
      <point x="502.9894736842105" y="88.63157894736842" type="curve"/>
      <point x="210.5263157894737" y="88.63157894736842" type="line"/>
      <point x="227.26315789473685" y="48.77894736842105" type="line"/>
      <point x="367.59999999999997" y="303.5578947368421"/>
      <point x="397.7684210526316" y="378.2105263157895"/>
      <point x="397.7684210526316" y="456.69473684210527" type="curve" smooth="yes"/>
      <point x="397.7684210526316" y="909.4315789473684" type="line" smooth="yes"/>
      <point x="397.7684210526316" y="1180.1263157894737"/>
      <point x="509.38947368421054" y="1300.0631578947368"/>
      <point x="736.1052631578947" y="1302.5684210526315" type="curve"/>
      <point x="772.778947368421" y="1302.5684210526315"/>
      <point x="899.4105263157895" y="1267.7473684210527"/>
      <point x="1023.4105263157894" y="1221.0736842105264" type="curve"/>
      <point x="1036.1052631578948" y="1318.5263157894738" type="line"/>
      <point x="959.4315789473684" y="1344.863157894737"/>
      <point x="798.8000000000001" y="1393.6842105263158"/>
      <point x="730.9052631578948" y="1393.6842105263158" type="curve" smooth="yes"/>
      <point x="466.58947368421053" y="1393.6842105263158"/>
      <point x="298.90526315789475" y="1240.9684210526316"/>
      <point x="298.90526315789475" y="917.9368421052632" type="curve" smooth="yes"/>
      <point x="298.90526315789475" y="759.8105263157895"/>
      <point x="301.41052631578947" y="603.6842105263158"/>
      <point x="301.41052631578947" y="445.7263157894737" type="curve"/>
      <point x="301.41052631578947" y="387.2421052631579"/>
      <point x="273.7473684210526" y="307.43157894736845"/>
      <point x="143.26315789473685" y="69.66315789473684" type="curve"/>
    </contour>
    <contour>
      <point x="128.1263157894737" y="718.3368421052631" type="line"/>
      <point x="246.98947368421054" y="720.6736842105262"/>
      <point x="382.5052631578947" y="723.0105263157894"/>
      <point x="456.2105263157895" y="723.3473684210526" type="curve"/>
      <point x="518.5684210526316" y="723.3473684210526" type="line"/>
      <point x="592.2736842105263" y="723.0105263157894"/>
      <point x="727.7894736842105" y="720.6736842105262"/>
      <point x="846.6526315789474" y="718.3368421052631" type="curve"/>
      <point x="846.6526315789474" y="804.9052631578948" type="line"/>
      <point x="727.7894736842105" y="802.5684210526317"/>
      <point x="592.2736842105263" y="800.2315789473685"/>
      <point x="518.5684210526316" y="799.8947368421053" type="curve"/>
      <point x="456.2105263157895" y="799.8947368421053" type="line"/>
      <point x="382.5052631578947" y="800.2315789473685"/>
      <point x="246.98947368421054" y="802.5684210526317"/>
      <point x="128.1263157894737" y="804.9052631578948" type="curve"/>
    </contour>
  </outline>
</glyph>
<glyph name="currency" format="2">
  <advance width="1214.1473684210525"/>
  <unicode hex="00A4"/>
  <outline>
    <contour>
      <point x="603.2421052631579" y="251.07368421052632" type="curve" smooth="yes"/>
      <point x="827.1578947368421" y="251.07368421052632"/>
      <point x="993.5368421052632" y="400.42105263157896"/>
      <point x="993.5368421052632" y="640.3368421052631" type="curve" smooth="yes"/>
      <point x="993.5368421052632" y="871.0526315789474"/>
      <point x="828.9894736842106" y="1030.7578947368422"/>
      <point x="607.2421052631579" y="1030.7578947368422" type="curve" smooth="yes"/>
      <point x="381.4947368421053" y="1030.7578947368422"/>
      <point x="216.94736842105263" y="870.0631578947368"/>
      <point x="216.94736842105263" y="640.3368421052631" type="curve" smooth="yes"/>
      <point x="216.94736842105263" y="400.58947368421053"/>
      <point x="381.4947368421053" y="251.07368421052632"/>
    </contour>
    <contour>
      <point x="171.47368421052633" y="137.0105263157895" type="line"/>
      <point x="253.32631578947365" y="221.3684210526316"/>
      <point x="348.0" y="318.7157894736842"/>
      <point x="398.5263157894737" y="371.57894736842104" type="curve"/>
      <point x="336.82105263157894" y="433.2842105263158" type="line"/>
      <point x="283.9578947368421" y="382.75789473684205"/>
      <point x="186.61052631578949" y="288.08421052631576"/>
      <point x="102.25263157894737" y="206.23157894736843" type="curve"/>
    </contour>
    <contour>
      <point x="603.4105263157895" y="339.3263157894737" type="curve"/>
      <point x="439.32631578947365" y="344.0"/>
      <point x="308.2315789473684" y="435.62105263157895"/>
      <point x="308.2315789473684" y="640.1684210526316" type="curve" smooth="yes"/>
      <point x="308.2315789473684" y="832.7157894736843"/>
      <point x="441.1578947368421" y="938.0"/>
      <point x="607.0736842105263" y="942.6736842105263" type="curve"/>
      <point x="771.3263157894736" y="938.0"/>
      <point x="902.2526315789473" y="832.3789473684211"/>
      <point x="902.2526315789473" y="640.1684210526316" type="curve" smooth="yes"/>
      <point x="902.2526315789473" y="435.62105263157895"/>
      <point x="771.1578947368421" y="344.0"/>
    </contour>
    <contour>
      <point x="337.1578947368421" y="850.7157894736843" type="curve"/>
      <point x="398.1894736842105" y="911.7473684210527" type="line"/>
      <point x="347.6631578947368" y="964.6105263157896"/>
      <point x="252.9894736842105" y="1061.9578947368423"/>
      <point x="171.13684210526316" y="1146.3157894736842" type="curve"/>
      <point x="102.58947368421053" y="1077.7684210526315" type="line"/>
      <point x="186.94736842105266" y="995.9157894736842"/>
      <point x="284.29473684210524" y="901.2421052631579"/>
    </contour>
    <contour>
      <point x="1043.0105263157895" y="137.34736842105264" type="curve"/>
      <point x="1111.5578947368422" y="205.89473684210526" type="line"/>
      <point x="1027.2" y="287.7473684210526"/>
      <point x="929.8526315789475" y="382.4210526315789"/>
      <point x="876.9894736842106" y="432.94736842105266" type="curve"/>
      <point x="815.9578947368421" y="371.9157894736842" type="line"/>
      <point x="866.4842105263158" y="319.0526315789474"/>
      <point x="961.1578947368421" y="221.70526315789476"/>
    </contour>
    <contour>
      <point x="877.3263157894737" y="850.378947368421" type="line"/>
      <point x="930.1894736842105" y="900.9052631578948"/>
      <point x="1027.5368421052633" y="995.578947368421"/>
      <point x="1111.8947368421052" y="1077.4315789473685" type="curve"/>
      <point x="1042.6736842105263" y="1146.6526315789474" type="line"/>
      <point x="960.8210526315789" y="1062.2947368421055"/>
      <point x="866.1473684210526" y="964.9473684210527"/>
      <point x="815.6210526315789" y="912.0842105263158" type="curve"/>
    </contour>
  </outline>
</glyph>
<glyph name="yen" format="2">
  <advance width="1219.4736842105262"/>
  <unicode hex="00A5"/>
  <outline>
    <contour>
      <point x="564.5684210526316" y="564.5473684210526" type="line"/>
      <point x="655.578947368421" y="564.5473684210526" type="line"/>
      <point x="959.3684210526316" y="1052.2947368421053" type="line"/>
      <point x="1025.5368421052633" y="1154.1473684210528"/>
      <point x="1099.2" y="1267.157894736842"/>
      <point x="1165.3684210526317" y="1369.0105263157895" type="curve"/>
      <point x="1039.4315789473683" y="1369.0105263157895" type="line"/>
      <point x="922.3578947368421" y="1174.736842105263"/>
      <point x="863.0736842105264" y="1078.778947368421"/>
      <point x="771.978947368421" y="926.9894736842106" type="curve"/>
      <point x="616.2526315789473" y="674.5684210526316" type="line"/>
      <point x="602.2315789473685" y="674.5684210526316" type="line"/>
      <point x="448.6736842105263" y="924.9894736842106" type="line"/>
      <point x="356.0842105263158" y="1079.4315789473685"/>
      <point x="300.4631578947368" y="1172.5684210526315"/>
      <point x="181.7263157894737" y="1369.0105263157895" type="curve"/>
      <point x="53.76842105263158" y="1369.0105263157895" type="line"/>
      <point x="156.2736842105263" y="1210.4842105263156"/>
      <point x="200.2736842105263" y="1143.6421052631579"/>
      <point x="260.4421052631579" y="1052.1263157894737" type="curve"/>
    </contour>
    <contour>
      <point x="555.3684210526316" y="0.0" type="curve"/>
      <point x="666.778947368421" y="0.0" type="line"/>
      <point x="663.9368421052632" y="154.9894736842105"/>
      <point x="661.2631578947368" y="287.9789473684211"/>
      <point x="658.2526315789473" y="454.65263157894736" type="curve"/>
      <point x="658.2526315789473" y="642.5052631578948" type="line"/>
      <point x="562.0631578947368" y="642.5052631578948" type="line"/>
      <point x="562.0631578947368" y="454.65263157894736" type="line"/>
      <point x="559.0526315789474" y="287.9789473684211"/>
      <point x="558.2105263157895" y="154.9894736842105"/>
    </contour>
    <contour>
      <point x="169.9578947368421" y="300.7157894736842" type="line"/>
      <point x="288.82105263157894" y="303.0526315789474"/>
      <point x="424.33684210526314" y="305.38947368421054"/>
      <point x="498.0421052631579" y="305.7263157894737" type="curve"/>
      <point x="723.7684210526315" y="305.7263157894737" type="line"/>
      <point x="797.4736842105264" y="305.38947368421054"/>
      <point x="932.9894736842106" y="303.0526315789474"/>
      <point x="1051.8526315789475" y="300.7157894736842" type="curve"/>
      <point x="1051.8526315789475" y="383.0736842105263" type="line"/>
      <point x="932.9894736842106" y="381.0736842105263"/>
      <point x="797.4736842105264" y="379.0736842105263"/>
      <point x="723.7684210526315" y="378.90526315789475" type="curve"/>
      <point x="498.0421052631579" y="378.90526315789475" type="line"/>
      <point x="424.33684210526314" y="379.0736842105263"/>
      <point x="288.82105263157894" y="381.0736842105263"/>
      <point x="169.9578947368421" y="383.0736842105263" type="curve"/>
    </contour>
    <contour>
      <point x="169.9578947368421" y="569.8105263157894" type="line"/>
      <point x="288.82105263157894" y="571.8105263157894"/>
      <point x="424.33684210526314" y="573.8105263157894"/>
      <point x="498.0421052631579" y="573.978947368421" type="curve"/>
      <point x="723.7684210526315" y="573.978947368421" type="line"/>
      <point x="797.4736842105264" y="573.8105263157894"/>
      <point x="932.9894736842106" y="571.8105263157894"/>
      <point x="1051.8526315789475" y="569.8105263157894" type="curve"/>
      <point x="1051.8526315789475" y="652.1684210526315" type="line"/>
      <point x="932.9894736842106" y="649.8315789473685"/>
      <point x="797.4736842105264" y="647.4947368421052"/>
      <point x="723.7684210526315" y="647.1578947368421" type="curve"/>
      <point x="498.0421052631579" y="647.1578947368421" type="line"/>
      <point x="424.33684210526314" y="647.4947368421052"/>
      <point x="288.82105263157894" y="649.8315789473685"/>
      <point x="169.9578947368421" y="652.1684210526315" type="curve"/>
    </contour>
  </outline>
</glyph>
<glyph name="section" format="2">
  <advance width="1056.183908045977"/>
  <unicode hex="00A7"/>
  <outline>
    <contour>
      <point x="489.1034482758621" y="-246.20689655172413" type="curve" smooth="yes"/>
      <point x="764.2988505747127" y="-246.20689655172413"/>
      <point x="881.9770114942529" y="-90.04597701149426"/>
      <point x="881.9770114942529" y="88.73563218390804" type="curve" smooth="yes"/>
      <point x="881.9770114942529" y="296.367816091954"/>
      <point x="729.1264367816092" y="353.3103448275862"/>
      <point x="499.08045977011494" y="422.04597701149424" type="curve" smooth="yes"/>
      <point x="295.7011494252873" y="483.4712643678161"/>
      <point x="206.48275862068965" y="536.3678160919541"/>
      <point x="206.48275862068965" y="671.0114942528736" type="curve" smooth="yes"/>
      <point x="206.48275862068965" y="817.2413793103449"/>
      <point x="304.4367816091954" y="873.816091954023"/>
      <point x="396.39080459770116" y="890.3448275862069" type="curve"/>
      <point x="315.5632183908046" y="957.6321839080459" type="line"/>
      <point x="184.8965517241379" y="911.264367816092"/>
      <point x="109.74712643678161" y="803.0114942528735"/>
      <point x="109.74712643678161" y="669.3333333333334" type="curve" smooth="yes"/>
      <point x="109.74712643678161" y="476.11494252873564"/>
      <point x="262.91954022988506" y="404.9655172413793"/>
      <point x="439.37931034482756" y="350.39080459770116" type="curve" smooth="yes"/>
      <point x="694.0229885057472" y="270.9655172413793"/>
      <point x="785.6091954022988" y="229.90804597701148"/>
      <point x="785.6091954022988" y="96.0" type="curve" smooth="yes"/>
      <point x="785.6091954022988" y="-101.44827586206897"/>
      <point x="649.3333333333334" y="-153.4022988505747"/>
      <point x="488.1609195402299" y="-157.4022988505747" type="curve"/>
      <point x="403.8390804597701" y="-157.4022988505747"/>
      <point x="264.1609195402299" y="-110.66666666666667"/>
      <point x="109.95402298850574" y="-54.298850574712645" type="curve"/>
      <point x="96.85057471264368" y="-152.41379310344828" type="line"/>
      <point x="246.3218390804598" y="-202.94252873563218"/>
      <point x="406.735632183908" y="-246.20689655172413"/>
    </contour>
    <contour>
      <point x="782.4137931034483" y="260.1609195402299" type="line"/>
      <point x="911.816091954023" y="320.5287356321839"/>
      <point x="970.5977011494252" y="433.1034482758621"/>
      <point x="970.5977011494252" y="558.9885057471264" type="curve" smooth="yes"/>
      <point x="970.5977011494252" y="761.8390804597701"/>
      <point x="817.7471264367816" y="821.3563218390805"/>
      <point x="587.7011494252873" y="890.0919540229885" type="curve" smooth="yes"/>
      <point x="384.32183908045977" y="951.5172413793103"/>
      <point x="295.1034482758621" y="1004.4137931034483"/>
      <point x="295.1034482758621" y="1135.7471264367816" type="curve" smooth="yes"/>
      <point x="295.1034482758621" y="1330.2988505747126"/>
      <point x="464.4367816091954" y="1357.9310344827586"/>
      <point x="563.6551724137931" y="1361.9310344827586" type="curve"/>
      <point x="600.9195402298851" y="1361.9310344827586"/>
      <point x="750.0229885057471" y="1315.9310344827584"/>
      <point x="885.8620689655172" y="1263.1954022988507" type="curve"/>
      <point x="896.9655172413793" y="1364.5747126436781" type="line"/>
      <point x="806.551724137931" y="1392.2068965517242"/>
      <point x="628.8735632183908" y="1450.7356321839081"/>
      <point x="557.5632183908046" y="1450.7356321839081" type="curve" smooth="yes"/>
      <point x="336.57471264367814" y="1450.7356321839081"/>
      <point x="198.0" y="1322.896551724138"/>
      <point x="198.0" y="1138.1149425287356" type="curve" smooth="yes"/>
      <point x="198.0" y="941.5862068965517"/>
      <point x="354.85057471264366" y="870.4367816091954"/>
      <point x="528.0" y="818.0689655172414" type="curve" smooth="yes"/>
      <point x="782.2758620689655" y="740.1149425287356"/>
      <point x="874.2298850574713" y="695.7471264367815"/>
      <point x="874.2298850574713" y="560.3678160919541" type="curve" smooth="yes"/>
      <point x="874.2298850574713" y="420.13793103448273"/>
      <point x="805.7011494252873" y="349.4022988505747"/>
      <point x="704.6436781609195" y="321.2413793103448" type="curve"/>
    </contour>
  </outline>
</glyph>
<glyph name="ordfeminine" format="2">
  <advance width="780.4137931034483"/>
  <unicode hex="00AA"/>
  <outline>
    <contour>
      <point x="312.48275862068965" y="668.528735632184" type="curve" smooth="yes"/>
      <point x="386.64367816091954" y="668.528735632184"/>
      <point x="493.5402298850575" y="735.7931034482758"/>
      <point x="581.7011494252873" y="805.0574712643678" type="curve"/>
      <point x="592.8045977011495" y="805.0574712643678" type="line"/>
      <point x="622.4367816091955" y="682.8965517241379" type="line"/>
      <point x="704.2988505747127" y="682.8965517241379" type="line"/>
      <point x="685.9310344827586" y="756.9425287356322"/>
      <point x="670.2988505747127" y="821.6781609195402"/>
      <point x="656.2988505747127" y="878.9885057471264" type="curve"/>
      <point x="656.2988505747127" y="1003.264367816092" type="line" smooth="yes"/>
      <point x="656.2988505747127" y="1071.4252873563219"/>
      <point x="660.2988505747127" y="1146.16091954023"/>
      <point x="660.2988505747127" y="1190.8965517241381" type="curve" smooth="yes"/>
      <point x="660.2988505747127" y="1374.0"/>
      <point x="558.4597701149426" y="1450.7356321839081"/>
      <point x="402.41379310344826" y="1450.7356321839081" type="curve" smooth="yes"/>
      <point x="349.5172413793104" y="1450.7356321839081"/>
      <point x="191.42528735632183" y="1414.735632183908"/>
      <point x="120.6896551724138" y="1394.7356321839081" type="curve"/>
      <point x="125.42528735632183" y="1308.8735632183907" type="line"/>
      <point x="243.79310344827584" y="1346.344827586207"/>
      <point x="363.2643678160919" y="1373.816091954023"/>
      <point x="391.7931034482759" y="1373.816091954023" type="curve" smooth="yes"/>
      <point x="496.48275862068965" y="1373.816091954023"/>
      <point x="588.4367816091954" y="1344.551724137931"/>
      <point x="580.8045977011494" y="1167.471264367816" type="curve"/>
      <point x="325.95402298850576" y="1114.942528735632" type="line" smooth="yes"/>
      <point x="228.8505747126437" y="1094.942528735632"/>
      <point x="86.6896551724138" y="1040.735632183908"/>
      <point x="86.6896551724138" y="874.8965517241379" type="curve" smooth="yes"/>
      <point x="86.6896551724138" y="753.6321839080459"/>
      <point x="169.2183908045977" y="668.528735632184"/>
    </contour>
    <contour>
      <point x="332.2528735632184" y="743.9770114942529" type="curve" smooth="yes"/>
      <point x="235.24137931034483" y="743.9770114942529"/>
      <point x="166.91954022988506" y="783.7701149425287"/>
      <point x="166.91954022988506" y="886.7816091954023" type="curve" smooth="yes"/>
      <point x="166.91954022988506" y="997.0574712643678"/>
      <point x="261.0344827586207" y="1035.2183908045977"/>
      <point x="358.41379310344826" y="1054.1149425287356" type="curve" smooth="yes"/>
      <point x="512.1149425287356" y="1084.6436781609195"/>
      <point x="551.5402298850574" y="1099.9080459770114"/>
      <point x="580.0689655172414" y="1112.2758620689656" type="curve"/>
      <point x="578.4367816091954" y="879.5172413793103" type="line"/>
      <point x="497.21839080459773" y="802.2988505747127"/>
      <point x="389.8390804597701" y="743.9770114942529"/>
    </contour>
  </outline>
</glyph>
<glyph name="logicalnot" format="2">
  <advance width="1125.0526315789473"/>
  <unicode hex="00AC"/>
  <outline>
    <contour>
      <point x="897.1368421052632" y="126.46315789473684" type="curve"/>
      <point x="995.1157894736841" y="126.46315789473684" type="line"/>
      <point x="992.7789473684211" y="245.32631578947368"/>
      <point x="990.4421052631578" y="380.84210526315786"/>
      <point x="990.1052631578947" y="454.5473684210526" type="curve"/>
      <point x="990.1052631578947" y="640.8421052631578" type="line"/>
      <point x="871.2421052631579" y="638.5052631578948"/>
      <point x="735.7263157894737" y="636.1684210526315"/>
      <point x="662.021052631579" y="635.8315789473684" type="curve"/>
      <point x="463.0315789473684" y="635.8315789473684" type="line"/>
      <point x="389.32631578947365" y="636.1684210526315"/>
      <point x="253.81052631578947" y="638.5052631578948"/>
      <point x="134.94736842105263" y="640.8421052631578" type="curve"/>
      <point x="134.94736842105263" y="543.8736842105263" type="line"/>
      <point x="253.81052631578947" y="546.2105263157894"/>
      <point x="389.32631578947365" y="548.5473684210526"/>
      <point x="463.0315789473684" y="548.8842105263158" type="curve"/>
      <point x="662.021052631579" y="548.8842105263158" type="line"/>
      <point x="730.7157894736843" y="548.5473684210526"/>
      <point x="857.0526315789474" y="546.2105263157894"/>
      <point x="966.7368421052631" y="543.8736842105263" type="curve"/>
      <point x="902.1473684210526" y="608.421052631579" type="line"/>
      <point x="902.1473684210526" y="454.5473684210526" type="line"/>
      <point x="901.8105263157895" y="380.84210526315786"/>
      <point x="899.4736842105262" y="245.32631578947368"/>
    </contour>
  </outline>
</glyph>
<glyph name="degree" format="2">
  <advance width="922.9894736842106"/>
  <unicode hex="00B0"/>
  <outline>
    <contour>
      <point x="461.41052631578947" y="648.0842105263158" type="curve" smooth="yes"/>
      <point x="684.6526315789473" y="648.0842105263158"/>
      <point x="844.6736842105263" y="794.9263157894737"/>
      <point x="844.6736842105263" y="1017.6421052631579" type="curve" smooth="yes"/>
      <point x="844.6736842105263" y="1231.8315789473684"/>
      <point x="684.6526315789473" y="1393.6842105263158"/>
      <point x="463.41052631578947" y="1393.6842105263158" type="curve" smooth="yes"/>
      <point x="240.16842105263157" y="1393.6842105263158"/>
      <point x="78.3157894736842" y="1231.8315789473684"/>
      <point x="78.3157894736842" y="1017.6421052631579" type="curve" smooth="yes"/>
      <point x="78.3157894736842" y="794.9263157894737"/>
      <point x="240.16842105263157" y="648.0842105263158"/>
    </contour>
    <contour>
      <point x="461.41052631578947" y="729.9578947368421" type="curve"/>
      <point x="281.6842105263158" y="734.6315789473684"/>
      <point x="165.57894736842104" y="839.0736842105264"/>
      <point x="165.57894736842104" y="1017.3052631578947" type="curve" smooth="yes"/>
      <point x="165.57894736842104" y="1189.3684210526314"/>
      <point x="281.5157894736842" y="1307.1368421052632"/>
      <point x="463.41052631578947" y="1311.8105263157895" type="curve"/>
      <point x="643.4736842105264" y="1306.9684210526316"/>
      <point x="757.4105263157895" y="1188.8631578947368"/>
      <point x="757.4105263157895" y="1017.3052631578947" type="curve" smooth="yes"/>
      <point x="757.4105263157895" y="839.0736842105264"/>
      <point x="643.1368421052632" y="734.6315789473684"/>
    </contour>
  </outline>
</glyph>
<glyph name="plusminus" format="2">
  <advance width="1125.0526315789473"/>
  <unicode hex="00B1"/>
  <outline>
    <contour>
      <point x="134.94736842105263" y="-5.010526315789473" type="line"/>
      <point x="253.81052631578947" y="-2.673684210526316"/>
      <point x="389.32631578947365" y="-0.3368421052631579"/>
      <point x="463.0315789473684" y="0.0" type="curve"/>
      <point x="662.021052631579" y="0.0" type="line"/>
      <point x="735.7263157894737" y="-0.3368421052631579"/>
      <point x="871.2421052631579" y="-2.673684210526316"/>
      <point x="990.1052631578947" y="-5.010526315789473" type="curve"/>
      <point x="990.1052631578947" y="91.9578947368421" type="line"/>
      <point x="871.2421052631579" y="89.62105263157893"/>
      <point x="735.7263157894737" y="87.28421052631579"/>
      <point x="662.021052631579" y="86.94736842105263" type="curve"/>
      <point x="463.0315789473684" y="86.94736842105263" type="line"/>
      <point x="389.32631578947365" y="87.28421052631579"/>
      <point x="253.81052631578947" y="89.62105263157893"/>
      <point x="134.94736842105263" y="91.9578947368421" type="curve"/>
    </contour>
    <contour>
      <point x="134.94736842105263" y="704.5263157894738" type="line"/>
      <point x="253.81052631578947" y="706.8631578947368"/>
      <point x="389.32631578947365" y="709.2"/>
      <point x="463.0315789473684" y="709.5368421052632" type="curve"/>
      <point x="662.021052631579" y="709.5368421052632" type="line"/>
      <point x="735.7263157894737" y="709.2"/>
      <point x="871.2421052631579" y="706.8631578947368"/>
      <point x="990.1052631578947" y="704.5263157894738" type="curve"/>
      <point x="990.1052631578947" y="801.4947368421052" type="line"/>
      <point x="871.2421052631579" y="799.1578947368422"/>
      <point x="735.7263157894737" y="796.8210526315789"/>
      <point x="662.021052631579" y="796.4842105263158" type="curve"/>
      <point x="463.0315789473684" y="796.4842105263158" type="line"/>
      <point x="389.32631578947365" y="796.8210526315789"/>
      <point x="253.81052631578947" y="799.1578947368422"/>
      <point x="134.94736842105263" y="801.4947368421052" type="curve"/>
    </contour>
    <contour>
      <point x="513.5368421052632" y="290.4842105263158" type="curve"/>
      <point x="611.5157894736842" y="290.4842105263158" type="line"/>
      <point x="609.1789473684212" y="409.34736842105264"/>
      <point x="606.8421052631579" y="544.8631578947368"/>
      <point x="606.5052631578948" y="618.5684210526316" type="curve"/>
      <point x="606.5052631578948" y="887.4526315789474" type="line"/>
      <point x="606.8421052631579" y="961.1578947368421"/>
      <point x="609.1789473684212" y="1096.6736842105263"/>
      <point x="611.5157894736842" y="1215.536842105263" type="curve"/>
      <point x="513.5368421052632" y="1215.536842105263" type="line"/>
      <point x="515.8736842105262" y="1096.6736842105263"/>
      <point x="518.2105263157895" y="961.1578947368421"/>
      <point x="518.5473684210526" y="887.4526315789474" type="curve"/>
      <point x="518.5473684210526" y="618.5684210526316" type="line"/>
      <point x="518.2105263157895" y="544.8631578947368"/>
      <point x="515.8736842105262" y="409.34736842105264"/>
    </contour>
  </outline>
</glyph>
<glyph name="micro" format="2">
  <advance width="1105.0736842105264"/>
  <unicode hex="00B5"/>
  <outline>
    <contour>
      <point x="161.70526315789473" y="-388.6736842105263" type="curve"/>
      <point x="271.93684210526317" y="-384.0" type="line"/>
      <point x="268.7578947368421" y="-235.01052631578946"/>
      <point x="265.91578947368424" y="-105.85263157894737"/>
      <point x="262.5684210526316" y="54.463157894736845" type="curve" smooth="yes"/>
      <point x="262.5684210526316" y="92.94736842105263" type="line"/>
      <point x="239.7263157894737" y="92.94736842105263" type="line"/>
      <point x="286.8842105263158" y="19.136842105263156"/>
      <point x="362.69473684210527" y="-19.178947368421053"/>
      <point x="481.30526315789473" y="-19.178947368421053" type="curve" smooth="yes"/>
      <point x="588.6105263157895" y="-19.178947368421053"/>
      <point x="759.5368421052631" y="109.26315789473684"/>
      <point x="840.3578947368421" y="188.12631578947367" type="curve"/>
      <point x="853.7052631578947" y="188.12631578947367" type="line"/>
      <point x="900.6947368421054" y="0.0" type="line"/>
      <point x="995.6631578947369" y="0.0" type="line"/>
      <point x="969.8315789473684" y="96.21052631578947"/>
      <point x="953.4947368421052" y="166.75789473684213"/>
      <point x="933.4947368421052" y="253.62105263157895" type="curve"/>
      <point x="935.3263157894736" y="542.3368421052631" type="line"/>
      <point x="935.6631578947369" y="707.5368421052632"/>
      <point x="937.6631578947369" y="838.5052631578948"/>
      <point x="938.0" y="989.3473684210526" type="curve"/>
      <point x="832.9684210526316" y="989.3473684210526" type="line"/>
      <point x="835.8105263157894" y="840.3578947368421"/>
      <point x="838.4842105263158" y="709.0315789473684"/>
      <point x="841.1578947368421" y="547.3894736842105" type="curve"/>
      <point x="841.1578947368421" y="287.4526315789473" type="line"/>
      <point x="714.7578947368421" y="168.21052631578948"/>
      <point x="564.3578947368421" y="72.27368421052631"/>
      <point x="493.2421052631579" y="72.27368421052631" type="curve" smooth="yes"/>
      <point x="318.86315789473684" y="72.27368421052631"/>
      <point x="262.5684210526316" y="168.06315789473686"/>
      <point x="262.5684210526316" y="353.1578947368421" type="curve"/>
      <point x="264.40000000000003" y="547.3894736842105" type="line"/>
      <point x="264.7368421052632" y="706.021052631579"/>
      <point x="265.2421052631579" y="847.5578947368421"/>
      <point x="267.41052631578947" y="994.021052631579" type="curve"/>
      <point x="161.36842105263156" y="989.3473684210526" type="line"/>
      <point x="164.37894736842105" y="840.3578947368421"/>
      <point x="167.05263157894734" y="709.3684210526314"/>
      <point x="170.2315789473684" y="542.3368421052631" type="curve"/>
      <point x="170.2315789473684" y="56.65263157894737" type="line"/>
      <point x="167.22105263157894" y="-105.85263157894737"/>
      <point x="164.54736842105262" y="-239.68421052631578"/>
    </contour>
  </outline>
</glyph>
<glyph name="paragraph" format="2">
  <advance width="1059.4947368421053"/>
  <unicode hex="00B6"/>
  <outline>
    <contour>
      <point x="447.9789473684211" y="617.7473684210527" type="curve" smooth="yes"/>
      <point x="488.14736842105265" y="617.7473684210527" type="line"/>
      <point x="488.14736842105265" y="1426.0" type="line"/>
      <point x="447.9789473684211" y="1426.0" type="line"/>
      <point x="226.94736842105263" y="1426.0"/>
      <point x="75.78947368421052" y="1260.1473684210525"/>
      <point x="75.78947368421052" y="1027.957894736842" type="curve" smooth="yes"/>
      <point x="75.78947368421052" y="809.7684210526315"/>
      <point x="212.77894736842106" y="617.7473684210527"/>
    </contour>
    <contour>
      <point x="443.64210526315793" y="-445.57894736842104" type="curve"/>
      <point x="531.3473684210527" y="-445.57894736842104" type="line"/>
      <point x="528.842105263158" y="-169.57894736842104"/>
      <point x="526.3368421052633" y="136.42105263157896"/>
      <point x="526.1684210526316" y="212.42105263157896" type="curve"/>
      <point x="526.1684210526316" y="768.0" type="line"/>
      <point x="526.3368421052633" y="844.0"/>
      <point x="529.1789473684212" y="1150.0"/>
      <point x="531.8526315789475" y="1426.0" type="curve"/>
      <point x="449.3263157894737" y="1426.0" type="line"/>
      <point x="449.3263157894737" y="1150.0"/>
      <point x="449.3263157894737" y="844.0"/>
      <point x="449.3263157894737" y="768.0" type="curve"/>
      <point x="449.3263157894737" y="212.42105263157896" type="line"/>
      <point x="449.15789473684214" y="136.42105263157896"/>
      <point x="446.3157894736842" y="-169.57894736842104"/>
    </contour>
    <contour>
      <point x="714.2526315789473" y="-445.57894736842104" type="curve"/>
      <point x="801.9578947368421" y="-445.57894736842104" type="line"/>
      <point x="799.2842105263159" y="-169.57894736842104"/>
      <point x="796.4421052631579" y="136.42105263157896"/>
      <point x="796.2736842105263" y="212.42105263157896" type="curve"/>
      <point x="796.2736842105263" y="768.0" type="line"/>
      <point x="796.4421052631579" y="844.0"/>
      <point x="799.2842105263159" y="1150.0"/>
      <point x="801.9578947368421" y="1426.0" type="curve"/>
      <point x="713.7473684210526" y="1426.0" type="line"/>
      <point x="716.4210526315788" y="1150.0"/>
      <point x="719.2631578947368" y="844.0"/>
      <point x="719.4315789473684" y="768.0" type="curve"/>
      <point x="719.4315789473684" y="212.42105263157896" type="line"/>
      <point x="719.2631578947368" y="136.42105263157896"/>
      <point x="716.757894736842" y="-169.57894736842104"/>
    </contour>
    <contour>
      <point x="474.10526315789474" y="1350.842105263158" type="line"/>
      <point x="673.0947368421052" y="1350.842105263158" type="line"/>
      <point x="746.8000000000001" y="1350.5052631578947"/>
      <point x="882.3157894736842" y="1348.1684210526316"/>
      <point x="1001.1789473684211" y="1345.8315789473684" type="curve"/>
      <point x="1001.1789473684211" y="1426.0" type="line"/>
      <point x="882.3157894736842" y="1426.0"/>
      <point x="746.8000000000001" y="1426.0"/>
      <point x="673.0947368421052" y="1426.0" type="curve"/>
      <point x="474.10526315789474" y="1426.0" type="line"/>
    </contour>
  </outline>
</glyph>
<glyph name="AE" format="2">
  <advance width="1923.7701149425288"/>
  <unicode hex="00C6"/>
  <anchor x="998.919540229885" y="0.0" name="bottom"/>
  <anchor x="998.919540229885" y="1426.0" name="top"/>
  <outline>
    <contour>
      <point x="28.689655172413794" y="0.0" type="curve"/>
      <point x="159.1494252873563" y="0.0" type="line"/>
      <point x="257.264367816092" y="176.32183908045977"/>
      <point x="366.2758620689655" y="371.90804597701145"/>
      <point x="460.39080459770116" y="540.2298850574713" type="curve"/>
      <point x="918.3218390804598" y="1336.7816091954023" type="line"/>
      <point x="951.2643678160919" y="1336.7816091954023" type="line"/>
      <point x="1026.9655172413795" y="1336.7816091954023" type="line"/>
      <point x="1031.7471264367816" y="1426.0" type="line"/>
      <point x="852.2528735632184" y="1426.0" type="line"/>
      <point x="773.1954022988506" y="1283.632183908046"/>
      <point x="694.8735632183908" y="1141.471264367816"/>
      <point x="605.0804597701149" y="978.8965517241379" type="curve"/>
      <point x="319.17241379310343" y="484.0" type="line"/>
      <point x="227.01149425287358" y="330.367816091954"/>
      <point x="121.2183908045977" y="154.367816091954"/>
    </contour>
    <contour>
      <point x="340.3448275862069" y="391.28735632183907" type="line"/>
      <point x="997.6091954022988" y="391.28735632183907" type="line"/>
      <point x="993.5632183908045" y="476.6666666666667" type="line"/>
      <point x="345.1264367816092" y="476.6666666666667" type="line"/>
    </contour>
    <contour>
      <point x="942.3218390804598" y="0.0" type="curve"/>
      <point x="1057.1494252873563" y="0.0" type="line"/>
      <point x="1057.1494252873563" y="12.25287356321839" type="line"/>
      <point x="1054.0459770114944" y="173.1494252873563"/>
      <point x="1051.3103448275863" y="314.04597701149424"/>
      <point x="1048.2068965517242" y="488.41379310344826" type="curve"/>
      <point x="1048.2068965517242" y="937.7471264367816" type="line"/>
      <point x="1051.3103448275863" y="1112.8505747126437"/>
      <point x="1054.0459770114944" y="1251.7471264367816"/>
      <point x="1057.1494252873563" y="1413.7471264367816" type="curve"/>
      <point x="1057.1494252873563" y="1426.0" type="line"/>
      <point x="942.3218390804598" y="1426.0" type="line"/>
      <point x="945.0574712643678" y="1267.6781609195402"/>
      <point x="946.1609195402298" y="1125.8390804597702"/>
      <point x="949.2643678160919" y="950.0" type="curve"/>
      <point x="949.2643678160919" y="474.5287356321839" type="line"/>
      <point x="946.1609195402298" y="299.7931034482759"/>
      <point x="945.0574712643678" y="160.52873563218392"/>
    </contour>
    <contour>
      <point x="1032.8965517241381" y="0.0" type="line"/>
      <point x="1801.448275862069" y="0.0" type="line"/>
      <point x="1801.448275862069" y="101.26436781609195" type="line"/>
      <point x="1664.0229885057472" y="98.52873563218391"/>
      <point x="1433.7471264367816" y="93.42528735632185"/>
      <point x="1307.3793103448277" y="90.6896551724138" type="curve"/>
      <point x="1032.8965517241381" y="90.6896551724138" type="line"/>
    </contour>
    <contour>
      <point x="1027.7471264367816" y="679.6551724137931" type="line"/>
      <point x="1312.0689655172414" y="679.6551724137931" type="line"/>
      <point x="1422.6436781609195" y="679.2873563218391"/>
      <point x="1677.977011494253" y="676.551724137931"/>
      <point x="1758.183908045977" y="676.1839080459771" type="curve"/>
      <point x="1758.183908045977" y="776.3448275862069" type="line"/>
      <point x="1631.1264367816093" y="773.9770114942529"/>
      <point x="1483.3333333333333" y="771.6091954022988"/>
      <point x="1314.0689655172414" y="768.8735632183908" type="curve"/>
      <point x="1027.7471264367816" y="768.8735632183908" type="line"/>
    </contour>
    <contour>
      <point x="1030.3218390804598" y="1335.3103448275863" type="line"/>
      <point x="1297.5402298850574" y="1335.3103448275863" type="line"/>
      <point x="1438.6436781609195" y="1332.5747126436781"/>
      <point x="1662.5517241379312" y="1327.471264367816"/>
      <point x="1801.977011494253" y="1324.7356321839081" type="curve"/>
      <point x="1801.977011494253" y="1426.0" type="line"/>
      <point x="1030.3218390804598" y="1426.0" type="line"/>
    </contour>
  </outline>
</glyph>
<glyph name="multiply" format="2">
  <advance width="1115.4105263157894"/>
  <unicode hex="00D7"/>
  <outline>
    <contour>
      <point x="907.2842105263159" y="174.4" type="curve"/>
      <point x="975.6631578947369" y="242.77894736842106" type="line"/>
      <point x="889.4736842105264" y="324.6315789473684"/>
      <point x="792.1263157894737" y="419.4736842105263"/>
      <point x="739.4315789473684" y="471.8315789473684" type="curve"/>
      <point x="437.17894736842106" y="774.0842105263158" type="line"/>
      <point x="384.82105263157894" y="826.7789473684211"/>
      <point x="289.978947368421" y="924.1263157894738"/>
      <point x="208.1263157894737" y="1010.3157894736842" type="curve"/>
      <point x="139.74736842105264" y="941.9368421052632" type="line"/>
      <point x="225.93684210526314" y="860.0842105263157"/>
      <point x="323.2842105263158" y="765.2421052631579"/>
      <point x="375.9789473684211" y="712.8842105263158" type="curve"/>
      <point x="678.2315789473685" y="410.63157894736844" type="line"/>
      <point x="730.5894736842106" y="357.93684210526317"/>
      <point x="825.4315789473684" y="260.58947368421053"/>
    </contour>
    <contour>
      <point x="208.1263157894737" y="174.4" type="line"/>
      <point x="289.978947368421" y="260.58947368421053"/>
      <point x="384.82105263157894" y="357.93684210526317"/>
      <point x="437.17894736842106" y="410.63157894736844" type="curve"/>
      <point x="739.4315789473684" y="712.8842105263158" type="line"/>
      <point x="792.1263157894737" y="765.2421052631579"/>
      <point x="889.4736842105264" y="860.0842105263157"/>
      <point x="975.6631578947369" y="941.9368421052632" type="curve"/>
      <point x="907.2842105263159" y="1010.3157894736842" type="line"/>
      <point x="825.4315789473684" y="924.1263157894738"/>
      <point x="730.5894736842106" y="826.7789473684211"/>
      <point x="678.2315789473685" y="774.0842105263158" type="curve"/>
      <point x="375.9789473684211" y="471.8315789473684" type="line"/>
      <point x="323.2842105263158" y="419.4736842105263"/>
      <point x="225.93684210526314" y="324.6315789473684"/>
      <point x="139.74736842105264" y="242.77894736842106" type="curve"/>
    </contour>
  </outline>
</glyph>
<glyph name="Oslash" format="2">
  <advance width="1636.6526315789474"/>
  <unicode hex="00D8"/>
  <anchor x="817.4947368421052" y="0.0" name="bottom"/>
  <anchor x="817.4947368421052" y="714.0" name="center"/>
  <anchor x="994.2315789473685" y="0.0" name="ogonek"/>
  <anchor x="817.4947368421052" y="1426.0" name="top"/>
  <anchor x="53.49473684210526" y="1426.0" name="topleft"/>
  <anchor x="1439.621052631579" y="1426.0" name="topright"/>
  <outline>
    <contour>
      <point x="825.3263157894737" y="-19.178947368421053" type="curve" smooth="yes"/>
      <point x="1256.0631578947368" y="-19.178947368421053"/>
      <point x="1522.7157894736843" y="294.9894736842105"/>
      <point x="1522.7157894736843" y="715.6631578947369" type="curve" smooth="yes"/>
      <point x="1522.7157894736843" y="1124.0"/>
      <point x="1268.2315789473685" y="1450.6736842105263"/>
      <point x="820.6526315789474" y="1450.6736842105263" type="curve" smooth="yes"/>
      <point x="380.90526315789475" y="1450.6736842105263"/>
      <point x="113.93684210526315" y="1129.6631578947367"/>
      <point x="113.93684210526315" y="715.4947368421052" type="curve" smooth="yes"/>
      <point x="113.93684210526315" y="316.5052631578947"/>
      <point x="357.7473684210526" y="-19.178947368421053"/>
    </contour>
    <contour>
      <point x="821.1578947368421" y="74.61052631578947" type="curve"/>
      <point x="402.2315789473684" y="83.28421052631579"/>
      <point x="217.49473684210525" y="373.4736842105263"/>
      <point x="217.49473684210525" y="715.6631578947369" type="curve" smooth="yes"/>
      <point x="217.49473684210525" y="1056.5263157894738"/>
      <point x="410.06315789473683" y="1348.2105263157896"/>
      <point x="821.1578947368421" y="1356.8842105263159" type="curve"/>
      <point x="1218.9263157894736" y="1348.2105263157896"/>
      <point x="1419.157894736842" y="1078.505263157895"/>
      <point x="1419.157894736842" y="715.6631578947369" type="curve" smooth="yes"/>
      <point x="1419.157894736842" y="380.8"/>
      <point x="1239.9157894736843" y="83.28421052631579"/>
    </contour>
    <contour>
      <point x="253.2421052631579" y="-120.56842105263158" type="line"/>
      <point x="384.4" y="51.431578947368415"/>
      <point x="506.2315789473684" y="212.27368421052634"/>
      <point x="649.7263157894737" y="400.77894736842103" type="curve"/>
      <point x="1044.0631578947368" y="920.9473684210526" type="line"/>
      <point x="1190.7368421052631" y="1108.6105263157895"/>
      <point x="1312.5684210526317" y="1263.7684210526313"/>
      <point x="1449.578947368421" y="1439.9368421052632" type="curve"/>
      <point x="1374.7368421052633" y="1496.5684210526315" type="line"/>
      <point x="1242.5684210526315" y="1319.557894736842"/>
      <point x="1123.4105263157896" y="1159.8947368421052"/>
      <point x="978.0842105263158" y="965.8947368421053" type="curve"/>
      <point x="587.9157894736842" y="452.06315789473683" type="line"/>
      <point x="439.74736842105267" y="264.56842105263155"/>
      <point x="325.0736842105263" y="118.56842105263156"/>
      <point x="182.90526315789472" y="-60.926315789473676" type="curve"/>
    </contour>
  </outline>
</glyph>
